<svg width="409" height="64" viewBox="0 0 409 64" fill="none" xmlns="http://www.w3.org/2000/svg">
<path d="M409 50.1071C409 53.0829 408.229 55.5904 406.687 57.6294C405.144 59.6615 403.044 61.2045 400.394 62.2584C397.75 63.3055 394.71 63.829 391.278 63.829C388.248 63.829 385.264 63.3778 382.327 62.4789C379.387 61.5696 376.612 60.1574 373.996 58.2355C373.528 57.8877 373.438 57.4193 373.734 56.8303L376.089 52.8212C376.437 52.2357 376.902 52.1461 377.48 52.5594C379.58 54.13 381.807 55.3389 384.158 56.1828C386.517 57.0301 388.951 57.4503 391.457 57.4503C394.366 57.4503 396.806 56.8544 398.782 55.6592C400.765 54.4675 401.757 52.7351 401.757 50.4653C401.757 48.8327 401.234 47.5653 400.187 46.6629C399.141 45.7536 397.825 45.0716 396.249 44.6101C394.679 44.1417 393.082 43.7628 391.457 43.4666C389.887 43.1187 388.124 42.6813 386.169 42.1578C384.22 41.6343 382.358 40.8628 380.578 39.8433C378.805 38.8238 377.335 37.4874 376.172 35.8342C375.005 34.174 374.423 32.0868 374.423 29.5794C374.423 26.6139 375.253 24.1857 376.915 22.2914C378.575 20.4005 380.716 19.0056 383.332 18.1032C385.949 17.1939 388.716 16.7393 391.636 16.7393C394.369 16.7393 396.985 17.0906 399.485 17.7863C401.991 18.4855 404.435 19.505 406.824 20.8448C407.465 21.141 407.582 21.575 407.169 22.1536L404.814 26.0801C404.518 26.669 404.084 26.7896 403.506 26.4383C401.695 25.4463 399.76 24.661 397.695 24.0824C395.629 23.4969 393.488 23.2007 391.278 23.2007C388.248 23.2007 385.859 23.7724 384.117 24.909C382.372 26.0387 381.501 27.5955 381.501 29.5794C381.501 31.15 382.01 32.4037 383.029 33.3405C384.048 34.2705 385.429 34.9938 387.174 35.5173C388.916 36.0408 390.81 36.5092 392.848 36.9225C394.6 37.2739 396.421 37.7078 398.314 38.2314C400.204 38.7549 401.95 39.4678 403.547 40.3668C405.144 41.2692 406.453 42.5091 407.472 44.0866C408.491 45.6572 409 47.6651 409 50.1071Z" fill="black"/>
<path d="M328.767 62.8646C328.123 62.8646 327.803 62.5443 327.803 61.9002V21.3683C327.803 20.7897 328.037 20.3833 328.505 20.1422C331.011 19.0951 333.673 18.2685 336.492 17.6623C339.318 17.0492 342.241 16.7393 345.264 16.7393C349.164 16.7393 352.583 17.3833 355.522 18.668C358.469 19.9459 360.769 21.9676 362.421 24.7299C364.081 27.4956 364.914 31.1224 364.914 35.6137V61.9002C364.914 62.5443 364.563 62.8646 363.867 62.8646H358.717C358.073 62.8646 357.753 62.5443 357.753 61.9002V35.779C357.753 31.243 356.659 28.0157 354.476 26.0938C352.3 24.1651 349.229 23.2007 345.264 23.2007C343.463 23.2007 341.632 23.3488 339.769 23.6415C337.903 23.9377 336.303 24.3132 334.964 24.7712V61.9002C334.964 62.5443 334.612 62.8646 333.917 62.8646H328.767Z" fill="black"/>
<path d="M282.583 21.2857C284.621 19.8804 287.034 18.7748 289.826 17.9654C292.615 17.1491 295.699 16.7393 299.08 16.7393C304.44 16.7393 308.678 18.1548 311.79 20.9826C314.902 23.8034 316.458 28.0364 316.458 33.685V59.8888C316.458 60.4777 316.196 60.8601 315.673 61.0323C313.635 61.7866 311.129 62.4375 308.154 62.9886C305.187 63.5466 302.075 63.829 298.818 63.829C295.558 63.829 292.501 63.364 289.647 62.4375C286.8 61.5007 284.487 59.9714 282.707 57.8498C280.934 55.7212 280.049 52.9383 280.049 49.5009C280.049 44.8443 281.777 41.3691 285.241 39.0718C288.7 36.7676 293.227 35.6137 298.818 35.6137C300.625 35.6137 302.46 35.7171 304.326 35.9168C306.189 36.12 307.844 36.368 309.297 36.6608V33.8641C309.297 30.3096 308.492 27.6472 306.887 25.8734C305.29 24.0927 302.598 23.2007 298.818 23.2007C296.374 23.2007 294.074 23.5106 291.919 24.1237C289.771 24.7299 287.94 25.5014 286.425 26.4383C285.902 26.7896 285.464 26.7 285.117 26.1765L282.583 22.498C282.287 21.9745 282.287 21.5715 282.583 21.2857ZM287.21 49.5009C287.21 52.1186 288.298 54.099 290.473 55.4388C292.656 56.7821 295.437 57.4503 298.818 57.4503C300.801 57.4503 302.722 57.2918 304.588 56.9681C306.45 56.6477 308.02 56.2861 309.297 55.8797V42.7778C307.9 42.485 306.257 42.237 304.367 42.0338C302.474 41.8237 300.625 41.7169 298.818 41.7169C294.859 41.7169 291.936 42.4196 290.046 43.8248C288.153 45.2232 287.21 47.1141 287.21 49.5009Z" fill="black"/>
<path d="M274.284 50.1071C274.284 53.0829 273.513 55.5904 271.971 57.6294C270.429 59.6615 268.329 61.2045 265.678 62.2584C263.034 63.3055 259.994 63.829 256.562 63.829C253.533 63.829 250.548 63.3778 247.611 62.4789C244.671 61.5696 241.897 60.1574 239.28 58.2355C238.812 57.8877 238.723 57.4193 239.019 56.8303L241.373 52.8212C241.721 52.2357 242.186 52.1461 242.764 52.5594C244.864 54.13 247.092 55.3389 249.443 56.1828C251.801 57.0301 254.235 57.4503 256.741 57.4503C259.65 57.4503 262.091 56.8544 264.067 55.6592C266.05 54.4675 267.041 52.7351 267.041 50.4653C267.041 48.8327 266.518 47.5653 265.471 46.6629C264.425 45.7536 263.11 45.0716 261.533 44.6101C259.963 44.1417 258.366 43.7628 256.741 43.4666C255.171 43.1187 253.409 42.6813 251.453 42.1578C249.505 41.6343 247.642 40.8628 245.863 39.8433C244.09 38.8238 242.62 37.4874 241.456 35.8342C240.289 34.174 239.707 32.0868 239.707 29.5794C239.707 26.6139 240.537 24.1857 242.2 22.2914C243.859 20.4005 246 19.0056 248.617 18.1032C251.233 17.1939 254.001 16.7393 256.92 16.7393C259.653 16.7393 262.27 17.0906 264.769 17.7863C267.275 18.4855 269.72 19.505 272.109 20.8448C272.749 21.141 272.866 21.575 272.453 22.1536L270.098 26.0801C269.802 26.669 269.368 26.7896 268.79 26.4383C266.979 25.4463 265.045 24.661 262.979 24.0824C260.913 23.4969 258.772 23.2007 256.562 23.2007C253.533 23.2007 251.143 23.7724 249.402 24.909C247.656 26.0387 246.785 27.5955 246.785 29.5794C246.785 31.15 247.295 32.4037 248.314 33.3405C249.333 34.2705 250.713 34.9938 252.459 35.5173C254.2 36.0408 256.094 36.5092 258.132 36.9225C259.884 37.2739 261.705 37.7078 263.599 38.2314C265.489 38.7549 267.234 39.4678 268.831 40.3668C270.429 41.2692 271.737 42.5091 272.756 44.0866C273.775 45.6572 274.284 47.6651 274.284 50.1071Z" fill="black"/>
<path d="M230.552 5.02892C230.552 6.25163 230.142 7.27113 229.326 8.08741C228.507 8.90714 227.488 9.31356 226.269 9.31356C225.047 9.31356 224.014 8.90714 223.171 8.08741C222.324 7.27113 221.904 6.25163 221.904 5.02892C221.904 3.75455 222.324 2.72472 223.171 1.94288C224.014 1.15415 225.047 0.758057 226.269 0.758057C227.488 0.758057 228.507 1.15415 229.326 1.94288C230.142 2.72472 230.552 3.75455 230.552 5.02892ZM223.653 62.8647C222.954 62.8647 222.606 62.5444 222.606 61.9003V18.7508C222.606 18.0551 222.954 17.7037 223.653 17.7037H228.803C229.437 17.7037 229.753 18.0551 229.753 18.7508V61.9003C229.753 62.5444 229.437 62.8647 228.803 62.8647H223.653Z" fill="black"/>
<path d="M203.482 1.36429C203.482 0.723662 203.83 0.399902 204.529 0.399902H209.679C210.319 0.399902 210.643 0.723662 210.643 1.36429V59.6272C210.643 60.1507 210.381 60.533 209.858 60.7707C207.352 61.7006 204.612 62.4377 201.637 62.9887C198.67 63.5467 195.792 63.8291 193.003 63.8291C189.22 63.8291 185.857 63.1713 182.91 61.859C179.97 60.5468 177.67 58.494 176.011 55.7007C174.358 52.9109 173.532 49.3289 173.532 44.9547V35.2557C173.532 31.3533 174.345 28.0193 175.969 25.2536C177.601 22.4913 179.846 20.3834 182.703 18.9299C185.557 17.4696 188.817 16.7394 192.48 16.7394C194.518 16.7394 196.48 16.9874 198.374 17.4834C200.264 17.9793 201.968 18.6372 203.482 19.4535V1.36429ZM180.775 44.9547C180.775 49.5562 181.867 52.8041 184.053 54.695C186.235 56.5893 189.278 57.5331 193.182 57.5331C195.045 57.5331 196.89 57.3918 198.718 57.106C200.553 56.8132 202.14 56.4034 203.482 55.8798V26.2593C202.085 25.2674 200.512 24.4959 198.759 23.9448C197.014 23.3937 195.124 23.1182 193.086 23.1182C189.192 23.1182 186.166 24.0963 184.011 26.0527C181.853 28.0021 180.775 31.0675 180.775 35.2557V44.9547Z" fill="black"/>
<path d="M164.805 46.7042C164.805 51.8292 163.087 55.9692 159.655 59.1173C156.219 62.2584 151.534 63.829 145.596 63.829C139.719 63.829 135.048 62.2584 131.577 59.1173C128.114 55.9692 126.386 51.8292 126.386 46.7042V34.1258C126.386 30.6919 127.171 27.6782 128.741 25.0881C130.311 22.4911 132.534 20.4522 135.419 18.9711C138.301 17.4832 141.692 16.7393 145.596 16.7393C149.551 16.7393 152.969 17.4832 155.854 18.9711C158.736 20.4522 160.949 22.4911 162.492 25.0881C164.034 27.6782 164.805 30.6919 164.805 34.1258V46.7042ZM133.629 46.7042C133.629 49.9659 134.648 52.5732 136.686 54.5295C138.724 56.479 141.692 57.4503 145.596 57.4503C149.551 57.4503 152.549 56.479 154.587 54.5295C156.625 52.5732 157.644 49.9659 157.644 46.7042V34.1258C157.644 30.8021 156.625 28.1535 154.587 26.1765C152.549 24.1926 149.551 23.2007 145.596 23.2007C141.692 23.2007 138.724 24.1926 136.686 26.1765C134.648 28.1535 133.629 30.8021 133.629 34.1258V46.7042Z" fill="black"/>
<path d="M120.108 58.7591C117.829 60.3951 115.454 61.6488 112.975 62.5202C110.503 63.3916 107.729 63.829 104.644 63.829C100.806 63.829 97.4871 63.116 94.6883 61.6936C91.8964 60.2608 89.7448 58.2631 88.2301 55.7006C86.7153 53.1381 85.958 50.2277 85.958 46.966V33.685C85.958 30.3716 86.7153 27.4302 88.2301 24.8677C89.7448 22.3052 91.8964 20.3144 94.6883 18.8885C97.4871 17.4557 100.778 16.7393 104.562 16.7393C109.629 16.7393 114.373 18.1962 118.8 21.1066C119.378 21.513 119.464 22.009 119.062 22.5945L116.79 26.1765C116.376 26.7 115.908 26.7896 115.385 26.4383C112.07 24.2822 108.521 23.2007 104.741 23.2007C101.012 23.2007 98.1446 24.1788 96.1342 26.1352C94.1237 28.0846 93.1185 30.5989 93.1185 33.685V46.966C93.1185 50.1071 94.1237 52.6421 96.1342 54.5709C98.1446 56.4928 100.981 57.4503 104.644 57.4503C108.665 57.4503 112.566 56.169 116.349 53.6065C116.872 53.1381 117.34 53.2001 117.753 53.7856L120.273 57.3676C120.687 57.9462 120.631 58.4112 120.108 58.7591Z" fill="black"/>
<path d="M75 0H46.5237C44.4389 0 42.6577 1.49869 42.3067 3.54818L38.0409 28.4518C37.6899 30.5013 35.9087 32 33.8239 32H9.09051C7.00577 32 5.22459 33.4987 4.87353 35.5482L0 64H28.4763C30.5611 64 32.3423 62.5013 32.6933 60.4518L36.9591 35.5482C37.3101 33.4987 39.0913 32 41.1761 32H65.9095C67.9942 32 69.7754 30.5013 70.1265 28.4518L75 0Z" fill="black"/>
</svg>
