<svg width="327" height="64" viewBox="0 0 327 64" fill="none" xmlns="http://www.w3.org/2000/svg">
<path d="M326.108 50.1544C326.108 53.157 325.33 55.687 323.773 57.7444C322.216 59.7948 320.096 61.3517 317.42 62.4151C314.751 63.4716 311.683 63.9998 308.218 63.9998C305.16 63.9998 302.147 63.5445 299.182 62.6375C296.214 61.72 293.413 60.2952 290.772 58.356C290.299 58.005 290.209 57.5324 290.508 56.9381L292.885 52.8929C293.236 52.3021 293.705 52.2118 294.289 52.6288C296.409 54.2135 298.657 55.4333 301.031 56.2848C303.412 57.1397 305.869 57.5637 308.398 57.5637C311.335 57.5637 313.799 56.9624 315.794 55.7565C317.796 54.5541 318.796 52.806 318.796 50.5159C318.796 48.8686 318.268 47.5897 317.212 46.6792C316.155 45.7617 314.828 45.0736 313.236 44.608C311.651 44.1353 310.039 43.7531 308.398 43.4542C306.814 43.1032 305.034 42.6618 303.061 42.1336C301.094 41.6054 299.213 40.8269 297.417 39.7982C295.627 38.7696 294.143 37.4212 292.968 35.7531C291.79 34.078 291.203 31.972 291.203 29.442C291.203 26.4498 292.041 23.9998 293.719 22.0884C295.394 20.1805 297.556 18.773 300.197 17.8625C302.838 16.9451 305.632 16.4863 308.579 16.4863C311.339 16.4863 313.98 16.8408 316.503 17.5428C319.033 18.2483 321.5 19.2769 323.912 20.6288C324.558 20.9277 324.677 21.3656 324.259 21.9494L321.882 25.9112C321.584 26.5054 321.146 26.6271 320.562 26.2726C318.734 25.2717 316.781 24.4794 314.696 23.8955C312.61 23.3047 310.449 23.0059 308.218 23.0059C305.16 23.0059 302.748 23.5828 300.989 24.7296C299.227 25.8695 298.348 27.4403 298.348 29.442C298.348 31.0267 298.862 32.2917 299.891 33.237C300.92 34.1753 302.313 34.9051 304.075 35.4333C305.834 35.9616 307.745 36.4342 309.802 36.8512C311.571 37.2057 313.41 37.6436 315.321 38.1718C317.229 38.7001 318.991 39.4194 320.604 40.3265C322.216 41.237 323.537 42.4881 324.565 44.0797C325.594 45.6644 326.108 47.6905 326.108 50.1544Z" fill="black"/>
<path d="M245.114 63.0267C244.464 63.0267 244.141 62.7035 244.141 62.0537V21.157C244.141 20.5732 244.377 20.1631 244.85 19.9199C247.379 18.8634 250.066 18.0293 252.912 17.4177C255.765 16.7991 258.716 16.4863 261.767 16.4863C265.704 16.4863 269.155 17.1362 272.123 18.4325C275.098 19.7218 277.419 21.7617 279.088 24.5489C280.763 27.3395 281.604 30.9989 281.604 35.5306V62.0537C281.604 62.7035 281.249 63.0267 280.547 63.0267H275.348C274.698 63.0267 274.375 62.7035 274.375 62.0537V35.6974C274.375 31.1206 273.27 27.8643 271.067 25.9251C268.87 23.9789 265.77 23.0059 261.767 23.0059C259.949 23.0059 258.101 23.1553 256.22 23.4507C254.337 23.7496 252.721 24.1284 251.369 24.5906V62.0537C251.369 62.7035 251.015 63.0267 250.313 63.0267H245.114Z" fill="black"/>
<path d="M198.491 21.0736C200.549 19.6557 202.985 18.5402 205.803 17.7235C208.618 16.8999 211.732 16.4863 215.145 16.4863C220.556 16.4863 224.834 17.9147 227.975 20.7678C231.117 23.614 232.688 27.8851 232.688 33.5845V60.0241C232.688 60.6184 232.423 61.0041 231.895 61.1779C229.838 61.939 227.308 62.5958 224.305 63.1518C221.31 63.7148 218.168 63.9998 214.88 63.9998C211.589 63.9998 208.503 63.5306 205.622 62.5958C202.748 61.6505 200.413 60.1075 198.616 57.9668C196.827 55.8191 195.933 53.0111 195.933 49.5428C195.933 44.8443 197.678 41.3378 201.174 39.0198C204.667 36.6948 209.237 35.5306 214.88 35.5306C216.705 35.5306 218.557 35.6349 220.441 35.8365C222.321 36.0415 223.993 36.2917 225.459 36.5871V33.7652C225.459 30.1788 224.646 27.4924 223.026 25.7027C221.414 23.906 218.696 23.0059 214.88 23.0059C212.413 23.0059 210.092 23.3186 207.916 23.9372C205.748 24.5489 203.899 25.3273 202.37 26.2726C201.841 26.6271 201.4 26.5367 201.049 26.0085L198.491 22.2969C198.192 21.7687 198.192 21.3621 198.491 21.0736ZM203.162 49.5428C203.162 52.184 204.26 54.1822 206.456 55.5341C208.66 56.8895 211.468 57.5637 214.88 57.5637C216.882 57.5637 218.821 57.4038 220.705 57.0771C222.585 56.7539 224.17 56.389 225.459 55.9789V42.7591C224.048 42.4637 222.39 42.2135 220.483 42.0085C218.571 41.7965 216.705 41.6888 214.88 41.6888C210.884 41.6888 207.933 42.3977 206.026 43.8156C204.114 45.2266 203.162 47.1345 203.162 49.5428Z" fill="black"/>
<path d="M190.114 50.1544C190.114 53.157 189.335 55.687 187.779 57.7444C186.222 59.7948 184.102 61.3517 181.426 62.4151C178.757 63.4716 175.688 63.9998 172.223 63.9998C169.165 63.9998 166.152 63.5445 163.188 62.6375C160.22 61.72 157.419 60.2952 154.778 58.356C154.305 58.005 154.215 57.5324 154.514 56.9381L156.891 52.8929C157.242 52.3021 157.711 52.2118 158.295 52.6288C160.415 54.2135 162.663 55.4333 165.037 56.2848C167.417 57.1397 169.874 57.5637 172.404 57.5637C175.341 57.5637 177.805 56.9624 179.799 55.7565C181.801 54.5541 182.802 52.806 182.802 50.5159C182.802 48.8686 182.274 47.5897 181.217 46.6792C180.161 45.7617 178.833 45.0736 177.242 44.608C175.657 44.1353 174.044 43.7531 172.404 43.4542C170.819 43.1032 169.04 42.6618 167.066 42.1336C165.099 41.6054 163.219 40.8269 161.422 39.7982C159.633 38.7696 158.149 37.4212 156.974 35.7531C155.796 34.078 155.209 31.972 155.209 29.442C155.209 26.4498 156.046 23.9998 157.725 22.0884C159.4 20.1805 161.561 18.773 164.203 17.8625C166.844 16.9451 169.638 16.4863 172.585 16.4863C175.344 16.4863 177.985 16.8408 180.508 17.5428C183.038 18.2483 185.506 19.2769 187.918 20.6288C188.564 20.9277 188.682 21.3656 188.265 21.9494L185.888 25.9112C185.589 26.5054 185.151 26.6271 184.567 26.2726C182.739 25.2717 180.786 24.4794 178.701 23.8955C176.616 23.3047 174.454 23.0059 172.223 23.0059C169.165 23.0059 166.753 23.5828 164.995 24.7296C163.233 25.8695 162.354 27.4403 162.354 29.442C162.354 31.0267 162.868 32.2917 163.897 33.237C164.925 34.1753 166.319 34.9051 168.081 35.4333C169.839 35.9616 171.751 36.4342 173.808 36.8512C175.577 37.2057 177.415 37.6436 179.327 38.1718C181.235 38.7001 182.997 39.4194 184.609 40.3265C186.222 41.237 187.542 42.4881 188.571 44.0797C189.6 45.6644 190.114 47.6905 190.114 50.1544Z" fill="black"/>
<path d="M145.966 4.67062C145.966 5.90433 145.553 6.933 144.729 7.75664C143.902 8.58374 142.873 8.99382 141.643 8.99382C140.409 8.99382 139.367 8.58374 138.515 7.75664C137.661 6.933 137.237 5.90433 137.237 4.67062C137.237 3.38479 137.661 2.34569 138.515 1.55681C139.367 0.760981 140.409 0.361328 141.643 0.361328C142.873 0.361328 143.902 0.760981 144.729 1.55681C145.553 2.34569 145.966 3.38479 145.966 4.67062ZM139.002 63.0268C138.297 63.0268 137.946 62.7036 137.946 62.0538V18.516C137.946 17.814 138.297 17.4595 139.002 17.4595H144.201C144.84 17.4595 145.16 17.814 145.16 18.516V62.0538C145.16 62.7036 144.84 63.0268 144.201 63.0268H139.002Z" fill="black"/>
<path d="M118.64 0.973067C118.64 0.326673 118.991 0 119.696 0H124.895C125.542 0 125.868 0.326673 125.868 0.973067V59.7602C125.868 60.2884 125.604 60.6742 125.076 60.914C122.546 61.8523 119.78 62.596 116.777 63.152C113.782 63.715 110.876 64 108.061 64C104.242 64 100.847 63.3362 97.8719 62.0122C94.9041 60.6881 92.5826 58.6169 90.9076 55.7984C89.2395 52.9835 88.4054 49.3692 88.4054 44.9557V35.1694C88.4054 31.232 89.2256 27.8679 90.8659 25.0773C92.5131 22.2902 94.779 20.1633 97.6634 18.6968C100.544 17.2233 103.835 16.4865 107.533 16.4865C109.59 16.4865 111.571 16.7368 113.483 17.2372C115.391 17.7376 117.111 18.4014 118.64 19.225V0.973067ZM95.7173 44.9557C95.7173 49.5986 96.8189 52.8758 99.0257 54.7837C101.229 56.695 104.301 57.6473 108.242 57.6473C110.122 57.6473 111.985 57.5048 113.83 57.2163C115.683 56.9209 117.285 56.5074 118.64 55.9792V26.0921C117.229 25.0912 115.641 24.3128 113.872 23.7567C112.11 23.2007 110.202 22.9227 108.145 22.9227C104.214 22.9227 101.16 23.9096 98.984 25.8836C96.805 27.8506 95.7173 30.9435 95.7173 35.1694V44.9557Z" fill="black"/>
<path d="M79.5954 46.7209C79.5954 51.8921 77.8613 56.0693 74.3965 59.2457C70.9282 62.4151 66.1984 63.9998 60.2036 63.9998C54.2714 63.9998 49.5555 62.4151 46.0524 59.2457C42.5563 56.0693 40.8118 51.8921 40.8118 46.7209V34.0293C40.8118 30.5645 41.6041 27.5237 43.1888 24.9103C44.7735 22.29 47.0185 20.2326 49.9308 18.7383C52.8396 17.237 56.2627 16.4863 60.2036 16.4863C64.1966 16.4863 67.6476 17.237 70.5598 18.7383C73.4686 20.2326 75.7032 22.29 77.2601 24.9103C78.817 27.5237 79.5954 30.5645 79.5954 34.0293V46.7209ZM48.1237 46.7209C48.1237 50.012 49.1523 52.6427 51.2097 54.6166C53.267 56.5836 56.2627 57.5637 60.2036 57.5637C64.1966 57.5637 67.2236 56.5836 69.2809 54.6166C71.3383 52.6427 72.3669 50.012 72.3669 46.7209V34.0293C72.3669 30.6757 71.3383 28.0033 69.2809 26.0085C67.2236 24.0067 64.1966 23.0059 60.2036 23.0059C56.2627 23.0059 53.267 24.0067 51.2097 26.0085C49.1523 28.0033 48.1237 30.6757 48.1237 34.0293V46.7209Z" fill="black"/>
<path d="M34.4744 58.8842C32.1738 60.535 29.7758 61.8 27.2737 62.6792C24.7785 63.5584 21.9774 63.9998 18.8636 63.9998C14.9887 63.9998 11.6386 63.2804 8.81321 61.8451C5.99479 60.3994 3.82276 58.3838 2.29366 55.7982C0.764553 53.2127 0 50.2761 0 46.985V33.5845C0 30.2413 0.764553 27.2735 2.29366 24.6879C3.82276 22.1023 5.99479 20.0936 8.81321 18.6549C11.6386 17.2092 14.9609 16.4863 18.7802 16.4863C23.8957 16.4863 28.6846 17.9564 33.1538 20.8929C33.7376 21.303 33.8245 21.8034 33.4179 22.3942L31.1242 26.0085C30.7072 26.5367 30.2346 26.6271 29.7063 26.2726C26.3597 24.0971 22.7767 23.0059 18.9609 23.0059C15.1972 23.0059 12.3023 23.9928 10.2728 25.9668C8.24327 27.9338 7.2285 30.4707 7.2285 33.5845V46.985C7.2285 50.1544 8.24327 52.7122 10.2728 54.6584C12.3023 56.5975 15.1659 57.5637 18.8636 57.5637C22.9227 57.5637 26.8601 56.2709 30.6794 53.6853C31.2076 53.2127 31.6803 53.2752 32.0973 53.866L34.6412 57.4802C35.0582 58.0641 35.0026 58.5332 34.4744 58.8842Z" fill="black"/>
</svg>
