<svg width="260" height="97" viewBox="0 0 260 97" fill="none" xmlns="http://www.w3.org/2000/svg">
<path d="M45.96 2.4C41.24 11.28 35.32 15.72 28.2 15.72C25.96 15.72 23.16 15 19.8 13.56H19.92C20.4 13.88 20.52 14.4 20.28 15.12C19.88 16.08 19.32 16.56 18.6 16.56C18.28 16.56 17.88 16.48 17.4 16.32C16.44 15.84 15.96 15 15.96 13.8C15.96 13.48 16.04 12.92 16.2 12.12C13.4 11.08 11.28 10.56 9.84 10.56C7.44 10.56 5.48 11.32 3.96 12.84C2.52 14.36 1.8 16.32 1.8 18.72C1.8 20.48 2.48 22.28 3.84 24.12L2.76 22.8C0.92 20.72 0 18.28 0 15.48C0 11.16 1.56 7.6 4.68 4.79999C7.88 1.91999 11.88 0.719995 16.68 1.2C21.08 1.52 24.84 2.36 27.96 3.71999C32.04 5.47999 34.76 6.36 36.12 6.36C39.16 6.36 42.44 5.04 45.96 2.4ZM62.88 4.68C63.2 4.6 63.52 4.56 63.84 4.56C64.16 4.56 64.52 4.56 64.92 4.56C70.68 4.56 76.24 6.88 81.6 11.52C88.24 17.2 91.44 24.48 91.2 33.36C92.64 33.68 93.44 34.68 93.6 36.36C93.6 37.48 93.2 38.24 92.4 38.64C91.68 39.04 91.12 39.08 90.72 38.76C89.28 45.8 87 51.84 83.88 56.88C76.6 68.88 65.96 74.76 51.96 74.52C46.44 75.24 43.52 72.56 43.2 66.48V21.84L46.68 19.68V66.12C46.68 67.08 46.8 67.84 47.04 68.4C47.68 70 48.68 70.88 50.04 71.04C50.44 71.12 50.84 71.16 51.24 71.16C51.64 71.16 52.04 71.16 52.44 71.16C60.52 71.16 66.56 66.28 70.56 56.52C72.24 52.44 73.44 47.56 74.16 41.88C74.24 41.16 74.28 40.44 74.28 39.72C74.36 39 74.4 38.32 74.4 37.68C74.4 27.6 71.12 20.12 64.56 15.24C61.76 13.16 58.48 11.72 54.72 10.92C44.8 11.72 39.84 15.8 39.84 23.16V59.88C39.84 72.6 34.68 79.72 24.36 81.24C21.24 81.08 18.36 80.44 15.72 79.32C15 79 14.16 78.84 13.2 78.84C12 78.84 11 79.24 10.2 80.04C9.48 80.76 9.12 81.6 9.12 82.56C9.28 84.48 10.32 86.36 12.24 88.2C15.04 90.76 19.04 92.16 24.24 92.4C30.64 92.64 35.72 90.96 39.48 87.36C37.88 84.88 37.08 82.76 37.08 81C36.92 76.76 38.64 74.4 42.24 73.92C45.2 74.08 46.64 76 46.56 79.68C46.24 82.64 45.2 85.28 43.44 87.6C46 89.76 49.64 90.8 54.36 90.72C63.08 90.16 67.04 86.8 66.24 80.64C66.16 79.12 65.72 77.84 64.92 76.8C64.2 75.76 64.32 75.24 65.28 75.24C66 75.24 66.72 76.08 67.44 77.76C68.08 79.2 68.48 80.4 68.64 81.36C68.88 84.08 68 86.68 66 89.16C63.2 92.76 58.76 94.44 52.68 94.2C47.96 93.96 44.24 92.48 41.52 89.76C37.36 93.68 31.48 95.76 23.88 96C19.72 95.6 16.28 94.84 13.56 93.72C6.52 90.68 2.84 85.52 2.52 78.24C2.04 68.16 6.8 62.88 16.8 62.4H18.36C18.92 60.96 19.2 59.44 19.2 57.84C19.2 53.92 17.48 50.76 14.04 48.36C14.36 46.12 16.08 44.32 19.2 42.96L18.96 41.16C16.88 41.4 15.72 40.68 15.48 39C15.32 37.4 16.28 36.16 18.36 35.28C17.64 28.24 21.92 22 31.2 16.56C43.04 10.96 53.6 6.99999 62.88 4.68ZM89.64 37.8C89.64 37.48 89.48 37.32 89.16 37.32C88.92 37.32 88.76 37.44 88.68 37.68C87.72 44.16 85.72 50.04 82.68 55.32C78.04 63.08 71.36 68.04 62.64 70.2L63.6 68.88C71.2 64.16 75.48 54.48 76.44 39.84C76.52 29.52 74 21.44 68.88 15.6C64.64 11.04 60.36 8.91999 56.04 9.23999L54.84 8.75999C60.28 7.23999 64.28 6.59999 66.84 6.84C70.84 7.71999 74.76 9.59999 78.6 12.48C85.08 17.52 88.56 24.24 89.04 32.64C89.04 32.88 89.16 33 89.4 33C89.56 33 89.76 32.88 90 32.64C89.84 24.56 86.68 17.84 80.52 12.48C75.4 7.92 70.52 5.6 65.88 5.52C59.96 5.2 48.16 9.48 30.48 18.36C23.12 22.76 19.6 28.08 19.92 34.32C20.08 34.64 20.24 34.88 20.4 35.04C20.48 34.96 20.56 34.92 20.64 34.92C20.72 34.84 20.8 34.72 20.88 34.56C20.96 33.44 21.12 32.36 21.36 31.32C21.68 30.2 22.04 29.12 22.44 28.08C24.6 23.36 28.48 19.8 34.08 17.4C31.92 19.24 30.84 22.64 30.84 27.6C30.84 30.56 31.2 33.84 31.92 37.44C32.08 38.16 32.2 39.4 32.28 41.16C32.44 42.84 32.6 45.08 32.76 47.88C31.08 57.88 27.2 62.4 21.12 61.44C21.44 60.08 21.6 58.4 21.6 56.4C21.6 51.6 20.2 48.4 17.4 46.8C17.4 46.56 18 46.08 19.2 45.36C19.44 45.2 19.76 45.32 20.16 45.72C20.56 46.04 20.76 46.48 20.76 47.04C20.6 48.88 20.84 49.6 21.48 49.2C21.96 47.76 22.08 45.92 21.84 43.68C21.76 43.04 21.68 42.44 21.6 41.88C21.52 41.24 21.44 40.6 21.36 39.96C21.36 39.4 21.2 39.16 20.88 39.24C20.56 39.4 20.36 39.68 20.28 40.08C20.12 40.72 20.24 42.08 20.64 44.16C19.84 44.16 19.16 44.28 18.6 44.52C17.16 45 16.24 45.92 15.84 47.28C19.12 49.36 20.76 52.44 20.76 56.52C20.76 58.36 20.4 60.28 19.68 62.28C20.24 62.76 21.16 62.92 22.44 62.76C29.16 61.96 32.96 57.04 33.84 48C33.92 46.4 33.6 42.92 32.88 37.56C32.48 35 32.2 32.84 32.04 31.08C31.88 29.24 31.84 27.76 31.92 26.64C32 26 32.08 25.36 32.16 24.72C32.24 24.08 32.36 23.44 32.52 22.8C33.24 20 34.28 17.92 35.64 16.56L38.28 19.56V56.52C38.28 63 35.52 66.24 30 66.24C28.16 66.24 26.28 65.8 24.36 64.92C23.08 64.36 20.48 63.76 16.56 63.12C11.6 63.04 7.96 65.12 5.64 69.36C4.36 71.6 3.68 74.08 3.6 76.8C3.36 79.84 4.24 82.96 6.24 86.16C9.6 91.68 15.48 94.44 23.88 94.44C31.4 94.44 37.12 92.72 41.04 89.28C41.44 88.88 41.76 88.52 42 88.2C42.24 88.04 42.56 87.72 42.96 87.24C44.8 84.92 45.84 82.4 46.08 79.68C46.24 78.48 45.96 77.32 45.24 76.2C44.52 75 43.64 74.44 42.6 74.52C41.48 74.52 40.48 75.08 39.6 76.2C38.8 77.24 38.4 78.56 38.4 80.16C38.48 82.4 39.2 84.48 40.56 86.4C40.88 86.08 41.08 85.8 41.16 85.56C40.28 84.2 39.72 82.64 39.48 80.88C39.24 77.76 40.12 76.04 42.12 75.72C43.48 75.56 44.36 76.2 44.76 77.64C45 78.12 45.12 78.76 45.12 79.56C44.88 81.96 43.84 84.32 42 86.64C41.68 86.8 41.36 87.04 41.04 87.36C40.8 87.6 40.48 87.92 40.08 88.32C36.16 91.36 31.24 92.88 25.32 92.88C20.28 92.88 16.16 91.88 12.96 89.88C10.08 88.12 8.56 85.88 8.4 83.16C8.4 82.76 8.44 82.28 8.52 81.72C8.68 81.08 8.88 80.48 9.12 79.92C9.36 79.36 9.6 78.88 9.84 78.48C10.16 78 10.48 77.76 10.8 77.76C10.72 76.96 10.36 76.8 9.72 77.28C8.28 78.4 7.56 79.92 7.56 81.84C7.56 83.36 8.04 85.24 9 87.48C6.44 85.4 4.92 82.04 4.44 77.4C4.12 73.96 5.2 70.8 7.68 67.92C10.32 64.96 13.04 63.68 15.84 64.08C18.56 64.32 21.64 65.2 25.08 66.72C26.84 67.36 28.56 67.68 30.24 67.68C34.32 67.68 37.08 65.64 38.52 61.56C36.84 71.72 32.12 77.2 24.36 78C21.96 77.92 19.44 77.32 16.8 76.2C15.68 75.72 15 75.52 14.76 75.6C14.36 75.76 14.16 75.92 14.16 76.08C14.16 76.32 14.44 76.56 15 76.8C15.24 76.88 15.76 77.12 16.56 77.52C19.04 78.96 21.8 79.56 24.84 79.32C34.44 77.64 39.24 71.4 39.24 60.6V21.72C39.56 19.56 40.32 17.64 41.52 15.96C44.16 12.04 48.32 10 54 9.83999C58 10.56 61.56 11.96 64.68 14.04C71.8 19 75.36 26.88 75.36 37.68C75.36 38.32 75.36 39 75.36 39.72C75.36 40.44 75.32 41.16 75.24 41.88C74.36 47.72 73.04 52.72 71.28 56.88C67.04 66.88 60.88 71.88 52.8 71.88C52.32 71.88 51.84 71.88 51.36 71.88C50.88 71.8 50.4 71.72 49.92 71.64C47.52 71.24 46.24 69.4 46.08 66.12V21.24L44.76 22.08V66.6C44.76 70.68 46.96 72.88 51.36 73.2C65.36 73.44 75.96 67.6 83.16 55.68C86.12 50.8 88.28 44.84 89.64 37.8ZM76.56 15.48C75.68 15.64 74.96 16.12 74.4 16.92C73.2 18.76 73.4 20.28 75 21.48C76.12 22.36 77 22.32 77.64 21.36C77.96 20.8 77.84 20.28 77.28 19.8C76.88 19.72 76.76 19.72 76.92 19.8C77 20.04 76.92 20.32 76.68 20.64C76.44 20.96 76.2 21.12 75.96 21.12C75.08 21.12 74.64 20.44 74.64 19.08C74.64 18.52 74.84 17.92 75.24 17.28C75.96 16.48 76.72 16.08 77.52 16.08C78.16 16.08 78.88 16.4 79.68 17.04C80.64 18 80.96 19.2 80.64 20.64L79.2 24.6C78.32 27.08 77.88 29.24 77.88 31.08C77.88 33.32 78.4 35.32 79.44 37.08L79.92 37.32C79.68 36.12 79.56 34.84 79.56 33.48C79.56 30.6 80.16 28.44 81.36 27C82.16 26.36 82.88 26.04 83.52 26.04C84.16 26.04 84.68 26.2 85.08 26.52C86.12 27.32 86.36 28.36 85.8 29.64C85.08 29 84.44 28.96 83.88 29.52C83.48 30.16 83.56 30.68 84.12 31.08C84.6 31.64 85.24 31.64 86.04 31.08C86.6 30.6 86.88 29.84 86.88 28.8C86.88 26.48 85.76 25.32 83.52 25.32C82 25.32 80.84 26.04 80.04 27.48C79.88 27.64 79.76 27.84 79.68 28.08C79.68 28.32 79.64 28.52 79.56 28.68C79.4 27.56 79.8 26.4 80.76 25.2C81.8 24.08 82.56 23.56 83.04 23.64C83.52 23.8 83.92 23.72 84.24 23.4C84.8 22.76 84.6 22.36 83.64 22.2C82.36 22.12 81.16 22.92 80.04 24.6C81.16 23 81.72 21.44 81.72 19.92C81.72 18.64 81.4 17.56 80.76 16.68C80.36 16.12 78.44 15.04 75 13.44C74.6 13.2 74.48 12.84 74.64 12.36C74.96 11.8 75.4 11.72 75.96 12.12C75.72 11.64 75.44 11.4 75.12 11.4C74.88 11.4 74.6 11.56 74.28 11.88C74.12 10.12 73.64 9.39999 72.84 9.72C73.08 9.72 73.4 10.32 73.8 11.52C73.64 12.72 73.92 13.48 74.64 13.8C74.8 13.96 75 14.12 75.24 14.28C75.56 14.44 75.88 14.6 76.2 14.76C73.08 15.56 71.16 15.36 70.44 14.16C69.96 13.12 70.08 12.36 70.8 11.88C71.36 11.8 71.64 12.08 71.64 12.72C72.44 12.48 72.64 12.04 72.24 11.4C71.84 10.68 71.2 10.48 70.32 10.8C69.12 11.28 68.84 12.36 69.48 14.04C69.32 13.72 69.12 13.32 68.88 12.84C68.64 12.36 68.44 11.8 68.28 11.16C68.04 10.84 67.24 10.2 65.88 9.23999C64.76 8.6 64.2 7.96 64.2 7.32C64.04 7.64 63.96 7.84 63.96 7.92C63.96 8.56 64.68 9.28 66.12 10.08C65.48 10.24 65.16 10.52 65.16 10.92C65.16 11.32 65.32 11.68 65.64 12C65.56 11.84 65.52 11.64 65.52 11.4C65.52 10.92 65.84 10.68 66.48 10.68C66.88 10.68 67.24 10.96 67.56 11.52C67.8 12.24 68.12 12.96 68.52 13.68C69.24 15.36 70.64 16.2 72.72 16.2C73.92 16.2 75.2 15.96 76.56 15.48ZM92.88 36.36C92.88 35.08 92.08 34.24 90.48 33.84C89.28 33.52 87.6 34.56 85.44 36.96C85.36 36 85.24 35.32 85.08 34.92C84.84 34.2 84.44 33.72 83.88 33.48C83.4 33.24 82.96 33.12 82.56 33.12L82.08 33.6C82.16 33.84 82.2 34.2 82.2 34.68C82.2 35.24 81.92 36 81.36 36.96C80.88 37.92 80.6 38.68 80.52 39.24C80.44 39.96 80.6 40.48 81 40.8C79.4 40.56 78.4 40.52 78 40.68C77.36 41 76.84 42 76.44 43.68C76.68 43.92 76.92 44.08 77.16 44.16C79.4 43.68 80.64 44.48 80.88 46.56C81.2 49.04 80.72 50.32 79.44 50.4C78.72 50.24 78.44 49.32 78.6 47.64C78.12 49.88 78.36 51.04 79.32 51.12C80.68 50.64 81.36 49.36 81.36 47.28C81.36 46.08 81.12 44.64 80.64 42.96C81.36 44.8 81.72 46.44 81.72 47.88C81.72 50.2 80.92 51.48 79.32 51.72C79 51.72 78.72 51.6 78.48 51.36C77.84 50.72 77.48 49.68 77.4 48.24C77.16 50.88 77.8 52.24 79.32 52.32C81.32 52 82.32 50.44 82.32 47.64C82.32 47 82.24 46.36 82.08 45.72C82 45.08 81.88 44.36 81.72 43.56C82.44 45.24 82.8 46.8 82.8 48.24C82.8 51.28 81.68 52.96 79.44 53.28C77.6 53.36 76.6 52.08 76.44 49.44C76.2 51.6 76.6 52.96 77.64 53.52C78.12 53.76 78.68 53.88 79.32 53.88C82.2 53.32 83.64 51.44 83.64 48.24C83.64 47.12 83.4 45.84 82.92 44.4C83.64 45.84 84 47.24 84 48.6C84 52.12 82.44 54.04 79.32 54.36C77.32 54.44 76.12 53.28 75.72 50.88C76.04 53.76 77 55.2 78.6 55.2C78.68 55.2 78.96 55.12 79.44 54.96C83.12 54.16 84.96 51.92 84.96 48.24C84.96 46.64 84.48 44.76 83.52 42.6C82.64 40.28 82.56 38.6 83.28 37.56C83.6 37 83.64 36.12 83.4 34.92C84.12 35.88 84.28 36.84 83.88 37.8C83.48 38.84 83.64 40.76 84.36 43.56C84.44 43.8 84.52 44.24 84.6 44.88C84.76 45.44 84.96 46.2 85.2 47.16C85.2 45.56 85.24 43.88 85.32 42.12C85.4 40.36 85.76 38.88 86.4 37.68C87.36 36.08 88.32 35.28 89.28 35.28C89.6 35.28 89.96 35.48 90.36 35.88C90.36 35.88 90.28 36.04 90.12 36.36C90.04 37.4 90.4 37.96 91.2 38.04C92.32 38.28 92.88 37.72 92.88 36.36ZM36.72 10.44C36.72 9.8 36.32 9.04 35.52 8.15999C36.08 8.79999 36.36 9.52 36.36 10.32C36.36 11.04 36.04 11.6 35.4 12C36.2 11.76 36.64 11.24 36.72 10.44ZM35.76 10.56C35.76 9.84 35.24 8.92 34.2 7.8C34.92 8.76 35.28 9.63999 35.28 10.44C35.28 11.32 34.88 12 34.08 12.48C35.12 12.24 35.68 11.6 35.76 10.56ZM82.56 54.6C81.12 55.32 79.84 55.68 78.72 55.68C76.88 55.68 75.8 54.84 75.48 53.16C75.4 54.92 76.08 55.96 77.52 56.28C79.76 56.6 81.44 56.04 82.56 54.6ZM81.12 56.52C80.24 56.84 79.32 57 78.36 57C76.28 57 75.12 56.08 74.88 54.24C74.72 55.84 75.32 56.92 76.68 57.48C78.6 58.12 80.08 57.8 81.12 56.52ZM79.92 57.96C79.04 58.2 78.24 58.32 77.52 58.32C75.44 58.32 74.36 57.44 74.28 55.68C74.12 57.04 74.64 58.04 75.84 58.68C77.6 59.24 78.96 59 79.92 57.96ZM78.84 59.16C78.12 59.4 77.44 59.52 76.8 59.52C74.96 59.52 73.92 58.68 73.68 57C73.6 58.28 74.08 59.16 75.12 59.64C76.56 60.2 77.8 60.04 78.84 59.16ZM77.88 60.36C77.08 60.52 76.44 60.6 75.96 60.6C74.28 60.6 73.32 59.88 73.08 58.44C72.92 59.56 73.36 60.36 74.4 60.84C75.92 61.32 77.08 61.16 77.88 60.36ZM34.56 11.4C34.88 11.08 35.04 10.64 35.04 10.08C35.04 9.12 34.24 8.2 32.64 7.32C34.32 8.36 34.84 9.64 34.2 11.16C33.32 12.52 32.12 13.2 30.6 13.2C29.08 13.2 27.64 12.4 26.28 10.8C27.88 12.16 29.32 12.84 30.6 12.84C31.88 12.84 32.96 12.24 33.84 11.04C34 10.56 34.08 10.24 34.08 10.08C34.08 8.96 33.2 8.12 31.44 7.55999C33.28 8.52 33.92 9.64 33.36 10.92C32.72 11.8 31.88 12.24 30.84 12.24C29.24 12.24 27.64 11.44 26.04 9.83999C27.88 11.2 29.36 11.88 30.48 11.88C31.52 11.88 32.28 11.44 32.76 10.56C33.08 9.52 32.36 8.68 30.6 8.04C32.04 8.91999 32.6 9.71999 32.28 10.44C31.88 11.08 31.28 11.4 30.48 11.4C29.12 11.4 27.6 10.56 25.92 8.88C27.68 10.24 29.12 10.92 30.24 10.92C30.96 10.92 31.52 10.72 31.92 10.32C32.16 9.59999 31.44 9.07999 29.76 8.75999C30.96 9.24 31.48 9.68 31.32 10.08C30.92 10.96 29.96 10.96 28.44 10.08C27.64 9.59999 27.24 9.03999 27.24 8.4C27.24 7.91999 27.44 7.39999 27.84 6.84C28 6.59999 27.96 6.36 27.72 6.12C26.6 5.88 25.76 5.96 25.2 6.36C24.96 6.6 24.68 7.32 24.36 8.52C24.36 8.2 24.04 7.96 23.4 7.8C22.92 7.88 22.32 7.88 21.6 7.8C20.88 7.71999 20.08 7.51999 19.2 7.2C19.04 7.04 18.88 7.12 18.72 7.44C18.64 7.68 18.6 8 18.6 8.4C18.6 9.03999 19.24 9.75999 20.52 10.56C19.88 10.72 19.36 10.88 18.96 11.04C18.64 11.2 18.4 11.32 18.24 11.4C17.52 11.8 17.08 12.4 16.92 13.2C16.52 14.8 17.08 15.6 18.6 15.6C19.16 15.6 19.48 15.32 19.56 14.76C19.64 14.2 19.36 13.8 18.72 13.56C18.8 13.64 18.64 13.68 18.24 13.68C18.16 13.6 18.12 13.4 18.12 13.08C18.12 12.2 18.96 11.64 20.64 11.4C21.68 11.24 22.8 11.4 24 11.88C25.2 12.36 26.36 12.8 27.48 13.2C27.08 12.88 26.68 12.6 26.28 12.36C25.96 12.12 25.64 11.88 25.32 11.64C23.4 10.28 22.08 9.64 21.36 9.72C21.12 9.72 20.56 9.28 19.68 8.4C20.32 8.96 20.96 9.23999 21.6 9.23999C22.56 9 23.68 9.52 24.96 10.8C26.72 12.8 28.52 13.8 30.36 13.8C32.04 13.8 33.44 13 34.56 11.4ZM76.92 61.44C76.12 61.6 75.48 61.68 75 61.68C73.48 61.68 72.64 61 72.48 59.64C72.24 60.68 72.56 61.44 73.44 61.92C74.96 62.4 76.12 62.24 76.92 61.44ZM43.8 4.68C40.84 6.27999 38.2 7.07999 35.88 7.07999C34.6 7.07999 33.4 6.75999 32.28 6.12C26.28 3.47999 20.48 2.03999 14.88 1.8C14 1.88 13.16 1.99999 12.36 2.15999C11.56 2.31999 10.76 2.52 9.96 2.76C6.44 3.96 3.96 6.04 2.52 9C1.4 11 0.84 13.16 0.84 15.48C0.84 16.44 0.96 17.4 1.2 18.36C1.76 12.76 4.64 9.96 9.84 9.96C11.76 9.96 14.04 10.52 16.68 11.64C16.92 11.72 17.12 11.68 17.28 11.52C17.36 11.44 17.32 11.24 17.16 10.92C13.96 9.79999 11.36 9.23999 9.36 9.23999C5.84 9.23999 3.2 10.96 1.44 14.4C2.56 7.04 7.08 3.12 15 2.63999C15.88 2.72 16.72 2.8 17.52 2.88C18.32 2.96 19.16 3.07999 20.04 3.23999C22.04 3.55999 23.96 3.99999 25.8 4.56C27.64 5.11999 29.44 5.79999 31.2 6.59999C32.72 7.31999 34.48 7.67999 36.48 7.67999C38.24 7.67999 39.96 7.35999 41.64 6.72C38.68 11.6 34.36 14.04 28.68 14.04C26.28 14.04 23.88 13.6 21.48 12.72C21.32 12.64 21.12 12.56 20.88 12.48C20.72 12.4 20.48 12.28 20.16 12.12C19.76 11.96 19.52 12 19.44 12.24C19.36 12.48 19.4 12.68 19.56 12.84C24.12 14.52 27.16 15.24 28.68 15C30.92 14.76 32.88 14.24 34.56 13.44C38.8 11.6 41.88 8.68 43.8 4.68ZM75.36 62.64C72.88 63.36 71.64 62.76 71.64 60.84C71.56 61.08 71.52 61.36 71.52 61.68C71.52 62.32 71.8 62.76 72.36 63C73.56 63.48 74.56 63.36 75.36 62.64ZM74.16 63.84C71.92 64.4 70.76 63.88 70.68 62.28C70.44 63.24 70.68 63.88 71.4 64.2C72.52 64.6 73.44 64.48 74.16 63.84ZM20.4 6.59999C20.48 6.51999 20.32 6.27999 19.92 5.87999C19.52 5.47999 18.56 5 17.04 4.44C15.84 4.35999 14.76 4.72 13.8 5.52C13.32 6.16 12.8 6.79999 12.24 7.44C11.76 8 11.16 8.24 10.44 8.15999C9.4 7.92 8.96 7.32 9.12 6.36C9.28 4.99999 9.72 4.67999 10.44 5.39999C10.36 5.16 10.32 5.28 10.32 5.76C10.4 6.31999 10.76 6.35999 11.4 5.87999C11.8 5.47999 11.76 5.11999 11.28 4.79999C10.56 4.47999 9.92 4.47999 9.36 4.79999C8.8 5.11999 8.52 5.64 8.52 6.36C8.52 7.87999 9.28 8.67999 10.8 8.75999C11.52 8.75999 12.04 8.55999 12.36 8.15999C12.68 7.75999 13.16 7.28 13.8 6.72C13.8 7.04 14 7.68 14.4 8.63999C15.12 9.28 15.84 9.48 16.56 9.23999C17.68 8.83999 18.2 8.2 18.12 7.32C18.12 7 17.96 6.8 17.64 6.72C17.24 6.56 17 6.59999 16.92 6.84C16.68 7.24 16.68 7.48 16.92 7.55999C17.08 7.87999 17.16 8.07999 17.16 8.15999C16.76 8.79999 16.24 8.92 15.6 8.52C14.16 7.95999 13.88 7.11999 14.76 5.99999C15.24 5.36 15.76 5.04 16.32 5.04C16.4 4.95999 16.56 4.91999 16.8 4.91999C17.52 4.91999 18.52 5.43999 19.8 6.47999C20.04 6.72 20.24 6.75999 20.4 6.59999ZM72.84 64.92C70.84 65.4 69.88 64.88 69.96 63.36C69.48 64.24 69.6 64.88 70.32 65.28C71.36 65.68 72.2 65.56 72.84 64.92ZM71.28 65.88C69.6 66.36 68.76 66 68.76 64.8C68.52 65.44 68.68 65.88 69.24 66.12C69.96 66.44 70.64 66.36 71.28 65.88ZM69.6 66.72C68.24 67.12 67.56 66.88 67.56 66C67.4 66.4 67.52 66.72 67.92 66.96C68.48 67.2 69.04 67.12 69.6 66.72ZM29.76 26.4C30.32 25.68 30.44 24.96 30.12 24.24C29.72 23.52 29.08 23.16 28.2 23.16C26.68 23.16 25.8 23.92 25.56 25.44C25.48 26 25.64 26.64 26.04 27.36C26.44 27.6 26.92 28.12 27.48 28.92C26.84 28.92 26.08 29.08 25.2 29.4C24.32 30.12 23.96 30.84 24.12 31.56C24.28 32.92 24.92 33.6 26.04 33.6C26.36 33.68 26.64 33.56 26.88 33.24C27.04 32.92 26.96 32.64 26.64 32.4C26.4 32.08 26.16 32 25.92 32.16C25.6 32.4 25.4 32.48 25.32 32.4C24.76 31.84 24.68 31.24 25.08 30.6C26.04 29.16 27 29 27.96 30.12C28.6 30.84 28.88 31.48 28.8 32.04C29.28 32.68 28.56 33.88 26.64 35.64C26.48 35.96 26.44 36.16 26.52 36.24C26.6 36.32 26.88 36.2 27.36 35.88C27.92 35.48 28.6 34.48 29.4 32.88C29.72 31.6 29.48 30.36 28.68 29.16C28.6 29.08 28.44 28.92 28.2 28.68C27.96 28.36 27.6 27.96 27.12 27.48C26.48 26.84 26.16 26.28 26.16 25.8C26.16 25.24 26.4 24.76 26.88 24.36C27.36 23.88 27.88 23.72 28.44 23.88C29.24 23.96 29.64 24.32 29.64 24.96C29.64 25.12 29.56 25.28 29.4 25.44C29.32 25.36 29.2 25.32 29.04 25.32C28.4 25.48 28.28 25.84 28.68 26.4C29 27.04 29.36 27.04 29.76 26.4ZM36.96 20.52L35.16 18.84C33.64 21.32 32.88 24.2 32.88 27.48C32.88 28.28 32.92 29.32 33 30.6C33.16 31.8 33.32 33.28 33.48 35.04C34.04 39.44 34.4 42.96 34.56 45.6C34.8 56.72 31.24 62.72 23.88 63.6C25.8 64.8 27.64 65.4 29.4 65.4C31.8 65.4 33.84 64.48 35.52 62.64C36.48 61.36 36.96 59.2 36.96 56.16V20.52ZM30.96 48C31.04 46.48 30.8 45.44 30.24 44.88C30 44.64 29.08 44.48 27.48 44.4C27.88 44.32 28.16 43.84 28.32 42.96C28.4 42.48 28.32 41.84 28.08 41.04C27.84 40.16 27.72 39.52 27.72 39.12C27.72 38.48 27.88 37.96 28.2 37.56C28.28 37.32 28.16 37.16 27.84 37.08C27.44 36.92 27.04 36.92 26.64 37.08C25.84 37.16 25.08 38.08 24.36 39.84C22.92 37.2 21.6 35.88 20.4 35.88C18.32 36.04 17.4 36.96 17.64 38.64C17.8 39.28 18.2 39.6 18.84 39.6C19.64 39.68 20.12 39.24 20.28 38.28C20.2 38.44 20.12 38.28 20.04 37.8C20.36 37.56 20.64 37.44 20.88 37.44C21.84 37.44 22.64 38.4 23.28 40.32C23.44 41.12 23.52 41.8 23.52 42.36C23.52 43.4 23.36 44.56 23.04 45.84C22.72 47.44 22.48 48.56 22.32 49.2C22.64 48.64 22.92 48.12 23.16 47.64C23.4 47.08 23.64 46.6 23.88 46.2C25.16 43.8 25.72 42.04 25.56 40.92C25.4 39.96 25.8 39.12 26.76 38.4C26.2 39.36 26 40.2 26.16 40.92C26.56 42.12 26.08 43.64 24.72 45.48C22.96 47.8 22.08 50 22.08 52.08C22.08 54.56 23.32 56.44 25.8 57.72C26.44 57.88 26.88 57.96 27.12 57.96C28.56 57.96 29.72 56.8 30.6 54.48C29.32 56.8 27.8 57.68 26.04 57.12C23.96 56.24 22.92 54.64 22.92 52.32C22.92 50.72 23.64 49 25.08 47.16C23.88 49 23.28 50.68 23.28 52.2C23.28 54.36 24.24 55.84 26.16 56.64C28.16 57.28 29.48 56.08 30.12 53.04C29.24 55.68 27.96 56.68 26.28 56.04C24.84 55.48 24.12 54.24 24.12 52.32C24.12 50.64 24.84 48.76 26.28 46.68C25.08 48.76 24.48 50.52 24.48 51.96C24.48 53.8 25.16 54.92 26.52 55.32C27.96 55.4 28.84 54.28 29.16 51.96C28.6 53.96 27.76 54.88 26.64 54.72C25.6 54.4 25.08 53.48 25.08 51.96C25.08 50.28 25.84 48.44 27.36 46.44C26.16 48.52 25.56 50.24 25.56 51.6C25.56 52.8 25.96 53.64 26.76 54.12C27.64 54.28 28.12 53.28 28.2 51.12C27.8 52.72 27.36 53.48 26.88 53.4C25.76 53.08 25.6 51.84 26.4 49.68C26.88 48.48 27.64 47.88 28.68 47.88C29.24 47.88 29.76 48 30.24 48.24C30.64 48.4 30.88 48.32 30.96 48ZM26.52 58.56C26.04 58.72 25.72 58.8 25.56 58.8C24.52 58.8 23.68 57.88 23.04 56.04C22.96 57.08 23.36 57.96 24.24 58.68C25.12 59.16 25.88 59.12 26.52 58.56ZM25.56 60C25.08 60.16 24.8 60.24 24.72 60.24C23.76 60.24 23.04 59.48 22.56 57.96C22.4 58.84 22.76 59.56 23.64 60.12C24.28 60.52 24.92 60.48 25.56 60ZM33.6 70.68C33.36 70.36 33.08 70.08 32.76 69.84C32.52 69.52 32.24 69.2 31.92 68.88C32.88 69.6 33.36 70.36 33.36 71.16C33.36 71.56 33.16 71.96 32.76 72.36C33.48 72.04 33.76 71.48 33.6 70.68ZM31.68 73.32C32.08 72.68 32.28 72.12 32.28 71.64C32.28 70.52 31.36 69.4 29.52 68.28C30.88 69.4 31.56 70.52 31.56 71.64C31.56 72.2 31.44 72.64 31.2 72.96C30.32 74.4 29 75.12 27.24 75.12C25.32 75.12 23.48 74.12 21.72 72.12C23.56 73.88 25.36 74.76 27.12 74.76C28.64 74.76 29.88 74.08 30.84 72.72C31.08 72.4 31.2 72.04 31.2 71.64C31.2 70.44 30.16 69.4 28.08 68.52C29.76 69.4 30.6 70.4 30.6 71.52C30.6 71.92 30.48 72.28 30.24 72.6C29.6 73.56 28.64 74.04 27.36 74.04C25.52 74.04 23.56 73 21.48 70.92C23.56 72.68 25.4 73.56 27 73.56C28.12 73.56 29 73.08 29.64 72.12C29.96 70.84 29.08 69.84 27 69.12C28.76 70.08 29.44 71.04 29.04 72C28.64 72.64 27.96 72.96 27 72.96C25.32 72.96 23.48 71.88 21.48 69.72C23.56 71.56 25.28 72.48 26.64 72.48C27.44 72.48 28.08 72.24 28.56 71.76C28.88 70.96 28.04 70.32 26.04 69.84C27.48 70.48 28.12 71.04 27.96 71.52C27.4 72.56 26.2 72.48 24.36 71.28C23.48 70.8 23.04 70.16 23.04 69.36C23.04 68.72 23.28 68.08 23.76 67.44C23.92 67.2 23.88 66.96 23.64 66.72C22.2 66.32 21.2 66.36 20.64 66.84C20.4 67 20.04 67.84 19.56 69.36C19.48 68.88 19.16 68.56 18.6 68.4C18.12 68.24 17.2 68.2 15.84 68.28C14.8 68.36 14 68.12 13.44 67.56C13.36 67.48 13.24 67.44 13.08 67.44C12.76 67.44 12.6 67.88 12.6 68.76C12.6 69.56 13.36 70.48 14.88 71.52C14.08 71.76 13.44 71.96 12.96 72.12C12.56 72.28 12.28 72.4 12.12 72.48C11.16 72.96 10.6 73.64 10.44 74.52C10.12 76.36 10.8 77.36 12.48 77.52C13.04 77.52 13.44 77.2 13.68 76.56C13.76 75.84 13.4 75.32 12.6 75C12.52 75.08 12.36 75.12 12.12 75.12C12.04 74.96 12 74.76 12 74.52C12 73.32 13 72.68 15 72.6C16.2 72.44 17.6 72.68 19.2 73.32L23.16 75.12C22.68 74.72 22.24 74.36 21.84 74.04C21.44 73.72 21.04 73.4 20.64 73.08C18.48 71.4 16.92 70.56 15.96 70.56C15.56 70.56 14.88 70.04 13.92 69C14.8 69.72 15.52 70.04 16.08 69.96C17.28 69.88 18.64 70.6 20.16 72.12C22.4 74.6 24.64 75.84 26.88 75.84C28.72 75.84 30.32 75 31.68 73.32ZM10.44 69.12C10.36 69.04 10.16 69.04 9.84 69.12C8.64 69.6 7.72 70.52 7.08 71.88C6.68 72.84 6.64 73.72 6.96 74.52C7.04 74.68 7.24 75.04 7.56 75.6C7.88 76.08 8.04 76.48 8.04 76.8C8.04 77.28 7.8 77.68 7.32 78C6.92 78.24 6.52 78.24 6.12 78C5.32 77.44 5.24 77.04 5.88 76.8C5.96 76.8 6.04 76.84 6.12 76.92C6.2 76.84 6.32 76.6 6.48 76.2C6.32 75.8 6.08 75.76 5.76 76.08C4.88 76.72 4.8 77.4 5.52 78.12C6.16 78.76 6.88 78.8 7.68 78.24C8.48 77.68 8.72 76.96 8.4 76.08C8.16 75.84 7.92 75.4 7.68 74.76C8.48 75 9 75.04 9.24 74.88C9.88 74.48 10.24 74.08 10.32 73.68C10.48 72.64 10.2 72.08 9.48 72C9.08 72.16 8.84 72.4 8.76 72.72C8.92 73.04 9.08 73.12 9.24 72.96C9.48 72.8 9.64 72.76 9.72 72.84C9.96 73.32 9.92 73.72 9.6 74.04C8.8 74.84 8.12 74.8 7.56 73.92C7.24 73.52 7.16 73.04 7.32 72.48C7.72 71.28 8.68 70.28 10.2 69.48C10.36 69.32 10.44 69.2 10.44 69.12ZM67.92 81.72C68.24 79.48 67.68 77.68 66.24 76.32C65.68 75.84 65.4 75.72 65.4 75.96C65.4 76.2 65.44 76.4 65.52 76.56C66.56 77.92 67.08 79.52 67.08 81.36C66.6 87.92 62.24 91.2 54 91.2C49.28 91.2 45.68 90.12 43.2 87.96C43.12 88.12 42.92 88.36 42.6 88.68C45.24 91.08 49 92.28 53.88 92.28C62.52 92.12 67.2 88.6 67.92 81.72ZM43.2 80.4C43.2 78.16 42.68 77.16 41.64 77.4C40.76 77.4 40.2 77.84 39.96 78.72C39.8 79.2 39.76 79.68 39.84 80.16C40.08 82.24 40.6 83.96 41.4 85.32C42.6 83.64 43.2 82 43.2 80.4ZM156.245 0.359995C158.245 3.31999 161.445 4.91999 165.845 5.16C166.485 5.08 167.085 5 167.645 4.91999C168.205 4.83999 168.765 4.72 169.325 4.56C171.805 3.76 173.645 2.24 174.845 0C174.925 0.399999 174.965 0.799999 174.965 1.2C175.045 1.6 175.085 2.04 175.085 2.51999C175.085 7.71999 173.365 12 169.925 15.36C169.525 18.16 168.565 19.68 167.045 19.92C166.485 19.92 166.085 19.88 165.845 19.8C164.805 19.4 164.125 18.92 163.805 18.36C162.525 18.84 161.685 19.04 161.285 18.96V80.28C164.005 79.32 166.525 78.24 168.845 77.04C174.365 74.08 178.445 70.52 181.085 66.36V69.24C175.965 80.6 166.645 88.4 153.125 92.64C150.325 93.52 147.365 94.2 144.245 94.68C141.125 95.08 137.845 95.32 134.405 95.4C129.125 95.32 123.605 93.76 117.845 90.72C110.325 87.04 104.885 81.88 101.525 75.24C101.605 75.8 101.245 76.4 100.445 77.04C99.7247 77.6 98.9247 77.88 98.0447 77.88C96.6847 77.88 95.6847 76.96 95.0447 75.12C94.8847 74.32 94.8047 73.72 94.8047 73.32C94.8047 70.68 96.0447 68.84 98.5247 67.8C97.4847 64.2 96.9647 60.16 96.9647 55.68C96.9647 51.28 97.4847 46.76 98.5247 42.12C99.4047 39 100.405 36.08 101.525 33.36C102.725 30.56 104.085 28 105.605 25.68C112.885 14.16 122.605 7.2 134.765 4.79999C135.085 4.72 135.485 4.68 135.965 4.68C137.165 4.68 137.885 5.08 138.125 5.87999C138.205 6.84 137.445 7.88 135.845 9C127.045 12.76 120.925 19.6 117.485 29.52C116.125 33.6 115.245 38.24 114.845 43.44C114.845 55.68 118.405 65.24 125.525 72.12C132.085 78.6 140.685 81.84 151.325 81.84C153.405 81.84 155.605 81.6 157.925 81.12V19.08C156.325 18.76 154.885 18.4 153.605 18C150.485 16.96 148.485 16.08 147.605 15.36C147.205 15.52 146.125 16.72 144.365 18.96C143.245 21.36 142.685 23.76 142.685 26.16C142.685 28.16 143.085 31.12 143.885 35.04C144.445 37.76 144.925 40.2 145.325 42.36C145.725 44.52 146.005 46.44 146.165 48.12C146.245 48.52 146.285 49 146.285 49.56C146.285 50.04 146.285 50.56 146.285 51.12C146.285 63.2 141.685 69.24 132.485 69.24C131.205 69.24 129.805 69.12 128.285 68.88C129.165 66.48 129.605 64.36 129.605 62.52C129.605 58.28 127.805 55.08 124.205 52.92C124.365 50.28 126.045 48.2 129.245 46.68L128.765 44.64C126.445 45.04 125.125 44.36 124.805 42.6C124.565 40.92 125.525 39.48 127.685 38.28C127.605 37.88 127.565 37.28 127.565 36.48C127.565 29.52 131.885 22.96 140.525 16.8C141.405 16.24 142.205 15.64 142.925 15C143.725 14.36 144.525 13.68 145.325 12.96C149.005 9.52 151.845 5.76 153.845 1.68L156.245 0.359995ZM169.325 8.75999C167.085 8.44 165.245 9.08 163.805 10.68C163.965 10.2 164.045 9.84 164.045 9.6C164.045 8.63999 163.565 7.79999 162.605 7.07999C161.805 9.31999 160.165 10.44 157.685 10.44C156.405 10.2 155.765 9.72 155.765 9C155.765 7.8 156.405 7.2 157.685 7.2C158.325 7.2 158.925 7.36 159.485 7.67999C159.245 6.87999 158.565 6.39999 157.445 6.24C155.685 6.24 154.805 7 154.805 8.52C154.805 10.44 155.765 11.4 157.685 11.4C159.685 11.4 161.245 10.84 162.365 9.72C162.445 9.96 162.445 10.24 162.365 10.56C161.325 11.84 159.725 12.48 157.565 12.48C154.925 12.48 153.725 11.16 153.965 8.52C154.205 6.68 155.485 5.68 157.805 5.52C155.245 5.11999 153.725 6.19999 153.245 8.75999C152.845 11.56 154.045 13.08 156.845 13.32C157.965 13.4 159.005 13.24 159.965 12.84C159.005 13.56 158.045 13.92 157.085 13.92C155.165 13.92 153.525 12.64 152.165 10.08C152.965 13.28 155.085 14.88 158.525 14.88C159.085 14.88 159.925 14.56 161.045 13.92C164.725 11.44 166.925 10.24 167.645 10.32C167.165 11.2 165.805 12.04 163.565 12.84C162.125 13.48 161.125 14.04 160.565 14.52C160.645 14.6 160.805 14.64 161.045 14.64C162.245 14.24 163.285 14.04 164.165 14.04C165.925 14.04 166.965 14.68 167.285 15.96C167.285 16.2 167.245 16.36 167.165 16.44C166.685 16.12 166.285 16.24 165.965 16.8C165.725 17.2 165.765 17.56 166.085 17.88C166.405 18.2 166.805 18.32 167.285 18.24C168.485 18 168.805 17.24 168.245 15.96C167.845 14.28 166.765 13.28 165.005 12.96C167.485 13.04 168.925 11.64 169.325 8.75999ZM138.245 34.2C138.405 32.92 138.085 31.8 137.285 30.84C136.725 30.36 136.125 29.84 135.485 29.28C134.925 28.72 134.725 28.08 134.885 27.36C135.205 26.32 135.845 25.92 136.805 26.16C138.165 26.4 138.445 26.84 137.645 27.48C137.805 27.48 137.685 27.44 137.285 27.36C136.725 27.44 136.685 27.8 137.165 28.44C137.485 28.92 137.845 28.88 138.245 28.32C138.645 27.68 138.685 27.04 138.365 26.4C137.965 25.76 137.405 25.44 136.685 25.44C135.165 25.44 134.365 26.2 134.285 27.72C134.205 28.36 134.365 28.88 134.765 29.28C135.165 29.6 135.645 30.08 136.205 30.72C135.965 30.8 135.645 30.88 135.245 30.96C134.925 31.04 134.565 31.16 134.165 31.32C133.525 32.04 133.285 32.76 133.445 33.48C133.685 34.68 134.285 35.24 135.245 35.16C135.645 35.16 135.885 35 135.965 34.68C136.125 34.36 136.045 34.08 135.725 33.84C135.485 33.6 135.285 33.6 135.125 33.84C134.805 34.16 134.605 34.24 134.525 34.08C133.885 33.68 133.765 33.16 134.165 32.52C134.885 31.24 135.765 31 136.805 31.8C137.365 32.28 137.645 32.84 137.645 33.48C137.805 35.08 137.085 36.8 135.485 38.64C135.245 38.8 135.205 38.96 135.365 39.12C135.445 39.2 135.645 39.12 135.965 38.88C137.245 37.76 138.005 36.2 138.245 34.2ZM179.045 70.44C175.605 75.08 169.525 78.8 160.805 81.6H160.685V16.56C161.805 16.72 163.165 16.48 164.765 15.84C165.085 15.68 165.165 15.48 165.005 15.24C164.845 14.84 164.565 14.72 164.165 14.88C163.765 15.04 163.245 15.16 162.605 15.24C161.965 15.32 161.205 15.4 160.325 15.48C156.485 15.72 152.965 14.24 149.765 11.04L156.125 2.76C159.085 5.72 162.165 7.2 165.365 7.2C168.245 7.2 170.845 6.12 173.165 3.96C172.765 7.48 171.125 10.48 168.245 12.96C168.005 13.04 167.965 13.24 168.125 13.56C168.285 13.8 168.565 13.84 168.965 13.68C172.325 11.12 174.045 7.27999 174.125 2.15999C171.725 4.63999 168.925 6 165.725 6.24C162.845 6.56 159.645 4.84 156.125 1.08C152.445 7.56 146.805 13.52 139.205 18.96C132.405 23.84 129.005 29.12 129.005 34.8C129.005 35.6 129.085 36.32 129.245 36.96C129.405 37.52 129.565 37.8 129.725 37.8C130.045 37.8 130.245 37.64 130.325 37.32C130.165 29.48 134.405 22.88 143.045 17.52C141.205 19.36 140.285 22.28 140.285 26.28C140.285 30.04 141.005 34.44 142.445 39.48C142.685 40.28 142.965 41.6 143.285 43.44C143.605 45.28 143.965 47.68 144.365 50.64C143.485 61.68 139.685 66.96 132.965 66.48C133.045 66 133.085 65.52 133.085 65.04C133.085 64.48 133.085 63.88 133.085 63.24C133.085 56.52 131.245 52.4 127.565 50.88C127.565 50.56 128.205 50 129.485 49.2C129.725 49.04 130.085 49.12 130.565 49.44C131.045 49.76 131.285 50.2 131.285 50.76C131.365 52.68 131.685 53.48 132.245 53.16C132.325 52.76 132.365 52.36 132.365 51.96C132.445 51.48 132.485 50.96 132.485 50.4C132.485 49.76 132.405 49.08 132.245 48.36C132.165 47.56 132.045 46.72 131.885 45.84C131.805 45.44 131.725 45 131.645 44.52C131.565 44.04 131.445 43.56 131.285 43.08C131.205 42.6 131.005 42.4 130.685 42.48C130.445 42.56 130.285 42.84 130.205 43.32C130.205 44.04 130.445 45.52 130.925 47.76C129.965 47.92 129.245 48.08 128.765 48.24C127.165 48.96 126.205 50.04 125.885 51.48C130.045 53.72 132.125 57.36 132.125 62.4C132.125 64 131.885 65.68 131.405 67.44C132.205 67.84 133.205 67.92 134.405 67.68C139.125 66.72 142.365 64.04 144.125 59.64C145.405 56.76 145.845 53.8 145.445 50.76C144.885 48.2 144.285 45 143.645 41.16C143.085 37.32 142.405 32.84 141.605 27.72C141.285 21.08 143.725 16 148.925 12.48C151.645 14.88 155.325 16.24 159.965 16.56V81.6C157.565 82.32 154.645 82.64 151.205 82.56C143.205 82.48 136.445 80.88 130.925 77.76C119.805 71.52 114.085 60 113.765 43.2C113.685 42.64 113.605 42.12 113.525 41.64C113.525 41.08 113.525 40.52 113.525 39.96C113.525 28.44 120.765 17.76 135.245 7.92C135.965 7.35999 136.165 6.79999 135.845 6.24C135.525 5.92 134.765 6 133.565 6.47999C127.485 8.96 124.285 10.28 123.965 10.44C120.525 12.28 117.405 14.4 114.605 16.8C111.805 19.12 109.365 21.76 107.285 24.72C101.365 33.04 98.4047 43.04 98.4047 54.72C98.4047 59.84 98.9247 64.08 99.9647 67.44C100.205 68.08 100.445 68.4 100.685 68.4C100.925 68.4 101.165 67.96 101.405 67.08C100.045 62.12 99.4847 58.08 99.7247 54.96C100.205 47.28 101.645 40.44 104.045 34.44C109.725 20.04 119.485 11.24 133.325 8.04C128.525 10.04 124.165 13.8 120.245 19.32C115.205 26.28 112.685 33.92 112.685 42.24C112.685 58.32 117.405 69.84 126.845 76.8C133.325 81.6 141.485 84 151.325 84C152.685 83.92 154.005 83.84 155.285 83.76C156.565 83.6 157.845 83.4 159.125 83.16C164.965 81.96 169.605 79.84 173.045 76.8C163.125 88.08 151.725 93.4 138.845 92.76C121.645 92.04 110.005 85.56 103.925 73.32C103.525 72.68 103.205 72.36 102.965 72.36C102.645 72.36 102.405 72.68 102.245 73.32C104.565 77.4 107.285 80.76 110.405 83.4C118.005 90.2 127.245 93.72 138.125 93.96C148.925 94.2 158.965 90.48 168.245 82.8C172.165 79.6 175.765 75.76 179.045 71.28V70.44ZM142.565 57.96C141.525 60.6 139.965 61.72 137.885 61.32C135.325 60.6 134.045 58.76 134.045 55.8C134.045 54.12 134.685 52.4 135.965 50.64C135.005 52.48 134.525 54.16 134.525 55.68C134.525 58.16 135.685 59.88 138.005 60.84C140.325 61.24 141.645 59.76 141.965 56.4C141.245 59.28 139.925 60.52 138.005 60.12C136.245 59.56 135.365 58.12 135.365 55.8C135.365 54.04 135.965 52.08 137.165 49.92C136.285 52.16 135.845 53.96 135.845 55.32C135.845 57.48 136.645 58.8 138.245 59.28C139.845 59.44 140.725 58.16 140.885 55.44C140.325 57.68 139.485 58.72 138.365 58.56C137.085 58.24 136.445 57.16 136.445 55.32C136.445 53.8 137.125 51.88 138.485 49.56C137.365 51.64 136.805 53.4 136.805 54.84C136.805 56.44 137.365 57.48 138.485 57.96C139.125 58.12 139.525 57.56 139.685 56.28C139.845 55.8 139.845 55.24 139.685 54.6C139.605 56.2 139.205 57.08 138.485 57.24C137.205 57 136.925 55.64 137.645 53.16C137.965 51.72 138.805 51 140.165 51C140.725 51 141.245 51.12 141.725 51.36C142.045 51.52 142.285 51.4 142.445 51C142.445 49.4 142.085 48.28 141.365 47.64C141.125 47.48 140.125 47.36 138.365 47.28C138.685 47.2 138.925 46.68 139.085 45.72C139.165 45.24 139.005 44.52 138.605 43.56C138.285 42.6 138.125 41.88 138.125 41.4C138.125 40.92 138.245 40.44 138.485 39.96C138.565 39.64 138.405 39.44 138.005 39.36C137.685 39.28 137.285 39.32 136.805 39.48C135.845 39.72 135.085 40.8 134.525 42.72C132.685 40 131.125 38.68 129.845 38.76C127.685 39 126.805 40.08 127.205 42C127.365 42.64 127.845 42.96 128.645 42.96C129.445 42.96 129.885 42.44 129.965 41.4C129.885 41.56 129.805 41.36 129.725 40.8C130.045 40.56 130.365 40.44 130.685 40.44C131.645 40.44 132.565 41.4 133.445 43.32C133.765 44.04 133.925 45.04 133.925 46.32C133.925 47.28 133.805 48.4 133.565 49.68C133.405 50.48 133.285 51.16 133.205 51.72C133.205 52.28 133.165 52.72 133.085 53.04C133.405 52.4 133.685 51.8 133.925 51.24C134.165 50.68 134.405 50.12 134.645 49.56C135.765 46.76 136.205 44.84 135.965 43.8C135.725 42.76 136.045 41.8 136.925 40.92C136.445 42.12 136.325 43.04 136.565 43.68C137.125 44.96 136.765 46.68 135.485 48.84C133.885 51.4 133.085 53.64 133.085 55.56C133.085 58.52 134.645 60.64 137.765 61.92C138.245 62.08 138.605 62.16 138.845 62.16C140.605 62.16 141.845 60.76 142.565 57.96ZM105.125 43.2C109.525 41.92 111.725 39.92 111.725 37.2C111.725 36.8 111.645 36.4 111.485 36C111.405 35.52 110.925 34.4 110.045 32.64C109.645 32 109.765 31.44 110.405 30.96C111.285 30.32 111.845 30.56 112.085 31.68C112.245 30.56 111.925 30 111.125 30C110.805 30 110.525 30.04 110.285 30.12C110.845 29.08 111.125 28.2 111.125 27.48C111.125 26.84 110.805 26.44 110.165 26.28C110.725 26.84 110.685 27.84 110.045 29.28C109.005 30.48 108.685 31.64 109.085 32.76C109.565 33.56 110.165 34.92 110.885 36.84C110.325 34.84 109.285 34.04 107.765 34.44C106.645 34.84 106.165 35.44 106.325 36.24C106.485 37.28 107.005 37.6 107.885 37.2C107.405 36.64 107.485 36.16 108.125 35.76C109.085 35.76 109.685 36.4 109.925 37.68C110.165 39.36 108.525 40.92 105.005 42.36C105.085 42.2 105.165 41.96 105.245 41.64C105.405 41.24 105.605 40.8 105.845 40.32C106.245 39.36 105.925 38.44 104.885 37.56C104.325 36.52 104.205 35.72 104.525 35.16C104.125 35.32 103.925 35.64 103.925 36.12C103.925 36.76 104.205 37.48 104.765 38.28C103.965 38.04 103.525 38.2 103.445 38.76C103.365 39 103.365 39.28 103.445 39.6C103.525 38.88 103.965 38.68 104.765 39C105.085 39.32 105.205 39.76 105.125 40.32C102.885 44.16 101.885 46.52 102.125 47.4C102.125 50.68 104.165 52.96 108.245 54.24C105.925 53.52 104.245 53.68 103.205 54.72C102.965 54.96 102.845 55.24 102.845 55.56C102.925 55.96 103.165 56.2 103.565 56.28C103.965 56.36 104.365 56.16 104.765 55.68C105.085 55.12 106.165 55 108.005 55.32C108.805 55.56 110.005 56.4 111.605 57.84C111.205 57.44 110.325 57.08 108.965 56.76C107.685 56.52 106.525 56.8 105.485 57.6C104.445 58.32 103.925 59.32 103.925 60.6C103.925 61.64 104.285 62.6 105.005 63.48C105.725 64.28 106.485 64.68 107.285 64.68C107.685 64.68 107.965 64.64 108.125 64.56C108.765 64.32 109.085 63.92 109.085 63.36C109.245 62.48 108.925 61.92 108.125 61.68C107.245 61.52 106.685 62 106.445 63.12C105.325 62.48 104.765 61.64 104.765 60.6C104.765 60.28 104.805 60 104.885 59.76C105.365 57.92 106.645 57.2 108.725 57.6C110.965 58.08 112.085 59.72 112.085 62.52C112.085 63.56 111.925 64.44 111.605 65.16C111.125 66.6 110.965 67.52 111.125 67.92C111.285 68.08 111.445 68.12 111.605 68.04C113.125 66.52 113.845 64.12 113.765 60.84C113.685 58.44 112.405 56.28 109.925 54.36C109.045 53.8 108.165 53.24 107.285 52.68C106.485 52.12 105.765 51.56 105.125 51C104.485 50.44 103.965 49.84 103.565 49.2C103.245 48.48 103.165 47.72 103.325 46.92C103.645 44.92 104.685 43.92 106.445 43.92C108.925 43.92 110.165 44.96 110.165 47.04C110.165 47.92 109.765 48.32 108.965 48.24C108.245 48.16 107.885 47.88 107.885 47.4C107.885 47.4 107.845 47.44 107.765 47.52C107.765 47.6 107.725 47.72 107.645 47.88C107.245 48.76 107.485 49.32 108.365 49.56C109.405 49.96 110.245 49.36 110.885 47.76C110.965 47.52 111.005 47.2 111.005 46.8C111.005 44.96 110.085 43.72 108.245 43.08C107.125 42.68 106.085 42.72 105.125 43.2ZM143.885 89.04C144.205 88.48 144.165 87.92 143.765 87.36C143.845 87.52 143.885 87.76 143.885 88.08C143.885 88.96 143.245 89.56 141.965 89.88C142.685 89.96 143.325 89.68 143.885 89.04ZM141.845 89.04C142.245 88.24 142.205 87.56 141.725 87C141.805 87.24 141.845 87.52 141.845 87.84C141.845 88.8 141.045 89.6 139.445 90.24C140.405 90.32 141.205 89.92 141.845 89.04ZM139.805 89.04C140.365 88.24 140.285 87.4 139.565 86.52C139.805 86.92 139.925 87.28 139.925 87.6C139.925 88.96 138.925 89.92 136.925 90.48C137.965 90.64 138.925 90.16 139.805 89.04ZM138.125 88.56C138.685 87.6 138.605 86.64 137.885 85.68C138.045 86.16 138.125 86.6 138.125 87C138.125 88.36 137.045 89.4 134.885 90.12C136.085 90.28 137.165 89.76 138.125 88.56ZM136.205 87.84C136.845 86.72 136.765 85.68 135.965 84.72C136.205 85.2 136.325 85.68 136.325 86.16C136.325 87.76 135.085 88.92 132.605 89.64C133.885 89.88 135.085 89.28 136.205 87.84ZM134.165 83.76C134.405 84.4 134.525 84.92 134.525 85.32C134.525 87.16 133.165 88.48 130.445 89.28C131.965 89.52 133.325 88.88 134.525 87.36L134.165 83.76ZM132.485 86.64C132.405 86.08 132.365 85.52 132.365 84.96C132.365 84.32 132.325 83.68 132.245 83.04C132.485 83.68 132.605 84.24 132.605 84.72C132.605 86.48 131.205 87.8 128.405 88.68C130.085 88.84 131.445 88.16 132.485 86.64ZM130.445 82.32C130.685 82.96 130.805 83.52 130.805 84C130.805 86 129.285 87.48 126.245 88.44C128.005 88.68 129.525 87.96 130.805 86.28L130.445 82.32ZM129.125 85.68C129.445 85.12 129.605 84.48 129.605 83.76C129.605 82.96 129.285 82.16 128.645 81.36C128.965 81.92 129.125 82.56 129.125 83.28C129.125 85.52 127.445 87.16 124.085 88.2C126.005 88.44 127.685 87.6 129.125 85.68ZM127.445 84.96C127.845 84.32 128.045 83.64 128.045 82.92C128.045 81.88 127.685 80.92 126.965 80.04C127.365 81 127.565 81.72 127.565 82.2C127.565 84.68 125.685 86.52 121.925 87.72C124.005 87.96 125.845 87.04 127.445 84.96ZM125.645 84.24C126.125 83.68 126.365 82.92 126.365 81.96C126.365 80.76 125.965 79.72 125.165 78.84C125.565 79.8 125.765 80.6 125.765 81.24C125.765 84.04 123.685 86.08 119.525 87.36C121.765 87.68 123.805 86.64 125.645 84.24ZM123.605 77.16C123.925 78.12 124.085 79.08 124.085 80.04C124.085 81.72 123.445 82.96 122.165 83.76C121.205 84.16 120.325 84.36 119.525 84.36C115.285 84.36 112.725 81.64 111.845 76.2C113.285 81.24 115.765 83.76 119.285 83.76C120.245 83.76 121.085 83.6 121.805 83.28C122.845 82.72 123.365 81.8 123.365 80.52C123.365 79.4 122.805 78.04 121.685 76.44C122.405 77.8 122.765 78.96 122.765 79.92C122.765 81.2 122.245 82.12 121.205 82.68C120.565 82.92 120.005 83.04 119.525 83.04C116.085 83.04 113.725 80.24 112.445 74.64C114.285 79.6 116.525 82.08 119.165 82.08C119.805 82.08 120.365 81.92 120.845 81.6C121.405 81.28 121.685 80.72 121.685 79.92C121.685 78.96 121.125 77.8 120.005 76.44C120.645 77.72 120.965 78.72 120.965 79.44C120.965 80.72 120.365 81.36 119.165 81.36C116.365 81.36 114.365 78.64 113.165 73.2C114.605 78.16 116.565 80.64 119.045 80.64C119.845 80.64 120.245 80.32 120.245 79.68C120.245 78.88 119.605 77.84 118.325 76.56C119.205 77.84 119.605 78.76 119.525 79.32C119.525 79.72 119.285 79.92 118.805 79.92C117.925 79.92 117.045 79.4 116.165 78.36C115.365 77.24 114.965 76.2 114.965 75.24C114.965 73.88 115.765 72.88 117.365 72.24C117.525 72.16 117.645 72 117.725 71.76C117.885 71.52 117.925 71.36 117.845 71.28C116.485 69.92 115.285 69.28 114.245 69.36C113.925 69.36 112.965 70.04 111.365 71.4C111.605 71 111.405 70.36 110.765 69.48C110.365 69.16 109.405 68.56 107.885 67.68C106.685 66.96 105.925 66.08 105.605 65.04C105.445 64.8 105.325 64.68 105.245 64.68C104.765 64.68 104.285 65.08 103.805 65.88C103.245 66.84 103.445 68.4 104.405 70.56C102.245 70 100.845 69.72 100.205 69.72C99.0047 69.72 98.0447 70.12 97.3247 70.92C96.6047 71.64 96.2447 72.48 96.2447 73.44C96.2447 74.32 96.6847 75.08 97.5647 75.72C98.1247 76.2 98.8047 76.12 99.6047 75.48C100.245 74.68 100.205 73.88 99.4847 73.08C99.1647 72.92 98.9647 72.8 98.8847 72.72C98.9647 71.68 99.6447 71.16 100.925 71.16C101.805 71.16 102.805 71.4 103.925 71.88C105.445 72.6 106.805 73.84 108.005 75.6C109.205 77.28 110.365 78.92 111.485 80.52C111.165 79.72 110.845 79 110.525 78.36C110.285 77.64 110.085 76.96 109.925 76.32C108.725 72.88 107.525 70.88 106.325 70.32C105.445 69.52 105.045 68.44 105.125 67.08C105.685 68.6 106.325 69.48 107.045 69.72C108.405 70.28 109.405 72.04 110.045 75C111.325 81.72 114.325 85.08 119.045 85.08C120.085 85.08 121.205 84.88 122.405 84.48C123.925 83.92 124.685 82.8 124.685 81.12C124.685 79.92 124.325 78.6 123.605 77.16ZM259.73 36.12C259.73 37.16 259.37 37.88 258.65 38.28C258.01 38.6 257.53 38.64 257.21 38.4V38.28C256.57 41.64 255.69 44.76 254.57 47.64C253.53 50.52 252.33 53.12 250.97 55.44C244.33 66.88 234.73 72.44 222.17 72.12L210.29 80.28L206.33 80.76C203.93 79.64 201.17 79.12 198.05 79.2C194.45 80.32 192.65 81.8 192.65 83.64C192.81 85.64 193.89 87.52 195.89 89.28C198.85 91.84 202.89 93.24 208.01 93.48C214.41 93.72 219.49 92.04 223.25 88.44C221.65 85.96 220.85 83.84 220.85 82.08C220.69 77.84 222.41 75.48 226.01 75C228.97 75.16 230.41 77.08 230.33 80.76C230.01 83.72 228.97 86.36 227.21 88.68C229.77 90.84 233.41 91.88 238.13 91.8C246.85 91.24 250.81 87.88 250.01 81.72C249.93 80.2 249.49 78.92 248.69 77.88C247.97 76.84 248.09 76.32 249.05 76.32C249.77 76.32 250.49 77.16 251.21 78.84C251.85 80.28 252.25 81.48 252.41 82.44C252.65 85.16 251.77 87.76 249.77 90.24C246.97 93.84 242.53 95.52 236.45 95.28C231.73 95.04 228.01 93.56 225.29 90.84C221.05 94.68 215.17 96.72 207.65 96.96C203.49 96.56 200.05 95.8 197.33 94.68C190.37 91.64 186.73 86.48 186.41 79.2C186.01 72.4 188.61 67.88 194.21 65.64C196.37 64.6 199.21 64.08 202.73 64.08V23.4C202.57 20.84 202.17 18.64 201.53 16.8C199.93 12.4 197.17 9.88 193.25 9.23999C191.89 9 191.05 8.88 190.73 8.88C187.29 8.88 184.97 10.48 183.77 13.68L182.93 14.4C183.81 9.36 185.97 5.6 189.41 3.11999C192.21 1.04 195.57 0 199.49 0C204.61 0 208.73 1.76 211.85 5.27999C214.97 8.71999 216.45 13.08 216.29 18.36V28.92C218.13 28.76 219.21 29.76 219.53 31.92C219.69 33.52 219.09 34.32 217.73 34.32C216.85 34.56 216.37 34.2 216.29 33.24V66.96C217.97 67.84 219.61 68.36 221.21 68.52C224.57 68.76 228.01 67.52 231.53 64.8C237.69 60.08 241.25 52.24 242.21 41.28C242.29 40.64 242.33 40 242.33 39.36C242.41 38.72 242.45 38.08 242.45 37.44C242.45 26.56 238.57 18.72 230.81 13.92L219.17 15.96C221.57 14.92 223.73 13.72 225.65 12.36C230.45 9.4 233.89 6.24 235.97 2.88C251.17 11.28 258.37 21.4 257.57 33.24C258.85 33.64 259.57 34.6 259.73 36.12ZM256.13 37.44C256.13 37.28 256.01 37.12 255.77 36.96C255.53 36.96 255.37 37.08 255.29 37.32C254.49 43.64 252.69 49.2 249.89 54C245.65 61.36 239.61 66.08 231.77 68.16L232.73 66.84C239.45 62.52 243.29 53.36 244.25 39.36C244.65 26.24 240.53 17.04 231.89 11.76L229.37 11.88C230.01 11.8 232.21 9.76 235.97 5.76C240.13 7.52 244.17 10.56 248.09 14.88C253.21 20.64 255.73 26.52 255.65 32.52C255.65 32.76 255.77 32.92 256.01 33C256.09 33 256.25 32.84 256.49 32.52C256.33 26.68 254.65 21.56 251.45 17.16C249.85 15.08 247.73 12.96 245.09 10.8C242.53 8.63999 239.45 6.52 235.85 4.44C233.37 7.96 229.61 11.2 224.57 14.16L231.41 12.96C239.33 18.4 243.29 26.64 243.29 37.68C243.29 38.32 243.29 38.92 243.29 39.48C243.29 40.04 243.25 40.64 243.17 41.28C242.21 52.56 238.65 60.6 232.49 65.4C228.81 68.28 225.09 69.64 221.33 69.48C220.21 69.48 218.29 68.88 215.57 67.68V33.84C215.57 33.28 215.41 33.04 215.09 33.12C214.85 33.36 214.77 33.72 214.85 34.2V67.32C210.77 65.72 207.21 64.92 204.17 64.92V23.16C203.93 20.12 203.41 17.64 202.61 15.72C200.61 10.68 197.29 7.99999 192.65 7.67999C189.13 7.27999 186.81 7.83999 185.69 9.35999C187.61 3.67999 193.17 1.12 202.37 1.68C209.49 3.04 213.65 7.71999 214.85 15.72V29.16C215.17 29.8 215.41 29.68 215.57 28.8V16.32C215.17 13.76 214.57 11.52 213.77 9.6C211.45 4.95999 207.73 2.07999 202.61 0.959994C201.49 0.719997 200.45 0.599999 199.49 0.599999C195.89 0.599999 192.61 1.64 189.65 3.71999C186.77 5.72 184.85 8.64 183.89 12.48V12.36C185.09 9.64 187.33 8.28 190.61 8.28C191.49 8.28 192.29 8.4 193.01 8.63999C198.93 8.88 202.45 13.56 203.57 22.68V64.8C192.61 64.64 187.21 68.92 187.37 77.64C187.13 80.84 188.01 84.04 190.01 87.24C193.37 92.76 199.25 95.52 207.65 95.52C215.17 95.52 220.89 93.8 224.81 90.36C225.21 89.96 225.53 89.6 225.77 89.28L226.73 88.32C228.57 86 229.61 83.48 229.85 80.76C230.01 79.56 229.73 78.4 229.01 77.28C228.29 76.08 227.41 75.52 226.37 75.6C225.25 75.6 224.25 76.16 223.37 77.28C222.57 78.32 222.17 79.64 222.17 81.24C222.25 83.48 222.97 85.56 224.33 87.48C224.65 87.16 224.85 86.88 224.93 86.64C224.05 85.28 223.49 83.72 223.25 81.96C223.01 78.84 223.89 77.12 225.89 76.8C227.25 76.64 228.13 77.28 228.53 78.72C228.77 79.2 228.89 79.84 228.89 80.64C228.65 83.04 227.61 85.4 225.77 87.72C225.45 87.88 225.13 88.12 224.81 88.44C224.57 88.68 224.25 89 223.85 89.4C219.93 92.44 215.01 93.96 209.09 93.96C204.13 93.96 199.97 92.88 196.61 90.72C193.65 88.72 192.09 86.36 191.93 83.64C191.93 82.76 192.09 81.84 192.41 80.88C192.73 79.6 193.21 78.88 193.85 78.72C193.85 78 193.53 77.72 192.89 77.88C191.45 79 190.73 80.64 190.73 82.8C190.73 84.48 191.21 86.2 192.17 87.96C189.93 86.12 188.57 82.92 188.09 78.36C187.85 70.52 192.37 66.28 201.65 65.64C203.65 65.8 205.69 66.04 207.77 66.36C212.33 67.16 216.25 68.72 219.53 71.04L209.81 77.52L207.17 78C204.05 76.96 201.41 76.44 199.25 76.44C197.65 76.44 196.85 76.68 196.85 77.16C196.85 77.4 197.13 77.64 197.69 77.88C200.49 77.72 203.41 78.2 206.45 79.32L209.81 79.08L221.69 70.92C234.33 71.16 243.85 65.64 250.25 54.36C252.97 49.8 254.93 44.16 256.13 37.44ZM245.09 16.68C244.37 16.76 243.69 17.24 243.05 18.12C242.01 19.8 242.21 21.24 243.65 22.44C244.69 23.16 245.49 23.12 246.05 22.32C246.37 21.76 246.25 21.28 245.69 20.88C245.45 20.8 245.33 20.76 245.33 20.76C245.49 21 245.45 21.28 245.21 21.6C245.05 21.92 244.81 22.08 244.49 22.08C243.69 22.08 243.29 21.44 243.29 20.16C243.29 19.44 243.57 18.8 244.13 18.24C244.69 17.6 245.29 17.28 245.93 17.28C246.49 17.28 247.17 17.6 247.97 18.24C248.77 19.04 249.05 20.16 248.81 21.6C248.57 22.24 248.33 22.88 248.09 23.52C247.85 24.08 247.61 24.68 247.37 25.32C246.65 27.64 246.29 29.72 246.29 31.56C246.29 33.64 246.77 35.52 247.73 37.2L248.09 37.44C248.01 36.8 247.93 36.2 247.85 35.64C247.85 35.08 247.85 34.48 247.85 33.84C247.85 31.04 248.37 29 249.41 27.72C249.97 27 250.65 26.64 251.45 26.64C251.93 26.64 252.37 26.84 252.77 27.24C253.65 27.96 253.85 28.92 253.37 30.12C252.73 29.56 252.17 29.52 251.69 30C251.37 30.56 251.45 31.08 251.93 31.56C252.33 32.04 252.89 32.04 253.61 31.56C254.17 31.08 254.45 30.32 254.45 29.28C254.37 28.16 254.01 27.36 253.37 26.88C252.73 26.32 252.05 26.04 251.33 26.04C250.05 26.04 249.05 26.72 248.33 28.08C248.17 28.32 248.01 28.68 247.85 29.16C247.69 28.2 248.05 27.16 248.93 26.04C249.73 24.84 250.37 24.32 250.85 24.48C251.33 24.64 251.73 24.56 252.05 24.24C252.53 23.68 252.33 23.32 251.45 23.16C250.33 23.08 249.25 23.8 248.21 25.32C249.25 23.8 249.77 22.32 249.77 20.88C249.77 19.76 249.45 18.76 248.81 17.88C248.57 17.16 246.89 16.16 243.77 14.88C243.37 14.56 243.25 14.2 243.41 13.8C243.65 13.16 244.01 13.08 244.49 13.56C244.25 13.08 244.01 12.84 243.77 12.84C243.53 12.84 243.29 13 243.05 13.32C242.89 11.56 242.45 10.88 241.73 11.28C241.97 11.28 242.29 11.84 242.69 12.96C242.53 14.08 242.69 14.8 243.17 15.12C243.65 15.36 244.17 15.68 244.73 16.08C241.93 16.96 240.21 16.76 239.57 15.48C239.17 14.44 239.25 13.72 239.81 13.32C240.37 13.24 240.65 13.52 240.65 14.16C241.29 13.92 241.49 13.48 241.25 12.84C240.85 12.2 240.29 12.04 239.57 12.36C238.45 12.76 238.13 13.76 238.61 15.36C238.45 15.04 238.29 14.68 238.13 14.28C237.97 13.88 237.81 13.36 237.65 12.72C237.25 12.16 236.53 11.6 235.49 11.04C234.37 10.4 233.89 9.72 234.05 9C233.89 9.16 233.81 9.35999 233.81 9.6C233.81 10.24 234.45 10.92 235.73 11.64C235.09 11.8 234.77 12.08 234.77 12.48C234.77 12.8 234.93 13.12 235.25 13.44C235.01 12.64 235.29 12.2 236.09 12.12C236.33 12.12 236.65 12.44 237.05 13.08C237.13 13.4 237.25 13.72 237.41 14.04C237.57 14.36 237.73 14.72 237.89 15.12C238.45 16.64 239.69 17.4 241.61 17.4C242.73 17.4 243.89 17.16 245.09 16.68ZM259.01 36.12C259.01 34.92 258.33 34.12 256.97 33.72C255.93 33.4 254.41 34.4 252.41 36.72C252.33 35.68 252.21 35.04 252.05 34.8C251.81 34.08 251.45 33.6 250.97 33.36C250.57 33.12 250.17 33 249.77 33C249.69 33.08 249.61 33.16 249.53 33.24C249.53 33.32 249.49 33.4 249.41 33.48C249.49 33.72 249.53 34.04 249.53 34.44C249.53 35 249.29 35.76 248.81 36.72C248.33 37.6 248.05 38.28 247.97 38.76C247.89 39.48 248.05 40 248.45 40.32C246.93 40.08 246.01 40.04 245.69 40.2C244.97 40.52 244.49 41.44 244.25 42.96C244.49 43.36 244.73 43.52 244.97 43.44C246.89 43.04 247.97 43.8 248.21 45.72C248.53 48.12 248.13 49.32 247.01 49.32C246.45 49.24 246.17 48.4 246.17 46.8C245.77 48.88 246.01 49.96 246.89 50.04C248.09 49.72 248.69 48.52 248.69 46.44C248.69 45.4 248.49 44 248.09 42.24C248.73 44.16 249.05 45.72 249.05 46.92C249.05 49.16 248.33 50.4 246.89 50.64C246.65 50.56 246.37 50.44 246.05 50.28C245.57 49.8 245.25 48.84 245.09 47.4C244.85 49.8 245.41 51.08 246.77 51.24C248.69 50.92 249.65 49.44 249.65 46.8C249.65 45.92 249.45 44.6 249.05 42.84C249.69 44.52 250.01 46 250.01 47.28C250.01 50.08 248.97 51.68 246.89 52.08C245.21 52.16 244.33 50.96 244.25 48.48C244.09 50.4 244.45 51.68 245.33 52.32C245.65 52.56 246.13 52.68 246.77 52.68C249.41 52.12 250.73 50.36 250.73 47.4C250.73 46.36 250.53 45.12 250.13 43.68C250.69 44.88 250.97 46.2 250.97 47.64C250.97 51 249.61 52.84 246.89 53.16C245.13 53.24 244.05 52.12 243.65 49.8C243.89 52.52 244.73 53.88 246.17 53.88C246.49 53.88 246.73 53.84 246.89 53.76C250.25 52.96 251.93 50.84 251.93 47.4C251.93 45.96 251.49 44.16 250.61 42C249.73 39.92 249.69 38.32 250.49 37.2C250.73 36.64 250.73 35.8 250.49 34.68C251.21 35.48 251.37 36.4 250.97 37.44C250.57 38.32 250.69 40.16 251.33 42.96C251.41 43.12 251.53 43.52 251.69 44.16C251.85 44.72 252.01 45.44 252.17 46.32C252.17 45.52 252.17 44.76 252.17 44.04C252.17 43.32 252.21 42.56 252.29 41.76C252.29 39.92 252.61 38.44 253.25 37.32C254.05 35.8 254.93 35.04 255.89 35.04C256.13 35.04 256.45 35.24 256.85 35.64C256.85 35.64 256.77 35.8 256.61 36.12C256.53 37 256.85 37.52 257.57 37.68C258.53 37.92 259.01 37.4 259.01 36.12ZM249.77 53.4C248.33 54.04 247.17 54.36 246.29 54.36C244.69 54.36 243.69 53.56 243.29 51.96C243.21 53.56 243.85 54.56 245.21 54.96C247.13 55.28 248.65 54.76 249.77 53.4ZM248.45 55.2C247.57 55.44 246.77 55.56 246.05 55.56C244.13 55.56 243.05 54.68 242.81 52.92C242.65 54.36 243.21 55.4 244.49 56.04C246.17 56.68 247.49 56.4 248.45 55.2ZM247.37 56.52C246.65 56.76 245.93 56.88 245.21 56.88C243.37 56.88 242.41 56.04 242.33 54.36C242.25 55.64 242.73 56.56 243.77 57.12C245.29 57.68 246.49 57.48 247.37 56.52ZM246.41 57.72C245.61 57.88 245.01 57.96 244.61 57.96C242.93 57.96 241.97 57.2 241.73 55.68C241.65 56.72 242.09 57.56 243.05 58.2C244.49 58.68 245.61 58.52 246.41 57.72ZM213.29 11.28C212.81 10.64 212.17 10.32 211.37 10.32C210.17 10.32 209.33 10.84 208.85 11.88C208.45 12.84 208.37 13.88 208.61 15C204.69 12.28 202.73 9.79999 202.73 7.55999C202.73 7.32 202.81 6.96 202.97 6.47999C203.53 6.24 203.89 6.44 204.05 7.07999C204.61 6.75999 204.69 6.27999 204.29 5.64C203.65 5 203.01 4.91999 202.37 5.39999C201.41 6.11999 201.41 7.23999 202.37 8.75999C201.65 7.8 201.09 6.64 200.69 5.27999C200.37 4.95999 199.49 4.48 198.05 3.84C196.85 3.52 196.21 3 196.13 2.28C195.65 3.16 196.45 3.92 198.53 4.56C198.05 4.79999 197.81 5.07999 197.81 5.39999C197.81 5.88 198.05 6.28 198.53 6.59999C198.05 5.79999 198.21 5.27999 199.01 5.04C199.41 5.04 199.81 5.28 200.21 5.76C200.61 7.12 201.01 8.08 201.41 8.63999C202.21 10.48 203.53 12.16 205.37 13.68C205.53 13.84 205.93 14.24 206.57 14.88C207.29 15.44 208.21 16.16 209.33 17.04C208.21 16.64 207.41 16.52 206.93 16.68C205.73 17.16 205.09 17.88 205.01 18.84C204.69 20.6 205.09 21.72 206.21 22.2C206.53 22.36 206.85 22.32 207.17 22.08C207.49 21.76 207.57 21.4 207.41 21C207.33 20.44 207.05 20.24 206.57 20.4C206.25 20.48 206.05 20.48 205.97 20.4C205.57 19.52 205.65 18.8 206.21 18.24C206.85 17.68 207.49 17.44 208.13 17.52C208.69 17.6 209.17 18 209.57 18.72C209.97 19.84 209.97 20.76 209.57 21.48C209.17 22.2 208.65 22.92 208.01 23.64C207.45 24.36 206.89 25.08 206.33 25.8C205.77 26.44 205.33 27.12 205.01 27.84C204.69 28.56 204.61 29.28 204.77 30C204.77 32.72 205.61 34.8 207.29 36.24C207.85 36.72 208.21 36.88 208.37 36.72C208.45 36.48 208.33 36.2 208.01 35.88C206.41 34.44 205.61 32.56 205.61 30.24C205.61 29.04 206.01 28.16 206.81 27.6C208.25 26.64 209.09 26.76 209.33 27.96C209.17 27.72 209.05 27.96 208.97 28.68C208.97 29 209.09 29.28 209.33 29.52C209.89 29.36 210.21 29.04 210.29 28.56C210.37 28 210.25 27.48 209.93 27C209.21 25.64 208.09 25.56 206.57 26.76C206.97 26.36 207.45 25.84 208.01 25.2C208.57 24.48 209.21 23.68 209.93 22.8C210.73 21.6 210.93 19.96 210.53 17.88C210.45 17.48 210.21 16.8 209.81 15.84C209.41 14.8 209.21 14.04 209.21 13.56C209.21 12.92 209.37 12.4 209.69 12C210.57 10.8 211.45 10.6 212.33 11.4C212.73 11.8 212.97 12.2 213.05 12.6C213.21 13.24 213.05 13.6 212.57 13.68C212.49 13.6 212.41 13.56 212.33 13.56C212.33 13.56 212.29 13.52 212.21 13.44C211.97 13.36 211.77 13.48 211.61 13.8C211.53 14.12 211.49 14.4 211.49 14.64C211.65 15.52 212.05 15.68 212.69 15.12C214.21 14 214.41 12.72 213.29 11.28ZM245.57 58.8C244.77 58.96 244.17 59.04 243.77 59.04C242.33 59.04 241.49 58.36 241.25 57C241.17 58.04 241.57 58.76 242.45 59.16C243.73 59.64 244.77 59.52 245.57 58.8ZM244.61 59.76C243.97 60 243.41 60.12 242.93 60.12C241.57 60.12 240.81 59.44 240.65 58.08C240.41 59.04 240.73 59.76 241.61 60.24C242.81 60.72 243.81 60.56 244.61 59.76ZM243.29 60.96C241.05 61.52 239.93 60.96 239.93 59.28C239.53 60.24 239.73 60.92 240.53 61.32C241.65 61.72 242.57 61.6 243.29 60.96ZM242.21 62.16C240.29 62.72 239.25 62.2 239.09 60.6C238.85 61.48 239.05 62.12 239.69 62.52C240.73 62.92 241.57 62.8 242.21 62.16ZM241.01 63.12C239.09 63.6 238.21 63.12 238.37 61.68C238.05 62.48 238.21 63.04 238.85 63.36C239.89 63.76 240.61 63.68 241.01 63.12ZM239.57 64.08C238.13 64.4 237.37 64.04 237.29 63C237.21 63.56 237.37 64 237.77 64.32C238.49 64.56 239.09 64.48 239.57 64.08ZM238.01 64.8C236.89 65.2 236.29 64.96 236.21 64.08C236.05 64.56 236.17 64.88 236.57 65.04C237.13 65.28 237.61 65.2 238.01 64.8ZM218.81 32.88C219.29 30.88 218.57 29.76 216.65 29.52C215.53 29.28 214.17 30.56 212.57 33.36C212.41 32.8 212.29 32.36 212.21 32.04C212.13 31.72 212.05 31.48 211.97 31.32C211.65 30.6 211.25 30.16 210.77 30C210.29 29.76 209.89 29.68 209.57 29.76C209.17 29.76 209.05 29.96 209.21 30.36C209.37 30.84 209.45 31.28 209.45 31.68C209.45 32.24 209.25 33.04 208.85 34.08C208.53 35.04 208.37 35.8 208.37 36.36C208.45 36.52 208.53 36.76 208.61 37.08C208.69 37.32 208.81 37.64 208.97 38.04C207.45 37.96 206.57 38.04 206.33 38.28C205.69 38.76 205.37 39.88 205.37 41.64C205.53 42.04 205.73 42.16 205.97 42C206.45 41.84 206.85 41.76 207.17 41.76C208.37 41.76 209.13 42.52 209.45 44.04C210.09 46.6 209.81 48 208.61 48.24C208.37 48.24 208.05 47.32 207.65 45.48C207.49 47.88 207.81 49.04 208.61 48.96C209.57 47.92 210.05 46.8 210.05 45.6C210.05 44.08 209.65 42.28 208.85 40.2C209.89 42.36 210.41 44.36 210.41 46.2C210.41 48.12 209.85 49.28 208.73 49.68C207.69 49.76 206.97 48.64 206.57 46.32C206.65 49.04 207.37 50.4 208.73 50.4C210.25 49.92 211.01 48.48 211.01 46.08C211.01 44.64 210.65 42.84 209.93 40.68C210.89 42.84 211.37 44.8 211.37 46.56C211.37 49.12 210.53 50.68 208.85 51.24C207.17 51.64 206.09 50.32 205.61 47.28C205.85 50.8 206.93 52.36 208.85 51.96C211.01 51.16 212.09 49.32 212.09 46.44C212.09 45 211.73 43.36 211.01 41.52C211.97 43.36 212.45 45.08 212.45 46.68C212.45 49.88 211.29 51.84 208.97 52.56C207.21 52.88 205.89 51.64 205.01 48.84C206.53 51.8 207.57 53.28 208.13 53.28C208.53 53.28 208.85 53.24 209.09 53.16C211.89 51.8 213.29 49.56 213.29 46.44C213.29 44.44 212.69 42.16 211.49 39.6C210.37 37.28 210.09 35.52 210.65 34.32C210.89 33.68 210.81 32.72 210.41 31.44C211.21 32.4 211.45 33.4 211.13 34.44C210.89 35.48 211.25 37.48 212.21 40.44C212.29 40.68 212.41 41.12 212.57 41.76C212.73 42.32 212.97 43.12 213.29 44.16C213.21 43.28 213.13 42.44 213.05 41.64C213.05 40.76 213.01 39.88 212.93 39C212.77 36.84 212.93 35.16 213.41 33.96C214.13 32.12 214.93 31.2 215.81 31.2C216.13 31.2 216.41 31.32 216.65 31.56C216.57 31.96 216.53 32.16 216.53 32.16C216.53 33.2 216.89 33.76 217.61 33.84C218.25 34 218.65 33.68 218.81 32.88ZM212.57 51.12C211.21 53.04 209.81 54 208.37 54C207.49 54 206.65 53.52 205.85 52.56C206.57 54.16 207.65 54.88 209.09 54.72C210.05 54.16 211.21 52.96 212.57 51.12ZM212.33 53.04C211.05 54.8 209.77 55.68 208.49 55.68C207.69 55.68 206.93 55.24 206.21 54.36C206.77 55.8 207.73 56.44 209.09 56.28C210.05 55.8 211.13 54.72 212.33 53.04ZM251.69 82.8C252.01 80.56 251.45 78.76 250.01 77.4C249.45 76.92 249.17 76.8 249.17 77.04C249.17 77.28 249.21 77.48 249.29 77.64C250.33 79 250.85 80.6 250.85 82.44C250.37 89 246.01 92.28 237.77 92.28C233.05 92.28 229.45 91.2 226.97 89.04C226.89 89.2 226.69 89.44 226.37 89.76C229.01 92.16 232.77 93.36 237.65 93.36C246.29 93.2 250.97 89.68 251.69 82.8ZM211.85 54.96C210.73 56.56 209.61 57.36 208.49 57.36C207.69 57.36 207.01 56.96 206.45 56.16C207.01 57.44 207.85 58 208.97 57.84C209.77 57.36 210.73 56.4 211.85 54.96ZM211.37 56.88C210.25 58.24 209.21 58.92 208.25 58.92C207.61 58.92 207.01 58.56 206.45 57.84C207.01 58.96 207.81 59.48 208.85 59.4C209.57 59.08 210.41 58.24 211.37 56.88ZM211.37 58.2C210.25 59.64 209.21 60.36 208.25 60.36C207.61 60.36 207.01 60 206.45 59.28C207.09 60.4 207.89 60.92 208.85 60.84C209.49 60.52 210.33 59.64 211.37 58.2ZM211.37 59.64C210.25 61.08 209.21 61.8 208.25 61.8C207.61 61.8 207.01 61.44 206.45 60.72C207.09 61.84 207.89 62.36 208.85 62.28C209.65 61.8 210.49 60.92 211.37 59.64ZM211.37 61.08C210.25 62.44 209.21 63.12 208.25 63.12C207.61 63.12 207.01 62.76 206.45 62.04C207.01 63.16 207.81 63.68 208.85 63.6C209.57 63.28 210.41 62.44 211.37 61.08ZM211.37 62.4C210.25 63.84 209.21 64.56 208.25 64.56C207.61 64.56 207.01 64.2 206.45 63.48C207.01 64.6 207.81 65.12 208.85 65.04C209.49 64.72 210.33 63.84 211.37 62.4ZM226.97 81.48C226.97 79.24 226.45 78.24 225.41 78.48C224.53 78.48 223.97 78.92 223.73 79.8C223.57 80.28 223.53 80.76 223.61 81.24C223.85 83.32 224.37 85.04 225.17 86.4C226.37 84.72 226.97 83.08 226.97 81.48ZM214.85 71.28C214.61 70.96 214.37 70.68 214.13 70.44C213.89 70.2 213.61 69.92 213.29 69.6C214.17 70.32 214.61 71.04 214.61 71.76C214.61 72.16 214.41 72.56 214.01 72.96C214.65 72.56 214.93 72 214.85 71.28ZM213.05 73.8C213.37 73.24 213.53 72.72 213.53 72.24C213.53 71.04 212.73 69.96 211.13 69C212.33 69.96 212.93 71.04 212.93 72.24C212.93 72.56 212.85 72.96 212.69 73.44C211.81 74.8 210.57 75.48 208.97 75.48C207.29 75.48 205.65 74.56 204.05 72.72C205.89 74.32 207.49 75.12 208.85 75.12C210.37 75.12 211.53 74.48 212.33 73.2C212.49 72.72 212.57 72.36 212.57 72.12C212.57 70.92 211.65 69.96 209.81 69.24C211.25 70.12 211.97 71.08 211.97 72.12C211.97 72.44 211.89 72.76 211.73 73.08C211.09 74.04 210.21 74.52 209.09 74.52C207.33 74.52 205.57 73.52 203.81 71.52C205.73 73.2 207.41 74.04 208.85 74.04C209.89 74.04 210.65 73.6 211.13 72.72C211.53 71.52 210.77 70.56 208.85 69.84C210.45 70.72 211.05 71.64 210.65 72.6C210.33 73.16 209.73 73.44 208.85 73.44C207.25 73.44 205.57 72.44 203.81 70.44C205.57 72.2 207.13 73.08 208.49 73.08C209.21 73.08 209.77 72.84 210.17 72.36C210.49 71.56 209.73 70.96 207.89 70.56C209.09 71.12 209.65 71.64 209.57 72.12C209.25 73.08 208.21 73 206.45 71.88C205.65 71.4 205.25 70.76 205.25 69.96C205.25 69.48 205.45 68.92 205.85 68.28C206.01 68.04 205.97 67.8 205.73 67.56C204.45 67.16 203.53 67.2 202.97 67.68C202.73 67.92 202.45 68.68 202.13 69.96C201.97 69.48 201.61 69.2 201.05 69.12C199.93 69.28 198.41 69 196.49 68.28C196.33 68.12 196.17 68.2 196.01 68.52C195.85 68.84 195.77 69.16 195.77 69.48C195.77 70.28 196.45 71.16 197.81 72.12C197.17 72.28 196.65 72.44 196.25 72.6C195.85 72.76 195.57 72.88 195.41 72.96C194.45 73.52 193.93 74.16 193.85 74.88C193.45 76.72 194.05 77.68 195.65 77.76C196.21 77.76 196.57 77.44 196.73 76.8C196.89 76.16 196.61 75.72 195.89 75.48H195.41C195.33 75.32 195.29 75.12 195.29 74.88C195.29 73.84 196.21 73.24 198.05 73.08C199.09 73 200.33 73.24 201.77 73.8C202.41 74.12 203.01 74.4 203.57 74.64C204.13 74.88 204.73 75.16 205.37 75.48C204.97 75.08 204.57 74.76 204.17 74.52C203.77 74.2 203.41 73.88 203.09 73.56C201.09 71.96 199.65 71.16 198.77 71.16C198.37 71.16 197.77 70.68 196.97 69.72C197.85 70.36 198.53 70.68 199.01 70.68C200.13 70.44 201.33 71.08 202.61 72.6C204.61 75 206.65 76.2 208.73 76.2C210.41 76.2 211.85 75.4 213.05 73.8ZM193.49 70.56C193.49 70.48 193.33 70.48 193.01 70.56C191.89 71.04 191.05 71.92 190.49 73.2C190.09 74 190.05 74.8 190.37 75.6L191.09 77.04C191.41 77.68 191.41 78.16 191.09 78.48C190.69 79.12 190.21 79.28 189.65 78.96C188.85 78.56 188.77 78.16 189.41 77.76C189.41 77.84 189.45 77.88 189.53 77.88C189.69 77.72 189.81 77.52 189.89 77.28C189.81 76.96 189.61 76.88 189.29 77.04C188.49 77.76 188.41 78.44 189.05 79.08C189.61 79.64 190.25 79.68 190.97 79.2C191.69 78.64 191.93 77.96 191.69 77.16C191.61 77 191.53 76.84 191.45 76.68C191.37 76.52 191.25 76.28 191.09 75.96C191.73 76.12 192.17 76.12 192.41 75.96C192.97 75.72 193.33 75.36 193.49 74.88C193.65 74 193.37 73.44 192.65 73.2C192.41 73.28 192.21 73.52 192.05 73.92C192.13 73.92 192.41 74 192.89 74.16C193.13 74.56 193.09 74.92 192.77 75.24C191.97 75.96 191.33 75.92 190.85 75.12C190.61 74.64 190.57 74.2 190.73 73.8C191.13 72.68 192.01 71.72 193.37 70.92C193.53 70.76 193.57 70.64 193.49 70.56Z" fill="#B51518"/>
</svg>
