<svg width="497" height="396" viewBox="0 0 497 396" fill="none" xmlns="http://www.w3.org/2000/svg">
<path d="M52.8983 46.5676V78.1745H73.3179V120.68H52.8983V194.793H3.89038V4.06274H74.6801V46.5676H52.8983Z" fill="#1C1C1C"/>
<path d="M126.952 46.5676V72.9975H148.732V115.502H126.952V152.286H148.732V194.792H77.9438V4.06274H148.732V46.5676H126.952Z" fill="#1C1C1C"/>
<path d="M201.005 4.06274V152.286H222.786V194.792H151.997V4.06274H201.005Z" fill="#1C1C1C"/>
<path d="M274.787 4.06274V194.792H225.779V4.06274H274.787Z" fill="#1C1C1C"/>
<path d="M327.059 150.651C327.059 153.649 327.604 155.012 328.692 155.012C329.781 155.012 330.326 153.649 330.326 150.651V102.153H379.334V146.838C379.334 179.261 360.548 197.517 327.876 197.517C295.748 197.517 278.052 179.807 278.052 146.838V51.7445C278.052 18.7756 295.749 1.3374 327.876 1.3374C360.548 1.3374 379.334 19.5935 379.334 51.7445V96.7021H330.326V48.2035C330.326 44.9329 329.781 43.8434 328.692 43.8434C327.604 43.8434 327.059 44.9329 327.059 48.2035V150.651Z" fill="#1C1C1C"/>
<path d="M431.604 4.06274V194.792H382.596V4.06274H431.604Z" fill="#1C1C1C"/>
<path d="M105.174 200.836V391.566H56.1665V315.001H52.8994V391.566H3.89038V200.836H52.8983V272.495H56.1653V200.836H105.174Z" fill="#1C1C1C"/>
<path d="M158.262 198.111C190.935 198.111 209.72 216.367 209.72 248.518V343.611C209.72 376.035 190.934 394.291 158.262 394.291C126.135 394.291 108.438 376.58 108.438 343.611V248.518C108.438 215.549 126.135 198.111 158.262 198.111ZM157.446 347.425C157.446 350.423 157.99 351.785 159.079 351.785C160.169 351.785 160.713 350.423 160.713 347.425V244.976C160.713 241.705 160.169 240.616 159.079 240.616C157.99 240.616 157.446 241.705 157.446 244.976V347.425Z" fill="#1C1C1C"/>
<path d="M261.991 200.836V347.425C261.991 350.423 262.535 351.785 263.625 351.785C264.715 351.785 265.258 350.423 265.258 347.425V200.836H314.266V343.611C314.266 376.035 295.752 394.291 262.809 394.291C230.41 394.291 212.985 376.58 212.985 343.611V200.836H261.991Z" fill="#1C1C1C"/>
<path d="M369.805 266.229V244.977C369.805 241.979 369.261 240.617 368.171 240.617C367.082 240.617 366.538 241.979 366.538 244.977V260.235C366.538 268.138 367.082 269.5 388.047 281.216L395.399 285.303C413.913 295.658 418.814 308.19 418.814 340.07V343.612C418.814 376.036 400.028 394.292 367.356 394.292C334.957 394.292 317.532 376.581 317.532 343.612V326.174H366.54V347.426C366.54 350.424 367.084 351.786 368.174 351.786C369.263 351.786 369.807 350.424 369.807 347.699V331.623C369.807 323.722 369.263 322.631 350.476 312.006L341.764 307.101C322.705 296.475 317.532 282.852 317.532 250.972V248.519C317.532 215.55 335.23 198.112 367.356 198.112C400.029 198.112 418.814 216.368 418.814 248.519V266.23H369.805V266.229Z" fill="#1C1C1C"/>
<path d="M471.085 243.341V269.772H492.866V312.277H471.085V349.061H492.866V391.567H422.077V200.838H492.866V243.342H471.085V243.341Z" fill="#1C1C1C"/>
<path d="M456.884 47.6986C444.147 47.6986 434.963 38.6283 434.963 25.8812C434.963 13.2531 444.325 4.06274 456.884 4.06274C469.443 4.06274 478.804 13.3114 478.804 25.8812C478.804 38.6283 469.561 47.6986 456.884 47.6986ZM456.884 9.16113C447.168 9.16113 440.533 16.2758 440.533 25.8801C440.533 35.5439 447.109 42.5991 456.884 42.5991C466.54 42.5991 473.235 35.425 473.235 25.8801C473.235 16.2758 466.6 9.16113 456.884 9.16113ZM460.142 36.3159L457.238 29.2012H454.454V36.3159H448.945V14.6747H457.535C462.096 14.6747 465.711 17.1644 465.711 22.026C465.711 24.5169 464.704 26.9471 462.334 28.1331L465.888 36.3147L460.142 36.3159ZM457.535 19.5958H454.395V24.2801H457.535C459.076 24.2801 460.142 23.4498 460.142 21.8487C460.142 20.3071 458.957 19.5958 457.535 19.5958Z" fill="#1C1C1C"/>
</svg>
