<svg width="69" height="64" viewBox="0 0 69 64" fill="none" xmlns="http://www.w3.org/2000/svg">
<path d="M34.2894 55.6364C40.9833 55.6364 47.4031 52.9737 52.1364 48.2342C56.8697 43.4946 59.5289 37.0664 59.5289 30.3637C59.5289 23.6609 56.8697 17.2327 52.1364 12.4932C47.4031 7.7536 40.9833 5.09094 34.2894 5.09094C27.5955 5.09094 21.1757 7.7536 16.4424 12.4932C11.7091 17.2327 9.04993 23.6609 9.04993 30.3637C9.04993 37.0664 11.7091 43.4946 16.4424 48.2342C21.1757 52.9737 27.5955 55.6364 34.2894 55.6364Z" fill="#FFD21E"/>
<path d="M59.5289 30.3636C59.5289 23.6608 56.8697 17.2326 52.1364 12.4931C47.4031 7.75351 40.9833 5.09085 34.2894 5.09085C27.5955 5.09085 21.1757 7.75351 16.4424 12.4931C11.7091 17.2326 9.04992 23.6608 9.04992 30.3636C9.04992 37.0663 11.7091 43.4945 16.4424 48.2341C21.1757 52.9737 27.5955 55.6363 34.2894 55.6363C40.9833 55.6363 47.4031 52.9737 52.1364 48.2341C56.8697 43.4945 59.5289 37.0663 59.5289 30.3636ZM6.14465 30.3636C6.14465 26.6627 6.87264 22.998 8.28704 19.5789C9.70145 16.1597 11.7746 13.053 14.3881 10.436C17.0015 7.8191 20.1042 5.74324 23.5189 4.32698C26.9335 2.91071 30.5934 2.18176 34.2894 2.18176C37.9854 2.18176 41.6452 2.91071 45.0599 4.32698C48.4746 5.74324 51.5772 7.8191 54.1907 10.436C56.8042 13.053 58.8773 16.1597 60.2917 19.5789C61.7061 22.998 62.4341 26.6627 62.4341 30.3636C62.4341 37.8379 59.4689 45.006 54.1907 50.2911C48.9126 55.5763 41.7538 58.5454 34.2894 58.5454C26.8249 58.5454 19.6662 55.5763 14.3881 50.2911C9.10989 45.006 6.14465 37.8379 6.14465 30.3636Z" fill="#FF9D0B"/>
<path d="M42.4895 23.4909C43.4192 23.8109 43.7823 25.7163 44.7193 25.2218C45.3537 24.8845 45.874 24.3664 46.2144 23.733C46.5547 23.0996 46.6998 22.3794 46.6314 21.6634C46.5629 20.9474 46.2839 20.2678 45.8297 19.7106C45.3755 19.1534 44.7665 18.7436 44.0796 18.533C43.3928 18.3224 42.659 18.3205 41.9711 18.5275C41.2832 18.7345 40.672 19.1412 40.2149 19.696C39.7578 20.2509 39.4753 20.929 39.4031 21.6446C39.3309 22.3602 39.4723 23.0812 39.8094 23.7163C40.2524 24.5527 41.6615 23.1927 42.4967 23.4836L42.4895 23.4909ZM25.3847 23.4909C24.4551 23.8109 24.0846 25.7163 23.155 25.2218C22.5205 24.8845 22.0002 24.3664 21.6599 23.733C21.3195 23.0996 21.1744 22.3794 21.2429 21.6634C21.3113 20.9474 21.5903 20.2678 22.0445 19.7106C22.4987 19.1534 23.1078 18.7436 23.7946 18.533C24.4814 18.3224 25.2152 18.3205 25.9031 18.5275C26.591 18.7345 27.2022 19.1412 27.6593 19.696C28.1164 20.2509 28.3989 20.929 28.4711 21.6446C28.5433 22.3602 28.4019 23.0812 28.0648 23.7163C27.6218 24.5527 26.2055 23.1927 25.3775 23.4836L25.3847 23.4909Z" fill="#3A3B45"/>
<path d="M34.1078 40.9381C41.2475 40.9381 43.5499 34.5672 43.5499 31.2945C43.5499 29.5927 42.4096 30.1309 40.5793 31.0327C38.887 31.869 36.6136 33.0254 34.1151 33.0254C28.8929 33.0254 24.673 28.0218 24.673 31.2945C24.673 34.5672 26.9681 40.9381 34.1151 40.9381H34.1078Z" fill="#FF323D"/>
<path fill-rule="evenodd" clip-rule="evenodd" d="M28.6386 39.2727C29.0218 38.4929 29.5614 37.8005 30.2237 37.2386C30.886 36.6768 31.6568 36.2577 32.4881 36.0073C32.7786 35.92 33.0764 36.4218 33.3887 36.9382C33.6792 37.4327 33.9843 37.9346 34.2893 37.9346C34.6162 37.9346 34.943 37.44 35.2553 36.9527C35.5822 36.4437 35.9018 35.9491 36.2141 36.0437C37.7744 36.5396 39.0782 37.6285 39.8457 39.0764C42.5548 36.9382 43.5499 33.4473 43.5499 31.2946C43.5499 29.5927 42.4095 30.1309 40.5792 31.0327L40.4775 31.0837C38.7998 31.92 36.5627 33.0255 34.1078 33.0255C31.6528 33.0255 29.423 31.92 27.738 31.0837C25.8495 30.1455 24.6656 29.5564 24.6656 31.2946C24.6656 33.5127 25.7261 37.1564 28.6386 39.2727Z" fill="#3A3B45"/>
<path d="M51.3578 26.909C51.9839 26.909 52.5843 26.66 53.027 26.2167C53.4697 25.7735 53.7184 25.1723 53.7184 24.5454C53.7184 23.9185 53.4697 23.3173 53.027 22.8741C52.5843 22.4308 51.9839 22.1818 51.3578 22.1818C50.7318 22.1818 50.1314 22.4308 49.6887 22.8741C49.246 23.3173 48.9973 23.9185 48.9973 24.5454C48.9973 25.1723 49.246 25.7735 49.6887 26.2167C50.1314 26.66 50.7318 26.909 51.3578 26.909ZM17.5842 26.909C18.2102 26.909 18.8106 26.66 19.2533 26.2167C19.696 25.7735 19.9447 25.1723 19.9447 24.5454C19.9447 23.9185 19.696 23.3173 19.2533 22.8741C18.8106 22.4308 18.2102 22.1818 17.5842 22.1818C16.9581 22.1818 16.3577 22.4308 15.915 22.8741C15.4723 23.3173 15.2236 23.9185 15.2236 24.5454C15.2236 25.1723 15.4723 25.7735 15.915 26.2167C16.3577 26.66 16.9581 26.909 17.5842 26.909ZM12.7251 34.909C11.5485 34.909 10.5026 35.389 9.769 36.269C9.14346 37.0427 8.80242 38.0081 8.803 39.0036C8.34567 38.8659 7.87146 38.7924 7.39395 38.7854C6.26816 38.7854 5.25132 39.2145 4.53226 39.9927C3.89075 40.6597 3.48629 41.5196 3.38128 42.4397C3.27627 43.3597 3.47655 44.2888 3.95121 45.0836C3.30841 45.609 2.85239 46.3284 2.65111 47.1345C2.47679 47.789 2.30247 49.1709 3.23216 50.5818C2.88364 51.1183 2.67626 51.7343 2.62927 52.3726C2.58229 53.0109 2.69723 53.6508 2.96342 54.2327C3.70426 55.9199 5.55637 57.2436 9.15163 58.669C11.3814 59.5563 13.4296 60.1236 13.4442 60.1309C16.0316 60.8486 18.6985 61.2396 21.3828 61.2945C25.639 61.2945 28.6823 59.9854 30.4327 57.4109C33.2508 53.2727 32.8513 49.4836 29.1979 45.8327C27.1861 43.8109 25.8424 40.8363 25.5664 40.1818C24.9998 38.2472 23.5036 36.0945 21.0269 36.0945C20.368 36.1049 19.7211 36.2727 19.14 36.5839C18.5589 36.8951 18.0603 37.3406 17.6858 37.8836C16.9595 36.9672 16.2477 36.2472 15.6086 35.8327C14.7557 35.2545 13.7548 34.9339 12.7251 34.909ZM12.7251 37.8181C13.0955 37.8181 13.5531 37.9781 14.047 38.2909C15.6013 39.2799 18.5865 44.4218 19.6832 46.4218C20.0464 47.0909 20.6783 47.3745 21.2375 47.3745C22.3633 47.3745 23.2349 46.2618 21.3465 44.8436C18.4993 42.7127 19.4944 39.229 20.8526 39.0181C20.9107 39.0036 20.9761 39.0036 21.0269 39.0036C22.2616 39.0036 22.8064 41.1345 22.8064 41.1345C22.8064 41.1345 24.4043 45.149 27.1497 47.8981C29.8879 50.6399 30.0332 52.8436 28.0358 55.7745C26.6704 57.7745 24.0629 58.3781 21.3828 58.3781C18.6155 58.3781 15.7684 57.7236 14.1777 57.3163C14.0978 57.2945 4.40879 54.5527 5.63626 52.2254C5.83963 51.8327 6.181 51.6727 6.60953 51.6727C8.33816 51.6727 11.4758 54.2472 12.8341 54.2472C13.1318 54.2472 13.3425 54.1236 13.4369 53.8109C14.0107 51.7381 4.67753 50.8654 5.46195 47.869C5.60721 47.3381 5.97763 47.1272 6.50784 47.1272C8.78847 47.1272 13.9163 51.149 14.9912 51.149C15.0711 51.149 15.1365 51.1272 15.1655 51.0763C15.703 50.2036 15.4052 49.5927 11.6066 47.2945C7.82247 44.9963 5.1569 43.6145 6.66763 41.9636C6.84195 41.7745 7.0889 41.6872 7.39395 41.6872C9.69637 41.6872 15.1365 46.6472 15.1365 46.6472C15.1365 46.6472 16.6036 48.1745 17.497 48.1745C17.7004 48.1745 17.8747 48.1018 17.9909 47.8981C18.6155 46.8363 12.1368 41.9199 11.7736 39.8909C11.5267 38.509 11.9479 37.8181 12.7251 37.8181Z" fill="#FF9D0B"/>
<path d="M28.0358 55.7745C30.0332 52.8363 29.8879 50.6327 27.1497 47.8909C24.4042 45.1491 22.8063 41.1272 22.8063 41.1272C22.8063 41.1272 22.2107 38.8 20.8525 39.0181C19.4943 39.2363 18.4993 42.7127 21.3464 44.8436C24.1863 46.9745 20.7799 48.4218 19.6832 46.4218C18.5937 44.4218 15.6013 39.28 14.0469 38.2909C12.4999 37.3091 11.4104 37.8545 11.7736 39.8909C12.1367 41.92 18.6227 46.8363 17.9908 47.8909C17.3589 48.96 15.1364 46.6472 15.1364 46.6472C15.1364 46.6472 8.18558 40.3127 6.66758 41.9636C5.15684 43.6145 7.82242 44.9963 11.6065 47.2945C15.4052 49.5927 15.7029 50.2036 15.1655 51.0763C14.6207 51.9491 6.24631 44.8727 5.46189 47.8763C4.67747 50.8654 14.0106 51.7309 13.4368 53.8036C12.8558 55.8763 6.85642 49.8909 5.63621 52.2181C4.40147 54.5527 14.0978 57.2945 14.1777 57.3163C17.3008 58.1309 25.254 59.8545 28.0358 55.7745Z" fill="#FFD21E"/>
<path d="M56.2168 34.9091C57.3935 34.9091 58.4466 35.3891 59.1729 36.2691C59.7985 37.0427 60.1395 38.0082 60.139 39.0036C60.5986 38.8652 61.0753 38.7918 61.5553 38.7854C62.6811 38.7854 63.6979 39.2145 64.417 39.9927C65.0585 40.6597 65.4629 41.5196 65.5679 42.4397C65.6729 43.3597 65.4727 44.2888 64.998 45.0836C65.6381 45.6101 66.0915 46.3294 66.2908 47.1345C66.4652 47.7891 66.6395 49.1709 65.7098 50.5818C66.0583 51.1183 66.2657 51.7344 66.3127 52.3727C66.3597 53.011 66.2447 53.6508 65.9785 54.2327C65.2377 55.92 63.3856 57.2436 59.7976 58.6691C57.5605 59.5563 55.5123 60.1236 55.4978 60.1309C52.9104 60.8487 50.2435 61.2396 47.5592 61.2945C43.303 61.2945 40.2597 59.9854 38.5093 57.4109C35.6912 53.2727 36.0906 49.4836 39.744 45.8327C41.7632 43.8109 43.1068 40.8363 43.3828 40.1818C43.9494 38.2472 45.4383 36.0945 47.9151 36.0945C48.574 36.1049 49.2209 36.2727 49.802 36.5839C50.3831 36.8951 50.8816 37.3407 51.2561 37.8836C51.9824 36.9672 52.6942 36.2472 53.3406 35.8327C54.1915 35.2558 55.1896 34.9353 56.2168 34.9091ZM56.2168 37.8181C55.8464 37.8181 55.3961 37.9781 54.8949 38.2909C53.3479 39.28 50.3555 44.4218 49.2587 46.4218C49.1107 46.7072 48.8878 46.9467 48.6139 47.1146C48.34 47.2824 48.0255 47.3723 47.7044 47.3745C46.5859 47.3745 45.7071 46.2618 47.6027 44.8436C50.4426 42.7127 49.4476 39.2291 48.0894 39.0181C48.0317 39.0088 47.9735 39.0039 47.9151 39.0036C46.6803 39.0036 46.1356 41.1345 46.1356 41.1345C46.1356 41.1345 44.5377 45.1491 41.7995 47.8981C39.054 50.64 38.9087 52.8436 40.9134 55.7745C42.2716 57.7745 44.8863 58.3781 47.5592 58.3781C50.3337 58.3781 53.1736 57.7236 54.7715 57.3163C54.8441 57.2945 64.5404 54.5527 63.3129 52.2254C63.1023 51.8327 62.7682 51.6727 62.3397 51.6727C60.6111 51.6727 57.4661 54.2472 56.1152 54.2472C55.8101 54.2472 55.5995 54.1236 55.5123 53.8109C54.9313 51.7381 64.2644 50.8654 63.48 47.8691C63.342 47.3381 62.9716 47.1272 62.4341 47.1272C60.1535 47.1272 55.0257 51.1491 53.9507 51.1491C53.8781 51.1491 53.8127 51.1272 53.7837 51.0763C53.2462 50.2036 53.5367 49.5927 57.3281 47.2945C61.1267 44.9963 63.7923 43.6145 62.2671 41.9636C62.1 41.7745 61.8531 41.6872 61.5553 41.6872C59.2456 41.6872 53.8055 46.6472 53.8055 46.6472C53.8055 46.6472 52.3383 48.1745 51.4522 48.1745C51.3524 48.179 51.2533 48.1555 51.166 48.1067C51.0788 48.0578 51.0068 47.9856 50.9583 47.8981C50.3264 46.8363 56.8052 41.92 57.1683 39.8909C57.4153 38.5091 56.994 37.8181 56.2168 37.8181Z" fill="#FF9D0B"/>
<path d="M40.9133 55.7745C38.916 52.8363 39.054 50.6327 41.7994 47.8909C44.5376 45.1491 46.1355 41.1272 46.1355 41.1272C46.1355 41.1272 46.7311 38.8 48.0966 39.0181C49.4475 39.2363 50.4426 42.7127 47.6027 44.8436C44.7555 46.9745 48.1692 48.4218 49.2587 46.4218C50.3554 44.4218 53.3479 39.28 54.8949 38.2909C56.442 37.3091 57.5387 37.8545 57.1683 39.8909C56.8051 41.92 50.3264 46.8363 50.9583 47.8909C51.5829 48.96 53.8054 46.6472 53.8054 46.6472C53.8054 46.6472 60.7635 40.3127 62.2743 41.9636C63.785 43.6145 61.1267 44.9963 57.3353 47.2945C53.5367 49.5927 53.2462 50.2036 53.7764 51.0763C54.3211 51.9491 62.6955 44.8727 63.48 47.8763C64.2644 50.8654 54.9385 51.7309 55.5123 53.8036C56.0933 55.8763 62.0854 49.8909 63.3129 52.2181C64.5404 54.5527 54.8513 57.2945 54.7714 57.3163C51.641 58.1309 43.6879 59.8545 40.9133 55.7745Z" fill="#FFD21E"/>
</svg>
