<svg width="47" height="64" viewBox="0 0 47 64" fill="none" xmlns="http://www.w3.org/2000/svg">
<path d="M46.964 21.9896C46.7989 18.9859 46.0431 16.0167 44.7052 13.2454C43.5844 10.9216 42.0641 8.74419 40.118 6.81634C30.9351 -2.27211 16.0617 -2.27211 6.87876 6.81634C4.94139 8.74419 3.41235 10.9216 2.29163 13.2454L2.28294 13.2626C0.94503 16.0425 0.197886 19.0203 0.0328188 22.024V22.0412C-0.306004 28.4186 1.97887 34.8907 6.87876 39.7448L6.844 39.7792L12.3868 45.2701L29.0412 28.7629C32.0993 25.7334 32.0993 20.8191 29.0412 17.7896C25.9831 14.7601 21.0137 14.7601 17.9556 17.7896C14.9062 20.8277 14.8975 25.742 17.9556 28.7715L12.4215 34.2538C8.32961 30.2002 6.97432 24.4596 8.35567 19.2957L8.36435 19.2699C9.05069 16.7138 10.406 14.304 12.4215 12.3073C18.5377 6.2397 28.4591 6.2397 34.5753 12.3073C36.5995 14.304 37.9461 16.7138 38.6324 19.2613C40.0225 24.4424 38.6759 30.1916 34.5753 34.2538L17.9209 50.7525C14.8628 53.7819 14.8628 58.7049 17.9209 61.7343C20.979 64.7552 25.9396 64.7552 28.9977 61.7343C32.0558 58.7049 32.0645 53.7819 28.9977 50.7525L40.118 39.7448C45.0353 34.8649 47.3202 28.367 46.964 21.9896Z" fill="#FAAC4A"/>
</svg>
