<svg width="64" height="66" viewBox="0 0 64 66" fill="none" xmlns="http://www.w3.org/2000/svg">
<path d="M63.8502 14.8401C63.8738 14.9275 63.886 15.0177 63.8862 15.1083V29.1888C63.8862 29.3695 63.8384 29.5471 63.7476 29.7034C63.6567 29.8598 63.5261 29.9895 63.369 30.0794L51.5204 36.8836V50.3699C51.5204 50.7369 51.3248 51.0757 51.0058 51.2605L26.2729 65.4617C26.2163 65.4938 26.1546 65.5143 26.0928 65.5361C26.0696 65.5438 26.0478 65.5579 26.0233 65.5644C25.8504 65.6098 25.6687 65.6098 25.4958 65.5644C25.4675 65.5567 25.4418 65.5413 25.4147 65.531C25.3581 65.5105 25.299 65.4925 25.2449 65.4617L0.517224 51.2605C0.360136 51.1705 0.229612 51.0408 0.138807 50.8844C0.048002 50.7281 0.000124468 50.5506 0 50.3699L0 8.12835C0 8.03595 0.0128663 7.94612 0.0360256 7.85885C0.0437453 7.82933 0.0617581 7.80239 0.0720511 7.77287C0.0913505 7.71897 0.109363 7.66379 0.137669 7.61374C0.156969 7.58037 0.185274 7.55342 0.208434 7.52262C0.238026 7.48156 0.265045 7.43921 0.299784 7.40327C0.329377 7.37376 0.367975 7.35194 0.401428 7.32628C0.43874 7.29548 0.472192 7.26211 0.514651 7.23773L12.8804 0.137149C13.037 0.0472924 13.2144 0 13.3951 0C13.5757 0 13.7532 0.0472924 13.9097 0.137149L26.2742 7.23773H26.2768C26.318 7.26339 26.3527 7.29548 26.39 7.32499C26.4235 7.35066 26.4608 7.37376 26.4904 7.40199C26.5264 7.43921 26.5521 7.48156 26.583 7.52262C26.6049 7.55342 26.6345 7.58037 26.6525 7.61374C26.6821 7.66507 26.6988 7.71897 26.7194 7.77287C26.7297 7.80239 26.7477 7.82933 26.7554 7.86013C26.7791 7.94759 26.7912 8.03776 26.7914 8.12835V34.512L37.0947 28.5946V15.107C37.0947 15.0172 37.1076 14.9261 37.1308 14.8401C37.1398 14.8093 37.1565 14.7823 37.1668 14.7528C37.1874 14.6989 37.2054 14.6437 37.2337 14.5937C37.253 14.5603 37.2813 14.5334 37.3032 14.5026C37.3341 14.4615 37.3598 14.4192 37.3958 14.3832C37.4254 14.3537 37.4627 14.3319 37.4962 14.3062C37.5348 14.2754 37.5682 14.2421 37.6094 14.2177L49.9765 7.1171C50.133 7.02711 50.3105 6.97975 50.4911 6.97975C50.6718 6.97975 50.8492 7.02711 51.0058 7.1171L63.3702 14.2177C63.414 14.2433 63.4474 14.2754 63.486 14.3049C63.5182 14.3306 63.5555 14.3537 63.5851 14.3819C63.6211 14.4192 63.6469 14.4615 63.6778 14.5026C63.7009 14.5334 63.7292 14.5603 63.7472 14.5937C63.7768 14.6437 63.7935 14.6989 63.8141 14.7528C63.8257 14.7823 63.8424 14.8093 63.8502 14.8401ZM61.825 28.5946V16.8857L57.4981 19.3702L51.5204 22.803V34.512L61.8263 28.5946H61.825ZM49.4605 49.7757V38.0591L43.5806 41.4085L26.7902 50.9667V62.7937L49.4605 49.7757ZM2.06118 9.90574V49.7757L24.729 62.7924V50.9679L12.8869 44.2832L12.883 44.2806L12.8779 44.278C12.838 44.2549 12.8045 44.2216 12.7672 44.1933C12.735 44.1677 12.6977 44.1471 12.6694 44.1189L12.6668 44.115C12.6334 44.083 12.6102 44.0432 12.5819 44.0072C12.5562 43.9726 12.5253 43.9431 12.5047 43.9071L12.5034 43.9033C12.4803 43.8648 12.4661 43.8186 12.4494 43.775C12.4327 43.7365 12.4108 43.7005 12.4005 43.6595C12.3876 43.6107 12.3851 43.5581 12.3799 43.508C12.3748 43.4695 12.3645 43.431 12.3645 43.3925V15.8231L6.3881 12.389L2.06118 9.90574ZM13.3964 2.21355L3.09434 8.12835L13.3938 14.0431L23.6945 8.12706L13.3938 2.21355H13.3964ZM18.7539 39.1268L24.7303 35.6952V9.90574L20.4033 12.3902L14.4257 15.8231V41.6126L18.7539 39.1268ZM50.4911 9.1935L40.1904 15.1083L50.4911 21.0231L60.7906 15.107L50.4911 9.1935ZM49.4605 22.803L43.4829 19.3702L39.1559 16.8857V28.5946L45.1323 32.0262L49.4605 34.512V22.803ZM25.7583 49.1893L40.8671 40.5859L48.4196 36.2868L38.1266 30.3759L26.2755 37.1813L15.4743 43.3836L25.7583 49.1893Z" fill="#FF2D20"/>
</svg>
