<svg width="231" height="64" viewBox="0 0 231 64" fill="none" xmlns="http://www.w3.org/2000/svg">
<g clip-path="url(#clip0_37_60)">
<path d="M79.8684 19.4811H73.5823V57.5188H91.6763V51.9221H79.8684V19.4811Z" fill="#FF2D20"/>
<path d="M113.071 35.6231C112.298 34.3581 111.2 33.3645 109.777 32.6411C108.354 31.9184 106.921 31.5566 105.481 31.5566C103.618 31.5566 101.914 31.9091 100.368 32.6138C98.8209 33.3185 97.4947 34.2862 96.3878 35.5147C95.281 36.7438 94.4196 38.1625 93.805 39.7704C93.1896 41.3793 92.8825 43.0695 92.8825 44.8399C92.8825 46.6478 93.1896 48.3459 93.805 49.936C94.4194 51.5271 95.2807 52.9366 96.3878 54.165C97.4947 55.3941 98.8212 56.3607 100.368 57.0654C101.914 57.7701 103.618 58.1226 105.481 58.1226C106.921 58.1226 108.354 57.7612 109.777 57.0384C111.2 56.3158 112.298 55.3218 113.071 54.0563V57.4719H118.817V32.2068H113.071V35.6231ZM112.544 47.9303C112.193 48.9064 111.701 49.7559 111.069 50.4787C110.436 51.2019 109.671 51.78 108.776 52.2138C107.879 52.6475 106.886 52.8643 105.797 52.8643C104.707 52.8643 103.723 52.6475 102.845 52.2138C101.966 51.78 101.211 51.2019 100.579 50.4787C99.9459 49.7559 99.4624 48.9064 99.129 47.9303C98.7943 46.9543 98.6283 45.9242 98.6283 44.8402C98.6283 43.7555 98.7943 42.7255 99.129 41.7496C99.4624 40.7736 99.9459 39.9247 100.579 39.2014C101.211 38.4789 101.966 37.9 102.845 37.4663C103.723 37.0326 104.707 36.8158 105.797 36.8158C106.886 36.8158 107.879 37.0326 108.776 37.4663C109.671 37.9 110.436 38.4786 111.069 39.2014C111.701 39.9247 112.193 40.7736 112.544 41.7496C112.895 42.7255 113.071 43.7555 113.071 44.8402C113.071 45.9242 112.895 46.9543 112.544 47.9303Z" fill="#FF2D20"/>
<path d="M160.719 35.6231C159.946 34.3581 158.848 33.3645 157.424 32.6411C156.001 31.9184 154.569 31.5566 153.128 31.5566C151.265 31.5566 149.561 31.9091 148.015 32.6138C146.468 33.3185 145.142 34.2862 144.035 35.5147C142.928 36.7438 142.067 38.1625 141.452 39.7704C140.837 41.3793 140.53 43.0695 140.53 44.8399C140.53 46.6478 140.837 48.3459 141.452 49.936C142.067 51.5271 142.928 52.9366 144.035 54.165C145.142 55.3941 146.469 56.3607 148.015 57.0654C149.561 57.7701 151.265 58.1226 153.128 58.1226C154.569 58.1226 156.001 57.7612 157.424 57.0384C158.848 56.3158 159.946 55.3218 160.719 54.0563V57.4719H166.465V32.2068H160.719V35.6231ZM160.192 47.9303C159.841 48.9064 159.349 49.7559 158.716 50.4787C158.084 51.2019 157.319 51.78 156.423 52.2138C155.527 52.6475 154.534 52.8643 153.445 52.8643C152.355 52.8643 151.371 52.6475 150.493 52.2138C149.614 51.78 148.859 51.2019 148.226 50.4787C147.594 49.7559 147.11 48.9064 146.777 47.9303C146.442 46.9543 146.276 45.9242 146.276 44.8402C146.276 43.7555 146.442 42.7255 146.777 41.7496C147.11 40.7736 147.594 39.9247 148.226 39.2014C148.859 38.4789 149.614 37.9 150.493 37.4663C151.371 37.0326 152.355 36.8158 153.445 36.8158C154.534 36.8158 155.527 37.0326 156.423 37.4663C157.319 37.9 158.084 38.4786 158.716 39.2014C159.349 39.9247 159.841 40.7736 160.192 41.7496C160.543 42.7255 160.719 43.7555 160.719 44.8402C160.719 45.9242 160.543 46.9543 160.192 47.9303Z" fill="#FF2D20"/>
<path d="M231 19.4811H224.969V57.5188H231V19.4811Z" fill="#FF2D20"/>
<path d="M123.642 57.5189H129.416V37.9965H139.324V32.1604H123.642V57.5189Z" fill="#FF2D20"/>
<path d="M190.097 32.1604L182.749 51.5794L175.401 32.1604H169.48L179.076 57.5189H186.423L196.018 32.1604H190.097Z" fill="#FF2D20"/>
<path d="M208.85 31.5566C201.688 31.5566 196.018 37.5038 196.018 44.8396C196.018 52.9489 201.505 58.1226 209.6 58.1226C214.13 58.1226 217.022 56.3724 220.556 52.5611L216.605 49.472C216.602 49.4751 213.622 53.4286 209.172 53.4286C203.999 53.4286 201.822 49.2153 201.822 47.0354H221.227C222.246 38.6883 216.815 31.5566 208.85 31.5566ZM201.838 42.6438C201.882 42.1576 202.556 36.2506 208.803 36.2506C215.052 36.2506 215.811 42.1567 215.855 42.6438H201.838Z" fill="#FF2D20"/>
<path d="M62.0877 14.4785C62.1107 14.5638 62.1225 14.6518 62.1227 14.7402V28.4776C62.1227 28.6539 62.0762 28.8271 61.9879 28.9797C61.8996 29.1322 61.7726 29.2588 61.6198 29.3465L50.0983 35.9848V49.1426C50.0983 49.5007 49.9081 49.8312 49.5978 50.0115L25.5477 63.8666C25.4927 63.8979 25.4326 63.9179 25.3726 63.9392C25.35 63.9467 25.3288 63.9605 25.305 63.9668C25.1369 64.0111 24.9602 64.0111 24.792 63.9668C24.7645 63.9593 24.7395 63.9442 24.7132 63.9342C24.6582 63.9142 24.6006 63.8967 24.5481 63.8666L0.502947 50.0115C0.350195 49.9237 0.223274 49.7971 0.134976 49.6446C0.046677 49.492 0.000121032 49.3189 0 49.1426L0 7.93029C0 7.84014 0.0125111 7.7525 0.0350311 7.66736C0.0425378 7.63856 0.0600534 7.61227 0.0700623 7.58347C0.088829 7.53088 0.106345 7.47705 0.133869 7.42822C0.152636 7.39566 0.18016 7.36937 0.20268 7.33932C0.231456 7.29926 0.257729 7.25794 0.291509 7.22288C0.320285 7.19408 0.357818 7.1728 0.390347 7.14776C0.426629 7.11771 0.459158 7.08516 0.500445 7.06137L12.5249 0.133807C12.6771 0.04614 12.8497 0 13.0253 0C13.201 0 13.3735 0.04614 13.5258 0.133807L25.549 7.06137H25.5515C25.5915 7.08641 25.6253 7.11771 25.6616 7.14651C25.6941 7.17155 25.7304 7.19408 25.7591 7.22163C25.7942 7.25794 25.8192 7.29926 25.8492 7.33932C25.8705 7.36937 25.8993 7.39566 25.9168 7.42822C25.9456 7.4783 25.9618 7.53088 25.9818 7.58347C25.9919 7.61227 26.0094 7.63856 26.0169 7.66861C26.0399 7.75393 26.0517 7.8419 26.0519 7.93029V33.6711L36.0708 27.8979V14.7389C36.0708 14.6513 36.0833 14.5624 36.1058 14.4785C36.1146 14.4484 36.1309 14.4221 36.1409 14.3933C36.1609 14.3408 36.1784 14.2869 36.2059 14.2381C36.2247 14.2055 36.2522 14.1792 36.2735 14.1492C36.3035 14.1091 36.3285 14.0678 36.3636 14.0327C36.3923 14.004 36.4286 13.9827 36.4612 13.9576C36.4987 13.9276 36.5312 13.895 36.5713 13.8712L48.5969 6.94368C48.7491 6.85589 48.9217 6.80968 49.0974 6.80968C49.2731 6.80968 49.4456 6.85589 49.5978 6.94368L61.621 13.8712C61.6636 13.8963 61.6961 13.9276 61.7336 13.9564C61.7649 13.9814 61.8012 14.004 61.83 14.0315C61.865 14.0678 61.89 14.1091 61.92 14.1492C61.9426 14.1792 61.9701 14.2055 61.9876 14.2381C62.0164 14.2869 62.0326 14.3408 62.0527 14.3933C62.0639 14.4221 62.0802 14.4484 62.0877 14.4785ZM60.1184 27.8979V16.4742L55.9109 18.8982L50.0983 22.2474V33.6711L60.1197 27.8979H60.1184ZM48.0953 48.5629V37.1317L42.3777 40.3995L26.0507 49.7248V61.2636L48.0953 48.5629ZM2.00428 9.66437V48.5629L24.0464 61.2624V49.726L12.5311 43.2041L12.5274 43.2016L12.5224 43.1991C12.4836 43.1766 12.4511 43.144 12.4148 43.1165C12.3835 43.0914 12.3472 43.0714 12.3197 43.0439L12.3172 43.0401C12.2847 43.0088 12.2621 42.97 12.2346 42.9349C12.2096 42.9011 12.1796 42.8723 12.1596 42.8373L12.1583 42.8335C12.1358 42.796 12.122 42.7509 12.1058 42.7083C12.0895 42.6708 12.0682 42.6357 12.0582 42.5956C12.0457 42.548 12.0432 42.4967 12.0382 42.4479C12.0332 42.4103 12.0232 42.3728 12.0232 42.3352V15.4375L6.21177 12.0871L2.00428 9.66437ZM13.0266 2.15961L3.00892 7.93029L13.0241 13.701L23.0405 7.92903L13.0241 2.15961H13.0266ZM18.2362 38.1734L24.0476 34.8254V9.66437L19.8401 12.0883L14.0275 15.4375V40.5986L18.2362 38.1734ZM49.0974 8.96948L39.081 14.7402L49.0974 20.5108L59.1125 14.7389L49.0974 8.96948ZM48.0953 22.2474L42.2826 18.8982L38.0751 16.4742V27.8979L43.8865 31.2458L48.0953 33.6711V22.2474ZM25.0473 47.9907L39.7391 39.597L47.0831 35.4026L37.0742 29.6357L25.5502 36.2753L15.0471 42.3264L25.0473 47.9907Z" fill="#FF2D20"/>
</g>
<defs>
<clipPath id="clip0_37_60">
<rect width="231" height="64" fill="white"/>
</clipPath>
</defs>
</svg>
