<svg viewBox="0 0 577.33 580.79" xmlns="http://www.w3.org/2000/svg" fill="#000">
  <path d="M113.61 8.51h18.4v51.56h25.22v18.5h-43.62V8.51Z" />
  <path d="m147.98 78.57 32.69-70.06h8.31l32.98 70.06h-18.4l-4.3-9.15h-28.68l-4.2 9.15h-18.4Zm29.8-24.66h14.29l-7.1-15.41-7.19 15.41ZM236.35 8.41h55.21v18.31h-18.59v51.84h-18.4V26.72h-18.22V8.41Z" />
  <path d="M316.31 8.51c19.34 0 35.03 15.79 35.03 35.12s-15.69 34.94-35.03 34.94-34.94-15.6-34.94-34.94 15.6-35.12 34.94-35.12Zm0 18.31c-9.15 0-16.63 7.47-16.63 16.72s7.47 16.72 16.63 16.72 16.72-7.57 16.72-16.72-7.47-16.72-16.72-16.72Z" />
  <path d="m387.02 78.57-10.84-18.59h-11.4v18.59h-18.4V8.51h29.52c14.2 0 25.78 11.58 25.78 25.78 0 7.47-3.27 14.2-8.31 18.87l14.85 25.41h-21.21ZM364.79 44.1h11.4c5.6 0 10.09-4.39 10.09-10s-4.48-10.09-10.09-10.09h-11.4v20.08Z" />
  <path d="m440.17 78.57-10.84-18.59h-11.4v18.59h-18.4V8.51h29.52c14.2 0 25.78 11.58 25.78 25.78 0 7.47-3.27 14.2-8.31 18.87l14.85 25.41h-21.21ZM417.94 44.1h11.4c5.61 0 10.09-4.39 10.09-10s-4.48-10.09-10.09-10.09h-11.4v20.08Z" />
  <path d="M452.69 8.51h43.53v15.23h-25.13v11.4h22.23v15.51h-22.23v12.89h25.13v15.04h-43.53V8.51ZM90.07 82.97l1.45 52.6c.18 6.98 1.27 10.25 3.99 10.25l-.54 1.09s-6.53-.63-11.88-.63-13.15.63-13.15.63l.18-1.09c2.72 0 6.35-1.63 7.62-6.17.36-1.18.45-2.54.45-4.08-.27-11.25-3.81-15.05-8.98-15.05-7.25 0-13.6 5.44-20.22 15.42-1.09 1.63-1.72 2.99-2.09 4.17-.19.65-.28 1.24-.28 1.77 0 2.96 2.76 3.95 4.99 3.95l-.54 1.09s-4.53-.63-7.89-.63-7.53.63-7.53.63l.18-1.09c2.72 0 5.35-2.9 9.97-9.88l35-52.96h9.25Zm-21.76 33.1c4.53 0 7.62 1.45 9.52 3.9l-.82-26.48-16.23 24.67c2.27-1.27 4.72-2.09 7.53-2.09ZM138.67 119.97l24.67-36.09s2.9.18 6.44.18c5.62 0 12.24-.63 12.24-.63l-.09 1.09c-2.72 0-7.25 4.44-9.25 11.43l-11.43 39.63c-.52 1.82-.74 3.38-.74 4.7 0 3.76 1.81 5.54 3.83 5.54l-.54 1.09s-6.53-.73-11.88-.73-12.88.73-12.88.73l.09-1.09c3.36 0 7.44-2.54 9.61-10.25l11.34-39.63c.36-1.36.63-2.54.72-3.63l-30.47 44.43h-3.26l-5.89-45.34c-.73 1.18-1.45 2.63-1.9 4.35l-11.61 40.17c-.55 1.96-.79 3.56-.79 4.85 0 3.82 2.1 5.03 4.6 5.03l-.45 1.09s-4.35-.73-7.71-.73-7.44.73-7.44.73l.09-1.09c2.72 0 6.8-2.9 8.8-9.88l11.52-40.17c.55-1.93.79-3.66.79-5.14 0-3.88-1.64-6.1-3.6-6.1l.54-1.09s5.99.63 10.25.63 9.61-.63 9.61-.63l4.81 36.55ZM166.43 146.91l.09-1.09c2.72 0 6.98-3.26 8.98-10.25l11.33-39.63c.56-1.97.81-3.75.81-5.27 0-3.87-1.58-6.16-3.53-6.16l.54-1.09s6.26.63 11.88.63c8.25 0 9.61-.63 14.33-.63 10.07 0 14.41 3.07 14.41 8.92 0 1.48-.28 3.13-.8 4.96-1.45 5.17-5.71 10.16-11.7 14.06 4.89 2.27 7.9 7.19 7.9 12.96 0 1.61-.24 3.29-.73 5-3.63 12.51-15.69 17.59-23.49 17.59-8.52 0-11.33-.73-17.77-.73-5.35 0-12.24.73-12.24.73Zm21.11-7.72c0 3.31 1.94 4.54 5.55 4.54 5.89 0 11.15-5.35 14.06-15.33.71-2.4 1.01-4.62 1.01-6.59 0-3.09-.76-5.55-1.92-7.1-3.99 1.72-8.43 2.9-13.15 3.36l-4.81 16.78c-.5 1.73-.74 3.17-.74 4.34Zm6.55-24.66c8.25-2 14.96-8.8 17.41-17.32.63-2.21.92-4.03.92-5.5 0-3.6-1.73-5.11-4.37-5.11-4.17 0-7.07 4.08-8.62 9.34l-5.35 18.59ZM242.06 84.06c5.62 0 12.88-.63 12.88-.63l-.09 1.09c-3.36 0-7.8 3.72-9.98 11.43l-9.25 32.56c-.82 2.87-1.26 5.37-1.26 7.48 0 5.36 2.86 8.21 9.7 8.21 7.44 0 14.15-6.17 16.96-15.87l9.34-32.56c.59-2.1.86-3.9.86-5.39 0-3.98-1.86-5.85-4.3-5.85l.54-1.09s4.35.63 7.71.63 7.44-.63 7.44-.63l-.09 1.09c-2.72 0-7.25 4.26-9.25 11.24l-8.43 29.56c-4.62 16.05-13.69 22.04-25.3 22.04-10.78 0-16.88-4.72-16.88-13.9 0-2.41.42-5.12 1.29-8.14l8.43-29.38c.56-1.97.81-3.75.81-5.27 0-3.87-1.58-6.16-3.53-6.16l.45-1.09s6.35.63 11.97.63ZM320.14 121.7l1 .27s-7.44 12.51-10.52 23.4c-.27 1-.45 1.54-.45 1.54-6.89 0-16.59-.73-32.83-.73-5.35 0-12.24.73-12.24.73l.09-1.09c2.72 0 6.89-3.26 8.89-10.25l11.43-39.63c.55-1.93.79-3.67.79-5.17 0-3.93-1.64-6.25-3.6-6.25l.54-1.09s6.26.63 11.88.63 12.33-.63 12.33-.63l-.09 1.09c-2.72 0-7.35 4.44-9.34 11.43l-10.88 38.09c-.38 1.34-.6 2.59-.6 3.71 0 3.65 2.31 5.99 8.76 5.99 10.43 0 17.77-8.8 24.85-22.04ZM367.38 82.97l1.45 52.6c.18 6.98 1.27 10.25 3.99 10.25l-.54 1.09s-6.53-.63-11.88-.63-13.15.63-13.15.63l.18-1.09c2.72 0 6.35-1.63 7.62-6.17.36-1.18.45-2.54.45-4.08-.27-11.25-3.81-15.05-8.98-15.05-7.25 0-13.6 5.44-20.22 15.42-1.09 1.63-1.72 2.99-2.09 4.17-.19.65-.28 1.24-.28 1.77 0 2.96 2.76 3.95 4.99 3.95l-.54 1.09s-4.53-.63-7.89-.63-7.53.63-7.53.63l.18-1.09c2.72 0 5.35-2.9 9.97-9.88l35-52.96h9.25Zm-21.76 33.1c4.53 0 7.62 1.45 9.52 3.9l-.82-26.48-16.23 24.67c2.27-1.27 4.72-2.09 7.53-2.09ZM398.4 84.06c1.54 0 3.26-.09 4.62-.27l20.68 41.99 8.62-30.02c.59-2.1.86-3.9.86-5.39 0-3.98-1.87-5.85-4.3-5.85l.54-1.09s4.35.63 7.71.63 7.44-.63 7.44-.63l-.09 1.09c-2.72 0-7.16 4.26-9.16 11.24l-11.61 40.17c-.51 1.78-.73 3.3-.73 4.57 0 3.71 1.88 5.32 3.9 5.32l-.45 1.09s-3.72-.73-7.07-.73c-.63 0-1.36.09-1.99.09l-22.31-45.34-10.07 35c-.55 1.96-.79 3.56-.79 4.85 0 3.82 2.1 5.03 4.6 5.03l-.45 1.09s-4.35-.73-7.71-.73-7.44.73-7.44.73l.09-1.09c2.72 0 6.8-2.9 8.8-9.88l11.52-40.17c.55-1.93.79-3.66.79-5.14 0-3.88-1.64-6.1-3.6-6.1l.54-1.09s3.72.63 7.07.63ZM454.17 146.18c-5.62 0-13.96.73-13.96.73l.09-1.09c2.72 0 8.8-3.72 10.97-11.43l11.34-39.63c.51-1.77.72-3.31.72-4.61 0-1.5-.28-2.68-.72-3.56-10.07.09-14.96 3.81-21.95 16.87l-1-.27s5.17-7.35 8.25-18.23c.27-1 .36-1.54.36-1.54 5.44 0 12.79.45 23.67.63 11.06-.18 18.59-.63 24.03-.63 0 0-.18.54-.45 1.54-2.02 7.12-2.37 12.72-2.37 15.75 0 1.6.1 2.48.1 2.48l-1.09.27c.03-.87.05-1.7.05-2.49 0-11.05-3.07-14.29-12.38-14.37-1.81 1.63-3.54 4.35-4.62 8.16l-11.43 39.63c-.44 1.57-.64 2.98-.64 4.22 0 4.85 2.91 7.21 5.08 7.21l-.54 1.09s-7.89-.73-13.51-.73ZM536.51 121.7l1 .27s-7.44 12.51-10.52 23.4c-.27 1-.45 1.54-.45 1.54-6.89 0-16.6-.73-32.83-.73-5.35 0-12.24.73-12.24.73l.09-1.09c2.72 0 6.89-3.26 8.89-10.25l11.43-39.63c.55-1.93.79-3.67.79-5.17 0-3.93-1.63-6.25-3.6-6.25l.54-1.09s7.16.63 11.88.63l31.2-.63s-.27.54-.54 1.54c-1.64 5.78-2.02 10.77-2.02 14.17 0 3 .3 4.78.3 4.78l-1.18.18v-.51c0-4.99-2.52-16.99-11.8-16.99-7.71 0-11.7 4.81-13.06 9.52 0 0-3.45 11.7-5.08 17.5 10.79 0 13.33-2.36 18.5-8.89l1 .27s-5.08 5.44-7.07 12.42c-1.63 5.8-1.9 13.78-1.9 13.78l-1.09.27c.03-.94.05-1.84.05-2.69 0-8.22-1.84-12.09-10.39-12.09l-4.9 17.32c-.38 1.34-.6 2.59-.6 3.71 0 3.65 2.31 5.99 8.76 5.99 10.43 0 17.77-8.8 24.85-22.04Z" />
  <path d="M105.46 160.11c-4.05 0-8.02-.04-11.91-.12-40.44-.81-89.46-6.23-93.32-27.46-2.13-11.72 9.61-31.39 77.67-58.57 52.23-20.86 123.2-40.03 199.84-53.97C354.38 6.05 427.56-1.02 483.78.12c40.44.81 89.46 6.23 93.32 27.46 2.13 11.72-9.61 31.39-77.67 58.57-52.23 20.86-123.2 40.03-199.84 53.97-71.34 12.98-139.67 19.99-194.13 19.99ZM471.86 4.06c-54.22 0-122.29 6.99-193.39 19.93-76.38 13.9-147.08 32.99-199.06 53.75-50.38 20.11-77.78 39.82-75.19 54.07 2.59 14.25 35.18 23.04 89.41 24.13 55.97 1.12 128.85-5.91 205.23-19.81 76.38-13.9 147.08-32.99 199.06-53.75 50.37-20.12 77.77-39.83 75.18-54.08-2.59-14.25-35.18-23.04-89.41-24.13-3.87-.08-7.82-.12-11.84-.12Z" />
  <path d="M449.05 453.72c-.45-14.15-5.38-27.4-7.87-41.14-.14-.79-.23-1.47-.25-2.06-2.15-6.96-5.2-13.6-7.29-20.58-.2-.67-.26-1.29-.22-1.87-.13-.62-.25-1.28-.37-1.97-1.14-6.68-2.42-13.03-5.15-19.37-.67-1.56-1.14-2.97-1.43-4.27-.32-.45-.58-.99-.76-1.62-1.38-4.85-2.63-9.72-2.91-14.7-.65-.31-.98-1.1-.96-2.41.23-12.04-6.12-22.74-6.74-34.62-.19-3.65-1.18-7.36-2.42-10.83-6.49-18.12-9.02-37.32-15.43-55.46-1.39-3.93-2.08-8.25-2.23-12.42-.17-4.74-2.12-7.88-5.91-10.43-8.9-5.98-14.31-15.73-23.23-21.72-.98-.66-1.8-2.09-2.75-2.15-1.84-.11-3.17-.58-4.16-1.3-.38-.08-.76-.2-1.15-.38-3.32-1.49-6.59-3.08-9.86-4.69-7.27-2.57-13.25-3.74-16.91-4.32-25.12-3.98-47.01 3.04-69.1 10.37-5.43 1.8-9.74 3.42-12.17 4.36-17.92 5.85-35.85 11.71-53.77 17.56-4.84 1.86-9.99 3.05-15.13 3.18-.47.14-.96.27-1.49.39-2.94.69-5.75 1.96-8.66 2.8-7.28 2.1-14.17 5.82-21.83 6.29-5.71.35-10.4 2.99-14.98 5.67-5.46 3.19-6.56 7.52-5.08 13.94.94 4.07 2.38 8.24 2.61 12.23.75 13.16 3.36 26.05 5.01 39.62 3.22 11.14 3.37 22.81 3.52 34.34.55 28.42.93 50.14.94 58.93h-.05c-.29 3.91-.22 7.79.86 11.61.43 1.51.18 2.81-.45 3.84.13.64.25 1.32.36 2.06.48 3.18.68 6.36.97 9.55.63 6.92 2.01 12.91 9.52 16.81 2.93 1.52 5.71 3.33 8.41 5.28.49-3.23 1.82-6.29 2.42-9.72-1.55-.95-3.16-1.82-4.85-2.55-4.17-1.79-6.27-4.63-7-8.47-.19-.41-.34-.88-.41-1.42-.66-4.51-1.52-9.05-1.46-13.62.06-3.96.82-7.89.28-11.78-.07-.01-.15-.03-.22-.04.61-18.22.59-36.99-.18-56.28-.1-2.53-.22-5.05-.34-7.56-.4-1.59-.72-3.22-1.02-4.85-.16-.9-.29-1.8-.39-2.7-.14-.57-.18-1.11-.14-1.62-.41-5.39 0-10.92-.2-16.36-.3-8.43-2.03-16.69-3.27-25.01-1.19-8.01-1.55-16.15-3.68-24.02-.26-.97-.37-2.1.7-2.7.92-.52 1.51.32 2.19.81 7.32 5.28 15.32 9.3 23.64 12.74.62.26 1.57.34 1.81.8 2.9 5.46 9.75 5.5 13.47 9.85.8.94 2.36 1.88 3.48 1.79 5.39-.43 6.37 3.18 7.32 7.19 3.95 16.7 8.93 33.23 11.66 50.12 1.79 11.07 5.72 21.88 5.07 33.37-.2 3.5.93 6.91 2.18 10.3 4.04 10.96 5.63 22.57 7.86 33.94 3.51 17.85 8.7 35.32 11.65 53.27 1.62 9.86 6.02 18.96 7.54 29.83-13.47-16.48-29.99-28.15-45.18-41.21-3.77-3.24-7.44-6.76-11.3-9.87 1.79 3.77.65 8.14 1.88 12.03.28.88.3 1.7.14 2.44 1.88 1.54 3.78 3.06 5.72 4.52 12.53 9.41 24.18 20 35.25 30.89 6.7 6.6 14.59 11.89 20.64 19.14 1.87 2.24 4.24 2.67 7.28 2.26 5.77-.77 10.63-4.13 16.41-5 3.26-.49 6.44.33 9.83-.8 3.45-1.16 7.02-1.98 10.64-2.89l7.09-2.02c.23-.08.46-.14.68-.22v.03l19.24-5.48c-.27 0-.52-.02-.8-.02 9.68-2.94 17.87-6.01 26.53-8.08 12.57-3.01 24.76-7.7 36.92-12.2.79-.29 1.57-.54 2.33-.74 11.16-4.9 22.52-9.29 34.25-12.7 1.2-.35 2.26-.27 3.16.08 7.35-2.08 14.52-4.28 21.54-6.98.92-.35 1.69-1.29 2.61-1.43 5.43-.85 5.72-1.81 5.53-7.53Zm-10.86.52c-7.93 3.44-16.36 5.34-24.63 7.49-7.22 1.88-14.4 3.95-20.99 7.14-18.36 8.89-37.97 13.92-57.2 20.23-9.61 3.15-19.56 5.04-28.99 8.83-4.31 1.73-9.11 2.61-13.77 2.98-5.02.4-9.53 2.03-14.03 3.89-8.04 3.34-16.82 3.56-25.03 6.15-2.07.65-3.17-.49-3.5-2.52-2.71-16.64-8.86-32.48-11.08-49.26-.96-7.28-5.31-13.98-5.58-21.39-.38-10.53-5.05-20.17-5.51-30.66-.15-3.43-1.96-6.78-2.94-10.19-1.47-5.16-3.53-10.16-2.34-15.81.76-3.6-2.09-6.67-2.48-10.24-2.42-21.96-9.14-43.08-12.82-64.8-.95-5.63-3.14-11.04-4.65-16.58-1.8-6.59-1.67-6.72 5.12-8.66 6.18-1.76 12.35-3.52 18.53-5.28 8.85-2.23 17.69-4.51 26.06-8.22.76-.34 1.45-.56 2.07-.67.15-.08.3-.15.46-.21 5.63-2.26 11.02-5.17 17.06-6.19 1.03-.17 2.06-.28 3.1-.35.58-.23 1.23-.37 1.98-.37 16.69 0 33.3-15.22 50.06-11.59 13.43-1.65 25.68-7.74 38.67-11.04 5.76-1.46 11.6-2.16 17.38-3.36 2.39-.5 3.82.43 3.96 3.16.73 14.46 5.87 28.03 9.86 41.64 4.29 14.6 6.39 29.68 10.92 44.1 6.67 21.21 10.83 43.05 17.18 64.34 6.11 20.48 11.2 41.28 15.67 62.2.54 2.5-.03 4.13-2.57 5.23Z" />
  <path d="M204.03 405.3c.95 1.85.05 4.08-8.12 17.24-8.42 13.57-9.67 14.76-9.09 17.28 2.01 8.67 20.87 11.44 25.33 14.38 1.35.89 2.9 1.03 4.29 0 1.63-1.19 1.33-2.75 1.01-4.55-3.54-19.38-6.91-38.8-10.96-58.09-1.8-8.56-2.62-17.32-3.91-25.98-.57-3.87-2.47-6.13-6.61-7.13-11.98-2.89-23.51-7.28-35.18-11.25-.65-.22-1.27-.47-1.85-.74.07 3.01.28 6 .82 8.96.02 14.41.03 28.82.05 43.23.04 2.12-.09 4.26-.25 6.46-.35 4.82.2 9.41.89 14.18.13.86.05 1.65-.16 2.36.11-3.15.85-14.05 8.23-18.39 1.55-.91 3.39-1.53 16.23-1.01 17.45.7 18.75 2.03 19.27 3.04Z" />
  <path d="M355.77 266.87c13.05-.65 23.92 8.24 23.69 20.8-.26 14.45-7.59 25.38-24.27 25.22-14.37-.14-24.61-3.65-25.27-21.52-.51-13.75 9.86-23.7 25.86-24.5Zm-.75 4.67c-9.11-.29-15.56 3.8-19.24 12.04-3.08 6.89-2.33 13.62 2.49 19.44 5.79 6.99 13.63 6.42 21.46 4.85 9.64-1.94 16.91-13.85 14.5-23.46-2.14-8.52-8.49-12.77-19.2-12.86Z" />
  <path d="M355.53 314.92h-.36c-13.72-.13-26.52-3.06-27.28-23.47-.55-14.82 10.87-25.76 27.78-26.6 7.35-.37 14.37 2.13 19.25 6.85 4.35 4.21 6.68 9.9 6.57 16.02-.3 17.07-10 27.22-25.96 27.22Zm-2.21-4.1c.62.02 1.25.03 1.89.04 18.96.14 22.07-14.48 22.23-23.23.09-4.98-1.81-9.61-5.34-13.03-4.07-3.94-9.97-6.02-16.22-5.71-3.45.17-6.62.8-9.44 1.81 2.6-.89 5.49-1.29 8.63-1.19 11.64.11 18.75 4.95 21.13 14.4 1.31 5.21.18 11.18-3.11 16.39-3.19 5.05-7.91 8.53-12.95 9.55-2.27.46-4.55.83-6.81.97Zm-20.91-14.81c1.3 7.64 5.11 11.51 10.89 13.35-2.37-1.02-4.59-2.64-6.6-5.06-2.15-2.6-3.59-5.39-4.3-8.3Zm21.68-22.46c-7.81 0-13.2 3.56-16.46 10.85-2.82 6.32-2.08 12.14 2.2 17.32 4.77 5.77 10.99 5.86 19.49 4.15 3.96-.8 7.72-3.62 10.32-7.74 2.66-4.21 3.63-9.16 2.61-13.24-1.92-7.65-7.4-11.25-17.25-11.33h-.05c-.29-.01-.58-.01-.86-.01Zm-10.05-1.86c-7.61 3.6-12.16 10.36-12.11 18.85.16-2.54.82-5.15 2-7.79 2.32-5.19 5.74-8.91 10.11-11.06Z" />
  <path d="M362.59 290.6c0 5.53-4.74 9.78-10.83 9.7-3.86-.05-7.25-4.21-7.23-8.89.02-5.33 3.99-9.8 8.77-9.88 5.5-.09 9.29 3.61 9.29 9.07ZM156.58 441.14c-2.2 5.12-.04 10.15 1.94 14.92 6.24 14.97 10.96 30.42 14.81 46.17 3.06 12.52 3.39 24.39-2.9 36.38-5.4 10.29-3.04 14.75 7.13 20.32 15.74 8.63 30.65 19.02 49.24 21.1 7.42.83 14.64 2.83 18.55-6.61 1.97-4.75 7.06-2.61 10.86-3.17 6.32-.93 14.06.44 11.07-11.04-.4-1.54-.11-2.99.64-4.25-.62-3.3-1.36-6.54-2.86-9.02-1.38-2.27-3.84-4.23-6.57-5.87-9.95-5.34-18.33-7.73-24.3-8.91-5.57-1.11-12.05-1.76-17.95-6.73-3.07-2.58-4.76-5.3-5.88-7.17-12.57-21-19.66-45.7-20.52-47.47-9.4-19.23-2.45-33.23 12.08-46.34 2.71-2.93 5.24-6.1 6.75-9.65 2.76-6.49-.88-8.31-7.05-11.02-11.03-4.86-17.06-5.99-22.49-5.38-7.92.89-13.67 4.57-16.69 6.9-.63 2.47-1.54 6.22-2.49 10.82-2.08 10.11.02 18.12-3.37 26.03Zm6.65.68c3.28-9.22 4.11-18.7 3.4-28.27-.68-9.23 4.19-10.37 11.52-9.14 8.08 1.36 16.22 1.93 25.25 1.36-3.22 5.41-5.25 11.46-9.35 15.27-20.93 19.46-15.85 40.47-4.84 62.18 1.33 2.62 2.67 5.33 3.35 8.15 6.78 28.13 24.1 44.87 52.7 50.38 5.04.97 11.11 2.52 15.23 10-12.7-1.67-21.24-10.27-33.91-11 5.72 8.19 13.88 8.87 20.24 12.5 4.47 2.55 13.03 3.64 11.31 9.41-1.44 4.86-9.09 1.04-14.01.59-10.73-.98-18.86-9.08-30.83-11.82 5.57 9.99 16.72 11.78 21.37 21.37-4.73 2.17-8.66.65-12.59.14-15.6-1.99-27.25-12.26-40.56-19.11-7.2-3.7-8.8-7.82-4.65-14.8 5.71-9.62 6.48-19.8 3.96-30.82-4.02-17.58-7.68-35.2-16.01-51.41-2.45-4.78-3.36-9.95-1.57-14.98ZM447.93 515.83c-.34-1.32-.1-2.57.55-3.65-.54-2.84-1.17-5.63-2.46-7.76-1.18-1.95-3.3-3.64-5.65-5.05-7.08-2.26-13.97-5.07-20.9-7.67-.6-.23-1.08-.49-1.51-.76-4.7-1.51-9.38-3.09-13.93-5.02-3.07-1.3-4.56-3.47-4.9-5.83-.05-.11-.1-.22-.15-.34-1.37-3.15-2.71-6.32-4.03-9.5-1.9.38-3.89 1.21-5.87 2.2 7.72 15.26 20.91 24.71 39.92 28.38 4.33.83 9.56 2.17 13.1 8.6-10.92-1.44-18.27-8.83-29.17-9.46 4.92 7.05 11.94 7.63 17.41 10.75 3.84 2.19 11.2 3.13 9.73 8.09-1.24 4.18-7.82.89-12.05.51-9.23-.84-16.22-7.81-26.52-10.17 4.79 8.59 14.38 10.13 18.38 18.38-4.07 1.87-7.45.56-10.83.12-13.41-1.71-23.44-10.55-34.89-16.44-6.19-3.18-7.57-6.73-4-12.73 3.55-5.98 4.87-12.22 4.52-18.8-1.91.86-3.83 1.69-5.76 2.51-.22 5.34-1.49 10.62-4.27 15.93-4.64 8.85-2.61 12.68 6.13 17.48 13.54 7.43 26.36 16.36 42.35 18.15 6.38.72 12.59 2.43 15.95-5.69 1.69-4.09 6.07-2.25 9.34-2.73 5.44-.8 12.09.37 9.52-9.5Z" />
</svg>