<svg width="25" height="28" viewBox="0 0 25 28" fill="none" xmlns="http://www.w3.org/2000/svg">
<g clip-path="url(#clip0_38_89)">
<path d="M11.3 0.901639C11.5 0.901639 11.6 1.00164 11.8 1.10164C10.6 1.60164 9.4 2.90164 8.8 5.70164L6.6 6.30164C7.3 4.30164 8.7 0.901639 11.3 0.901639ZM12.4 1.90164C12.6 2.50164 12.8 3.20164 12.8 4.30164C12.8 4.40164 12.8 4.40164 12.8 4.50164L9.9 5.30164C10.5 3.20164 11.5 2.30164 12.4 1.90164ZM15 3.70164L13.7 4.10164C13.7 4.00164 13.7 3.90164 13.7 3.80164C13.7 2.90164 13.6 2.20164 13.4 1.60164C14.1 1.80164 14.7 2.70164 15 3.70164ZM21.5 5.30164C21.5 5.20164 21.4 5.10164 21.3 5.10164C21.1 5.10164 19 4.90164 19 4.90164C19 4.90164 17.5 3.40164 17.3 3.30164C17.1 3.10164 16.8 3.20164 16.7 3.20164C16.7 3.20164 16.4 3.30164 15.9 3.50164C15.4 2.10164 14.5 0.801639 13 0.801639H12.9C12.5 0.201639 11.9 0.00163927 11.4 0.00163927C7.8 -0.0983607 6.1 4.40164 5.5 6.70164C4.7 6.90164 3.9 7.20164 3 7.50164C2.2 7.70164 2.2 7.80164 2.1 8.50164C2 9.00164 0 24.8016 0 24.8016L15.9 27.8016L24.5 25.9016C24.5 25.9016 21.5 5.50164 21.5 5.30164Z" fill="#8DB849"/>
<path d="M21.2 5.10166C21.1 5.10166 19 4.90166 19 4.90166C19 4.90166 17.5 3.40166 17.3 3.30166C17.2 3.20166 17.2 3.20166 17.1 3.20166L15.9 27.8017L24.5 25.9017C24.5 25.9017 21.5 5.50166 21.5 5.30166C21.5 5.20166 21.3 5.10166 21.2 5.10166Z" fill="#5A863E"/>
<path d="M13 9.90163L11.9 13.1016C11.9 13.1016 11 12.6016 9.80001 12.6016C8.10001 12.6016 8.00001 13.6016 8.00001 13.9016C8.00001 15.3016 11.8 15.9016 11.8 19.3016C11.8 22.0016 10.1 23.7016 7.80001 23.7016C5.10001 23.7016 3.70001 22.0016 3.70001 22.0016L4.40001 19.6016C4.40001 19.6016 5.80001 20.8016 7.00001 20.8016C7.80001 20.8016 8.10001 20.2016 8.10001 19.7016C8.10001 17.8016 5.00001 17.7016 5.00001 14.6016C5.00001 12.0016 6.90001 9.50163 10.6 9.50163C12.3 9.40163 13 9.90163 13 9.90163Z" fill="#FFFFFE"/>
</g>
<defs>
<clipPath id="clip0_38_89">
<rect width="25" height="28" fill="white"/>
</clipPath>
</defs>
</svg>
