<svg width="78" height="64" viewBox="0 0 78 64" fill="none" xmlns="http://www.w3.org/2000/svg">
<g clip-path="url(#clip0_107_23)">
<path d="M62.9026 62.7287C68.25 62.3342 70.6246 59.7304 71.2313 53.9002C71.708 49.3676 71.8813 47.097 72.1153 42.5556C72.3926 37.1375 75.114 34.0164 77.7486 32.5698C78.5373 32.1227 78.5373 31.0794 77.7486 30.5797C75.01 28.9227 72.3493 25.3896 72.1066 20.7342C71.8726 16.2805 71.6993 14.0537 71.2313 9.5912C70.5726 3.31394 68.5533 1.28873 63.206 0.885446C47.1033 -0.0526358 31.2606 -0.0526358 15.1493 0.885446C9.80197 1.28873 7.78264 3.30517 7.12397 9.5912C6.65597 14.0449 6.48264 16.2717 6.24864 20.7342C6.00597 25.3896 3.3453 28.9227 0.606637 30.5797C-0.18203 31.0268 -0.18203 32.1227 0.606637 32.5698C3.2413 33.9726 5.95397 37.0937 6.23997 42.5556C6.47397 47.0882 6.6473 49.3589 7.12397 53.9002C7.73064 59.7216 10.1053 62.3342 15.4526 62.7287C31.3646 63.6405 47.0166 63.6405 62.92 62.7287H62.9026Z" fill="#191A1B"/>
<path d="M59.306 58.2926C64.038 57.942 66.144 55.6362 66.6814 50.4811C67.0974 46.4658 67.2534 44.4581 67.4614 40.4428C67.704 35.6472 70.1134 32.8855 72.4447 31.6055C73.1467 31.211 73.1467 30.2905 72.4447 29.8433C70.018 28.3792 67.6694 25.2581 67.4527 21.1288C67.2447 17.1836 67.0887 15.211 66.6727 11.2746C66.092 5.71621 64.3067 3.92772 59.566 3.57703C45.4307 2.45484 31.174 2.58635 17.0387 3.57703C12.3067 3.92772 10.5214 5.72498 9.93204 11.2746C9.51604 15.2198 9.36004 17.1924 9.15204 21.1288C8.93538 25.2494 6.58671 28.3792 4.16004 29.8433C3.45804 30.2466 3.45804 31.2022 4.16004 31.6055C6.49138 32.8417 8.89204 35.6033 9.14338 40.4428C9.35138 44.4581 9.50738 46.4658 9.92338 50.4811C10.4607 55.6362 12.558 57.942 17.2987 58.2926C31.2607 59.2658 45.344 59.3885 59.306 58.2926Z" fill="#D4FF4C"/>
<path d="M26.1993 37.9879C26.7193 37.3041 27.3173 37.006 27.9933 37.006C28.7386 37.006 29.4926 37.3129 30.2379 37.8389C32.6299 39.4257 35.3253 40.3375 38.5406 40.3375C41.0106 40.3375 42.9519 39.2767 42.9519 37.1638C42.9519 31.6405 24.7779 34.6652 24.7779 22.2597C24.7779 15.6055 30.1599 11.897 37.1193 11.897C42.0593 11.897 45.6473 13.3348 48.3426 15.0707C49.0186 15.5266 49.4606 16.4296 49.4606 17.3414C49.4606 17.8674 49.3133 18.4022 49.0099 18.8581L48.1866 20.0679C47.5886 20.9008 46.9126 21.2778 46.0893 21.2778C45.4913 21.2778 44.8933 21.0499 44.2173 20.7518C42.1979 19.6909 40.1006 19.1649 37.5613 19.1649C35.0219 19.1649 33.3753 20.6027 33.3753 22.1194C33.3753 27.7918 51.5493 24.6882 51.5493 36.7255C51.5493 43.4586 46.1673 47.623 37.9339 47.623C32.6993 47.623 28.8859 46.0362 25.3673 42.9326C24.7693 42.4066 24.5439 41.7227 24.5439 41.0389C24.5439 40.5129 24.6913 39.9079 25.0639 39.452L26.1819 38.0142L26.1993 37.9879Z" fill="black"/>
</g>
<defs>
<clipPath id="clip0_107_23">
<rect width="78" height="64" fill="white"/>
</clipPath>
</defs>
</svg>
