<svg viewBox="0 0 506 64" fill="none" xmlns="http://www.w3.org/2000/svg">
<path d="M41.2109 46.1245C41.2109 58.0415 30.5615 64 20.7882 64C7.78678 64 0 54.5837 0 47.227C0 45.0219 1.47115 43.2531 3.67319 43.2531C5.87522 43.2531 7.34637 45.0172 7.34637 47.227C7.34637 56.4228 11.46 63.0429 20.7882 63.0429C29.601 63.0429 35.7011 57.4503 35.7011 50.5394C35.7011 35.1646 1.98183 35.1646 1.98183 15.4499C1.98183 7.35665 9.03772 0 19.3217 0C29.6057 0 36.8068 6.10395 36.8068 11.2555C36.8068 13.4606 35.3357 15.2294 33.1336 15.2294C30.9316 15.2294 29.4604 13.4653 29.4604 11.2555C29.4604 4.26479 24.9814 0.882047 19.3217 0.882047C12.9311 0.882047 7.4963 5.00139 7.4963 11.4009C7.4963 26.7757 41.2156 25.9641 41.2156 46.1198L41.2109 46.1245ZM127.821 1.61865C126.06 1.61865 124.148 4.26479 123.708 5.66293L105.417 63.2634H100.127C100.127 63.2634 90.7239 33.7664 84.919 15.2998L69.7109 63.2634H64.3463L46.0601 5.66293C45.6196 4.26479 43.7081 1.61865 41.9465 1.61865V0.736603H56.344V1.61865C54.5824 1.61865 54.8729 4.26479 55.3133 5.66293L71.182 55.4657L84.4036 13.7562C83.3729 10.5939 82.4921 7.79767 81.8314 5.66293C81.391 4.26479 79.4795 1.61865 77.7179 1.61865V0.736603H92.1154V1.61865C90.3538 1.61865 90.6443 4.26479 91.0847 5.66293L106.878 55.5361L122.672 5.66293C123.113 4.26479 123.478 1.61865 121.716 1.61865V0.736603H127.812V1.61865H127.821ZM133.701 1.61865V0.736603H147.658V1.61865C145.897 1.61865 145.086 4.41493 145.086 5.88344V58.0368C145.086 59.51 145.892 62.3016 147.658 62.3016V63.2587H133.701V62.3016C135.463 62.3016 136.273 59.5804 136.273 58.1072V5.88344C136.273 4.41023 135.467 1.61865 133.701 1.61865ZM203.192 31.9977C203.192 51.1259 189.75 63.2634 172.56 63.2634H153.534V62.3063C155.295 62.3063 156.106 59.5851 156.106 58.1119V5.88344C156.106 4.41023 155.3 1.61865 153.534 1.61865V0.736603H172.56C189.75 0.736603 203.192 12.8741 203.192 32.0023V31.9977ZM194.009 31.9977C194.009 17.2844 187.913 1.76409 172.56 1.76409H164.919V62.3063H172.56C187.913 62.3063 194.009 46.7109 194.009 31.9977ZM262.769 46.1245C262.769 58.0415 252.119 64 242.346 64C229.345 64 221.558 54.5837 221.558 47.227C221.558 45.0219 223.029 43.2531 225.231 43.2531C227.433 43.2531 228.904 45.0172 228.904 47.227C228.904 56.4228 233.018 63.0429 242.346 63.0429C251.159 63.0429 257.259 57.4503 257.259 50.5394C257.259 35.1646 223.54 35.1646 223.54 15.4499C223.54 7.35665 230.591 0 240.875 0C251.159 0 258.36 6.10395 258.36 11.2555C258.36 13.4606 256.889 15.2294 254.687 15.2294C252.485 15.2294 251.013 13.4653 251.013 11.2555C251.013 4.26479 246.534 0.882047 240.875 0.882047C234.484 0.882047 229.049 5.00139 229.049 11.4009C229.049 26.7757 262.769 25.9641 262.769 46.1198V46.1245ZM314.193 12.6536H313.312C313.312 7.9478 310.89 1.61865 301.707 1.61865H294.361V58.0415C294.361 59.5147 295.171 62.3063 296.933 62.3063V63.2634H282.976V62.3063C284.737 62.3063 285.548 59.51 285.548 58.0415V1.61865H278.277C268.358 1.61865 266.671 7.94311 266.671 12.6536H265.716V0.736603H314.198V12.6536H314.193ZM320.073 1.61865V0.736603H334.03V1.61865C332.269 1.61865 331.458 4.41493 331.458 5.88344V43.3986C331.458 56.1226 338.069 63.0382 347.252 63.0382C356.435 63.0382 364.737 56.1226 364.737 43.3986V5.88344C364.737 4.41023 363.931 1.61865 362.165 1.61865V0.736603H368.19V1.61865C366.428 1.61865 365.618 4.41493 365.618 5.88344V43.3986C365.618 56.1226 357.611 63.9953 347.252 63.9953C332.119 63.9953 322.645 57.0797 322.645 43.3986V5.88344C322.645 4.41023 321.839 1.61865 320.073 1.61865ZM423.723 31.9977C423.723 51.1259 410.282 63.2634 393.092 63.2634H374.065V62.3063C375.827 62.3063 376.637 59.5851 376.637 58.1119V5.88344C376.637 4.41023 375.832 1.61865 374.065 1.61865V0.736603H393.092C410.282 0.736603 423.723 12.8741 423.723 32.0023V31.9977ZM414.54 31.9977C414.54 17.2844 408.445 1.76409 393.092 1.76409H385.45V62.3063H393.092C408.445 62.3063 414.54 46.7109 414.54 31.9977ZM429.603 1.61865V0.736603H443.561V1.61865C441.799 1.61865 440.988 4.41493 440.988 5.88344V58.0368C440.988 59.51 441.794 62.3016 443.561 62.3016V63.2587H429.603V62.3016C431.365 62.3016 432.176 59.5804 432.176 58.1072V5.88344C432.176 4.41023 431.37 1.61865 429.603 1.61865ZM477.94 0C494.1 0 506 13.6107 506 31.9977C506 50.3846 494.1 63.9953 477.94 63.9953C461.781 63.9953 449.44 50.3846 449.44 31.9977C449.44 13.6107 461.777 0 477.94 0ZM477.94 63.0429C491.457 63.0429 496.822 49.2116 496.822 32.0023C496.822 14.793 491.457 0.886738 477.94 0.886738C464.424 0.886738 458.619 14.7884 458.619 32.0023C458.619 49.2163 464.349 63.0429 477.94 63.0429Z" fill="#2832E8"/>
</svg>
