<svg xmlns="http://www.w3.org/2000/svg" fill="none" viewBox="0 0 492 99">
  <path fill="currentColor" d="M53.9323 90.5703c-3.5052 2.5156-7.1719 4.4479-10.9948 5.7969-3.8385 1.3542-8.1458 2.0312-12.9167 2.0312-5.9583 0-11.1145-1.1093-15.4739-3.3333-4.3802-2.2396-7.76044-5.3698-10.14065-9.3958-2.375-4.0157-3.5625-8.5729-3.5625-13.6719V51.9193c0-5.1875 1.1875-9.7865 3.5625-13.8021 2.38021-4.0261 5.76045-7.1615 10.14065-9.3958 4.3594-2.224 9.4739-3.3386 15.3437-3.3386 7.8386 0 15.1823 2.2552 22.0313 6.7552l.0104.0104.0104.0052c.6458.4532 1.0208.9896 1.1302 1.6094.1094.6198-.0625 1.2552-.5104 1.9011l-.7448-.5209.7656.4844-3.4583 5.4531-.026.0365c-.448.5781-.9636.9219-1.5417 1.026-.5938.1146-1.1927-.0312-1.7917-.4323-4.8646-3.1562-10.0677-4.7343-15.6146-4.7343-5.3906 0-9.5156 1.3906-12.375 4.1666-2.8541 2.7709-4.2812 6.3646-4.2812 10.7761v20.0781c0 4.4948 1.4219 8.1094 4.276 10.8385 2.8594 2.7344 6.9427 4.1042 12.25 4.1042 5.8907 0 11.6198-1.8854 17.1927-5.6562l.5105.7552-.6042-.6823c.599-.5313 1.2135-.7604 1.8385-.6823.6198.0781 1.1563.4427 1.6198 1.1041l3.8282 5.4115c.4427.6354.6302 1.2448.5572 1.8281-.0781.625-.4322 1.1511-1.0572 1.5677l-.5053-.7552.5313.7396Zm-1.0625-1.4792.0156-.0052.0104-.0104c.1667-.1094.2552-.2031.2657-.2812.0156-.1198-.0625-.3073-.2396-.5521l-3.8334-5.4219c-.151-.2187-.2708-.3333-.3541-.3437-.0834-.0105-.2188.0677-.4115.2395l-.0416.0417-.0521.0313c-5.875 3.9791-11.9479 5.9687-18.2084 5.9687-5.7916 0-10.2916-1.5364-13.5052-4.6094-3.2291-3.0885-4.8385-7.1354-4.8385-12.151V51.9193c0-4.9219 1.6094-8.9479 4.8333-12.0782 3.2136-3.1197 7.7604-4.6822 13.6406-4.6822 5.9063 0 11.4428 1.6822 16.6198 5.0416.1927.125.3438.1823.4532.1615.125-.0261.276-.1459.4427-.3594l.7135.5573-.7656-.4896 3.4479-5.4323.0104-.0156c.1615-.2344.2344-.4167.2136-.5417-.0261-.1302-.1511-.276-.3855-.4375l.5209-.7448-.5.7605c-6.5417-4.3073-13.5521-6.4584-21.0313-6.4584-5.5781 0-10.4166 1.0469-14.5156 3.1354-4.0729 2.0782-7.20833 4.9792-9.40625 8.7032-2.20313 3.7343-3.30729 8.026-3.30729 12.8802v20.0781c0 4.7656 1.10416 9.0156 3.30729 12.75 2.19792 3.7187 5.33335 6.6198 9.40625 8.6979 4.099 2.0938 8.9792 3.1406 14.6458 3.1406 4.5625 0 8.6667-.6458 12.3125-1.9323 3.6615-1.2916 7.1719-3.1458 10.5365-5.5625ZM121.941 71.6016c0 8.0156-2.698 14.4895-8.089 19.427-5.37 4.9167-12.661 7.3698-21.8801 7.3698-9.1302 0-16.4011-2.4531-21.8125-7.3645-5.4375-4.9375-8.1563-11.4167-8.1563-19.4323V52.5807c0-5.3646 1.2292-10.0781 3.6979-14.1458 2.4636-4.0625 5.9532-7.2552 10.4636-9.5833 4.4896-2.3125 9.7604-3.4688 15.8073-3.4688 6.1354 0 11.4481 1.1563 15.9371 3.4688 4.511 2.3281 7.98 5.526 10.401 9.5937 2.422 4.0573 3.631 8.7708 3.631 14.1354v19.0209Zm-1.818 0V52.5807c0-5.0312-1.125-9.4323-3.37-13.2083-2.245-3.7708-5.474-6.7396-9.677-8.9063-4.229-2.177-9.2656-3.2656-15.1041-3.2656-5.7552 0-10.7448 1.0886-14.974 3.2656-4.2083 2.1719-7.4583 5.1407-9.7448 8.9115-2.2917 3.776-3.4375 8.1771-3.4375 13.2031v19.0209c0 7.4791 2.5208 13.5104 7.5625 18.0833 5.0677 4.599 11.9323 6.901 20.5938 6.901 8.7451 0 15.6301-2.302 20.6511-6.8958 5-4.5781 7.5-10.6042 7.5-18.0885Zm-45.3386 0c0 4.6718 1.4479 8.3958 4.3385 11.1666 2.9115 2.7813 7.1927 4.1719 12.849 4.1719 5.7448 0 10.0681-1.3906 12.9791-4.1719 2.891-2.7708 4.339-6.4948 4.339-11.1666V52.5807c0-4.7656-1.448-8.5521-4.344-11.3698-2.906-2.8229-7.2346-4.2343-12.9741-4.2343-5.6563 0-9.9375 1.4114-12.8438 4.2343-2.8958 2.8177-4.3437 6.6042-4.3437 11.3698v19.0209Zm-1.8177 0V52.5807c0-5.276 1.6302-9.5 4.8958-12.6718 3.2604-3.1667 7.9635-4.75 14.1094-4.75 6.2343 0 10.9791 1.5833 14.2391 4.75 3.266 3.1718 4.896 7.3958 4.896 12.6718v19.0209c0 5.1875-1.635 9.3489-4.901 12.4791-3.26 3.1198-8.005 4.6771-14.2341 4.6771-6.1459 0-10.8438-1.5573-14.1042-4.6771-3.2656-3.1302-4.901-7.2916-4.901-12.4791ZM178.639 3.04428c0-.75.229-1.33854.693-1.76042.437-.401038 1.036-.598954 1.802-.598954h7.791c.735 0 1.313.208333 1.735.625004.416.42187.625 1 .625 1.73437V91.1537c0 1.1822-.573 2.0312-1.724 2.5468l-.052.0209c-3.839 1.427-8.026 2.5625-12.568 3.4062-4.547.849-8.964 1.2709-13.245 1.2709-5.854 0-11.062-1.0157-15.625-3.0469-4.625-2.0625-8.239-5.2865-10.849-9.6823-2.594-4.3698-3.89-9.9375-3.89-16.7084V54.2995c0-6.0677 1.276-11.2656 3.823-15.5886 2.557-4.3333 6.067-7.6406 10.541-9.927 4.443-2.2657 9.516-3.4011 15.209-3.4011 3.156 0 6.208.3854 9.145 1.1563 2.933.7656 5.573 1.7812 7.927 3.0468l-.432.8021h-.906V3.04428Zm1.818 0V31.9089l-1.339-.724c-2.229-1.1979-4.734-2.1615-7.526-2.8906-2.786-.7292-5.682-1.0938-8.687-1.0938-5.407 0-10.198 1.0677-14.386 3.2032-4.156 2.1197-7.422 5.1979-9.802 9.2291-2.38 4.0417-3.573 8.9271-3.573 14.6667v14.6614c0 6.4375 1.214 11.698 3.641 15.7813 2.411 4.0625 5.75 7.0469 10.026 8.9479 4.328 1.9271 9.291 2.8959 14.885 2.8959 4.172 0 8.474-.4167 12.912-1.2396 4.437-.8282 8.526-1.9375 12.265-3.3282l.318.849-.37-.8281c.432-.1927.651-.4896.651-.8854V3.04428c0-.23437-.036-.38542-.099-.44792-.062-.0625-.213-.09895-.448-.09895h-7.791c-.297 0-.485.04166-.578.125-.068.0625-.099.20312-.099.42187ZM146.113 68.9609c0 6.6771 1.547 11.3594 4.635 14.0417 3.136 2.7136 7.537 4.0729 13.214 4.0729 2.771 0 5.515-.2187 8.245-.651 2.708-.4323 5.046-1.0313 7.01-1.7969l.328.8438h-.906V40.6901h.906l-.521.7396c-2.036-1.4375-4.333-2.5677-6.885-3.375-2.552-.8073-5.323-1.2083-8.313-1.2083-5.666 0-10.041 1.3958-13.125 4.1875-3.062 2.7708-4.588 7.1927-4.588 13.2656v14.6614Zm-1.818 0V54.2995c0-6.6094 1.729-11.4792 5.188-14.6094 3.427-3.1094 8.213-4.6614 14.343-4.6614 3.177 0 6.131.4322 8.86 1.2968 2.734.8646 5.198 2.0729 7.385 3.625l.386.2709v45.8698l-.579.2239c-2.088.8177-4.546 1.4531-7.39 1.9011-2.818.4479-5.662.6718-8.526.6718-6.13 0-10.927-1.5052-14.401-4.5156-3.511-3.0417-5.266-8.1771-5.266-15.4115ZM221.4 8.59115c0 2.09895-.703 3.85415-2.114 5.26565-1.412 1.4114-3.167 2.1146-5.266 2.1146-2.094 0-3.865-.698-5.318-2.1042-1.463-1.4115-2.193-3.1667-2.193-5.27605 0-2.19792.735-3.98438 2.204-5.35417 1.453-1.34896 3.218-2.02604 5.307-2.02604 2.094 0 3.844.67708 5.255 2.03646 1.417 1.36979 2.125 3.15104 2.125 5.34375Zm-1.812 0c0-1.67709-.526-3.02605-1.573-4.03646-1.058-1.01563-2.391-1.52604-3.995-1.52604-1.609 0-2.969.51041-4.068 1.53645-1.083 1.01042-1.63 2.35417-1.63 4.02605 0 1.59375.547 2.91665 1.641 3.96875 1.099 1.0625 2.453 1.599 4.057 1.599 1.599 0 2.927-.5313 3.984-1.5834 1.052-1.0573 1.584-2.3854 1.584-3.98435Zm-9.532 88.35415c-.76 0-1.364-.1979-1.802-.5989-.458-.4219-.687-1.0105-.687-1.7605V29.3307c0-.7812.219-1.3906.661-1.8333.443-.4375 1.052-.6615 1.828-.6615h7.797c.75 0 1.334.2344 1.761.6927.401.4375.599 1.0365.599 1.8021v65.2552c0 .7344-.209 1.3125-.631 1.7344-.416.4167-.994.625-1.729.625h-7.797Zm0-1.8125h7.797c.235 0 .38-.0364.448-.0989.063-.0625.094-.2136.094-.448V29.3307c0-.2916-.042-.4843-.125-.5729-.063-.0677-.198-.1042-.417-.1042h-7.797c-.276 0-.458.0417-.547.1303-.083.0885-.13.2708-.13.5468v65.2552c0 .2188.037.3594.104.4219.089.0833.282.125.573.125ZM287.58 76.7526c0 4.6927-1.23 8.6667-3.683 11.9115-2.437 3.2135-5.739 5.6458-9.901 7.2968-4.114 1.625-8.828 2.4375-14.14 2.4375-4.667 0-9.271-.6927-13.808-2.0833-4.541-1.3958-8.838-3.5781-12.885-6.5469-1.115-.8333-1.333-1.9166-.672-3.25l.016-.026 3.583-6.1042c.406-.6771.922-1.0781 1.542-1.1927.599-.1146 1.224.0573 1.875.5104l.01.0104.016.0105c3.093 2.3229 6.385 4.1041 9.864 5.3541 3.469 1.2396 7.042 1.8594 10.724 1.8594 4.235 0 7.776-.8594 10.625-2.5781 2.703-1.625 4.052-3.9896 4.052-7.0781 0-2.1928-.687-3.875-2.062-5.0625-1.485-1.2761-3.354-2.25-5.61-2.9219-2.343-.6927-4.734-1.2552-7.166-1.6927h-.016l-.021-.0052c-2.39-.5313-5.067-1.198-8.031-1.9896-3.026-.8177-5.917-2.0104-8.667-3.5938-2.807-1.6041-5.125-3.7187-6.963-6.3385-1.87-2.6667-2.807-5.9896-2.807-9.9688 0-4.7187 1.328-8.5937 3.989-11.6302 2.615-2.9791 5.979-5.1823 10.094-6.5989 4.062-1.3959 8.344-2.099 12.849-2.099 4.219 0 8.266.5417 12.13 1.6198 3.859 1.0781 7.625 2.6458 11.297 4.7083l-.443.7917.375-.8281c.745.3385 1.198.8125 1.36 1.4166.161.6042.005 1.2396-.464 1.9115l-.745-.5208.782.4687-3.568 5.9427-.781-.4687.812.4062c-.338.6875-.807 1.1094-1.401 1.2657-.578.1562-1.198.0312-1.859-.3646l.468-.7761-.437.7969c-2.667-1.4635-5.531-2.6302-8.594-3.4896-3.047-.8594-6.198-1.2864-9.463-1.2864-4.401 0-7.844.8073-10.334 2.427-2.369 1.5417-3.552 3.6407-3.552 6.3073 0 2.1094.672 3.7813 2.016 5.0105 1.437 1.3125 3.411 2.3489 5.922 3.1041 2.614.7813 5.453 1.4792 8.505 2.0886 2.661.5364 5.437 1.1979 8.318 2 2.937.8125 5.645 1.9166 8.13 3.3177 2.552 1.4375 4.64 3.4114 6.26 5.9114 1.641 2.5313 2.459 5.7344 2.459 9.6094Zm-1.818 0c0-3.5208-.719-6.3906-2.162-8.6198-1.463-2.2552-3.338-4.026-5.63-5.3177-2.359-1.3281-4.932-2.3802-7.724-3.151-2.838-.7865-5.567-1.4427-8.187-1.9688-3.115-.6198-6-1.3333-8.672-2.1302-2.776-.8333-4.984-2-6.625-3.5052-1.74-1.5885-2.609-3.7031-2.609-6.349 0-3.3229 1.458-5.9323 4.375-7.8281 2.796-1.8177 6.572-2.7239 11.328-2.7239 3.432 0 6.75.4531 9.958 1.3541 3.193.9011 6.182 2.1146 8.974 3.6459l.016.0104.015.0052c.219.1354.37.1875.453.1666.068-.0156.151-.125.245-.3229l.016-.026 3.604-6.0052.016-.0261c.145-.2083.213-.3437.197-.401-.015-.0521-.135-.1302-.354-.2344l-.073-.0312c-3.547-1.9896-7.177-3.5052-10.895-4.5417-3.704-1.0365-7.589-1.5521-11.641-1.5521-4.302 0-8.386.6667-12.255 2-3.813 1.3125-6.917 3.3386-9.323 6.0781-2.36 2.6928-3.537 6.1667-3.537 10.4323 0 3.5938.823 6.5677 2.474 8.9219 1.688 2.4011 3.813 4.3386 6.38 5.8125 2.62 1.5 5.365 2.6354 8.24 3.4115 2.938.7864 5.589 1.4427 7.953 1.9687l-.198.8906.162-.8958c2.495.4479 4.953 1.0261 7.359 1.7396 2.505.7396 4.599 1.8385 6.281 3.2865 1.797 1.5468 2.693 3.6927 2.693 6.4375 0 3.776-1.641 6.651-4.932 8.6354-3.136 1.8906-6.99 2.8385-11.563 2.8385-3.89 0-7.672-.6562-11.338-1.9687-3.651-1.3073-7.099-3.1771-10.344-5.6094l.547-.7292-.521.7448c-.234-.1614-.401-.2344-.5-.2135-.083.0156-.187.125-.307.3281l-3.568 6.0729-.786-.4583.812.4062c-.125.2604-.177.4636-.151.6146.026.1198.115.2396.276.3594 3.88 2.8489 7.995 4.9375 12.344 6.2708 4.359 1.3386 8.781 2.0104 13.271 2.0104 5.083 0 9.573-.7708 13.468-2.3177 3.849-1.5208 6.891-3.7552 9.125-6.7031 2.209-2.9219 3.313-6.526 3.313-10.8125ZM298.702 32.4141c3.167-2.1719 6.907-3.8855 11.224-5.1459 4.313-1.2552 9.063-1.8854 14.261-1.8854 8.333 0 14.943 2.2136 19.828 6.6458 4.911 4.448 7.365 11.0782 7.365 19.8907v39.6302c0 1.3177-.605 2.1771-1.808 2.5781l-.291-.8646.317.8542c-3.13 1.1614-6.968 2.1667-11.51 3.0104-4.547.849-9.313 1.2708-14.302 1.2708-5.026 0-9.745-.7187-14.151-2.1562-4.479-1.4636-8.12-3.8698-10.917-7.2188-2.823-3.3802-4.24-7.7812-4.24-13.1927 0-7.3698 2.756-12.8854 8.266-16.5468 5.391-3.5782 12.406-5.3646 21.042-5.3646 2.765 0 5.573.1562 8.422.4635 2.843.3125 5.38.6927 7.609 1.1354l-.177.8907h-.906v-4.224c0-5.1406-1.136-8.9688-3.401-11.4792-2.24-2.4843-6.089-3.7291-11.547-3.7291-3.61 0-7.005.4479-10.188 1.3541-3.177.9011-5.875 2.0313-8.093 3.3959l-.474-.7709.505.7552c-.604.4011-1.198.5469-1.771.4323-.578-.1146-1.068-.4739-1.469-1.0781l-3.849-5.5729-.021-.0417c-.661-1.1927-.614-2.1666.151-2.9323l.058-.0573.067-.0468Zm1.032 1.4948-.516-.7448.641.6406c-.115.1146-.063.3698.156.7656l-.797.4427.75-.5156 3.839 5.5573c.125.1875.229.2917.312.3073.083.0156.219-.0365.406-.1615l.032-.0208c2.359-1.4531 5.208-2.6511 8.546-3.599 3.339-.9479 6.902-1.4218 10.683-1.4218 5.995 0 10.291 1.4427 12.896 4.3281 2.578 2.8594 3.864 7.0937 3.864 12.6979v5.3333l-1.083-.2187c-2.177-.4323-4.662-.8021-7.453-1.1094-2.782-.3021-5.526-.4583-8.224-.4583-8.271 0-14.948 1.6927-20.037 5.0677-4.968 3.2969-7.453 8.3073-7.453 15.0312 0 4.974 1.271 8.9844 3.818 12.0313 2.573 3.0781 5.937 5.2969 10.088 6.651 4.219 1.3802 8.75 2.0729 13.584 2.0729 4.88 0 9.536-.4166 13.969-1.2395 4.442-.8282 8.177-1.8073 11.213-2.9323l.01-.0052.016-.0053c.38-.125.568-.4114.568-.8541V51.9193c0-8.2761-2.255-14.4584-6.766-18.5469-4.541-4.1146-10.745-6.1719-18.609-6.1719-5.021 0-9.604.6042-13.75 1.8125-4.136 1.2084-7.703 2.8386-10.703 4.8959Zm7.396 41.9218c0 3.6198 1.505 6.3594 4.52 8.2084 3.157 1.9323 7.203 2.901 12.136 2.901 2.942 0 5.802-.2344 8.567-.7135 2.777-.474 5.115-1.0157 7.011-1.6198l.276.8646h-.906V65.6589h.906l-.188.8854c-2.083-.4323-4.541-.8021-7.375-1.1094-2.828-.3021-5.593-.4531-8.291-.4531-5.787 0-10.031.9948-12.735 2.9896-2.614 1.9322-3.921 4.552-3.921 7.8593Zm-1.818 0c0-3.9166 1.552-7.026 4.661-9.3177 3.021-2.2344 7.625-3.3489 13.813-3.3489 2.765 0 5.594.1562 8.489.4687 2.891.3125 5.407.6875 7.552 1.1354l.719.1511V86.138l-.63.1979c-1.979.6302-4.396 1.1927-7.255 1.6823-2.87.4948-5.828.7396-8.875.7396-5.276 0-9.641-1.0573-13.089-3.1719-3.588-2.2031-5.385-5.4531-5.385-9.7552ZM369.096 96.9453c-.739 0-1.312-.2083-1.734-.625-.417-.4219-.63-1-.63-1.7344V33.2943c0-1.2552.52-2.1407 1.562-2.6615l.026-.0156.026-.0104c3.839-1.6042 7.922-2.8802 12.245-3.8125 4.333-.9427 8.823-1.4115 13.469-1.4115 6.026 0 11.323.9948 15.885 2.9844 4.625 2.0156 8.24 5.1979 10.849 9.5469 2.599 4.3229 3.896 9.9635 3.896 16.9114v39.7604c0 .75-.229 1.3386-.693 1.7605-.437.401-1.036.5989-1.802.5989h-7.792c-.734 0-1.312-.2083-1.734-.625-.417-.4219-.625-1-.625-1.7344V55.0911c0-6.5989-1.552-11.2552-4.646-13.9843-3.135-2.7552-7.578-4.1302-13.338-4.1302-2.683 0-5.412.2135-8.183.651-2.765.4323-5.13.9896-7.104 1.6771l-.302-.8594h.912v56.1406c0 .75-.23 1.3386-.693 1.7605-.438.401-1.037.5989-1.802.5989h-7.792Zm0-1.8125h7.792c.291 0 .484-.0417.573-.125.067-.0625.104-.2031.104-.4219V37.7995l.609-.2136c2.078-.7187 4.552-1.3073 7.422-1.7552 2.865-.4479 5.688-.6718 8.464-.6718 6.218 0 11.062 1.5312 14.536 4.5885 3.511 3.0833 5.261 8.1979 5.261 15.3437v39.4948c0 .2344.036.3855.098.448.063.0625.214.0989.448.0989h7.792c.292 0 .484-.0417.578-.125.068-.0625.099-.2031.099-.4219V54.8255c0-6.6146-1.208-11.9375-3.635-15.9791-2.407-4.0157-5.75-6.9532-10.016-8.8125-4.333-1.8907-9.385-2.8334-15.161-2.8334-4.516 0-8.875.4584-13.084 1.3646-4.218.9167-8.192 2.151-11.927 3.7188l-.349-.8386.407.8125c-.37.1823-.558.5313-.558 1.0365v61.2916c0 .2344.031.3855.099.448.063.0625.214.0989.448.0989ZM491.394 76.7526c0 4.6927-1.229 8.6667-3.682 11.9115-2.438 3.2135-5.74 5.6458-9.901 7.2968-4.115 1.625-8.828 2.4375-14.141 2.4375-4.667 0-9.271-.6927-13.807-2.0833-4.542-1.3958-8.839-3.5781-12.886-6.5469-1.114-.8333-1.333-1.9166-.671-3.25l.015-.026 3.584-6.1042c.406-.6771.921-1.0781 1.541-1.1927.599-.1146 1.224.0573 1.875.5104l.011.0104.015.0105c3.094 2.3229 6.386 4.1041 9.865 5.3541 3.469 1.2396 7.041 1.8594 10.724 1.8594 4.234 0 7.776-.8594 10.625-2.5781 2.703-1.625 4.052-3.9896 4.052-7.0781 0-2.1928-.688-3.875-2.063-5.0625-1.484-1.2761-3.354-2.25-5.609-2.9219-2.344-.6927-4.734-1.2552-7.167-1.6927h-.015l-.021-.0052c-2.391-.5313-5.068-1.198-8.031-1.9896-3.026-.8177-5.917-2.0104-8.667-3.5938-2.807-1.6041-5.125-3.7187-6.964-6.3385-1.869-2.6667-2.807-5.9896-2.807-9.9688 0-4.7187 1.328-8.5937 3.99-11.6302 2.614-2.9791 5.979-5.1823 10.093-6.5989 4.063-1.3959 8.344-2.099 12.849-2.099 4.219 0 8.266.5417 12.131 1.6198 3.859 1.0781 7.625 2.6458 11.296 4.7083l-.442.7917.375-.8281c.745.3385 1.198.8125 1.359 1.4166.162.6042.005 1.2396-.463 1.9115l-.745-.5208.781.4687-3.568 5.9427-.781-.4687.813.4062c-.339.6875-.808 1.1094-1.401 1.2657-.579.1562-1.198.0312-1.86-.3646l.469-.7761-.438.7969c-2.666-1.4635-5.531-2.6302-8.593-3.4896-3.047-.8594-6.198-1.2864-9.464-1.2864-4.401 0-7.844.8073-10.333 2.427-2.37 1.5417-3.552 3.6407-3.552 6.3073 0 2.1094.672 3.7813 2.015 5.0105 1.438 1.3125 3.412 2.3489 5.922 3.1041 2.615.7813 5.453 1.4792 8.505 2.0886 2.662.5364 5.438 1.1979 8.318 2 2.938.8125 5.646 1.9166 8.13 3.3177 2.552 1.4375 4.641 3.4114 6.261 5.9114 1.64 2.5313 2.458 5.7344 2.458 9.6094Zm-1.818 0c0-3.5208-.718-6.3906-2.161-8.6198-1.464-2.2552-3.339-4.026-5.63-5.3177-2.36-1.3281-4.933-2.3802-7.724-3.151-2.839-.7865-5.568-1.4427-8.188-1.9688-3.114-.6198-6-1.3333-8.672-2.1302-2.776-.8333-4.984-2-6.625-3.5052-1.739-1.5885-2.609-3.7031-2.609-6.349 0-3.3229 1.458-5.9323 4.375-7.8281 2.797-1.8177 6.573-2.7239 11.328-2.7239 3.432 0 6.75.4531 9.958 1.3541 3.193.9011 6.183 2.1146 8.974 3.6459l.016.0104.016.0052c.218.1354.369.1875.453.1666.068-.0156.151-.125.245-.3229l.015-.026 3.604-6.0052.016-.0261c.146-.2083.214-.3437.198-.401-.016-.0521-.135-.1302-.354-.2344l-.073-.0312c-3.547-1.9896-7.177-3.5052-10.896-4.5417-3.703-1.0365-7.589-1.5521-11.641-1.5521-4.302 0-8.385.6667-12.255 2-3.812 1.3125-6.916 3.3386-9.323 6.0781-2.359 2.6928-3.536 6.1667-3.536 10.4323 0 3.5938.823 6.5677 2.474 8.9219 1.687 2.4011 3.812 4.3386 6.38 5.8125 2.62 1.5 5.365 2.6354 8.24 3.4115 2.937.7864 5.588 1.4427 7.953 1.9687l-.198.8906.161-.8958c2.495.4479 4.953 1.0261 7.36 1.7396 2.505.7396 4.599 1.8385 6.281 3.2865 1.797 1.5468 2.693 3.6927 2.693 6.4375 0 3.776-1.641 6.651-4.933 8.6354-3.135 1.8906-6.989 2.8385-11.562 2.8385-3.891 0-7.672-.6562-11.339-1.9687-3.651-1.3073-7.099-3.1771-10.344-5.6094l.547-.7292-.52.7448c-.235-.1614-.402-.2344-.5-.2135-.084.0156-.188.125-.308.3281l-3.567 6.0729-.787-.4583.813.4062c-.125.2604-.178.4636-.151.6146.026.1198.114.2396.276.3594 3.88 2.8489 7.994 4.9375 12.343 6.2708 4.36 1.3386 8.782 2.0104 13.271 2.0104 5.083 0 9.573-.7708 13.469-2.3177 3.849-1.5208 6.891-3.7552 9.125-6.7031 2.208-2.9219 3.312-6.526 3.312-10.8125Z"/>
</svg>