<svg width="64" height="47" viewBox="0 0 64 47" fill="none" xmlns="http://www.w3.org/2000/svg">
<path d="M63.3286 3.94474C62.6507 3.61326 62.3587 4.24497 61.9623 4.56588C61.8267 4.66941 61.712 4.80395 61.5972 4.92816C60.6064 5.98408 59.4488 6.67795 57.9364 6.595C55.7253 6.47068 53.8375 7.16455 52.1687 8.85218C51.8141 6.77113 50.6356 5.52851 48.8416 4.73145C47.9031 4.31724 46.9539 3.90303 46.2968 3.00223C45.8378 2.36052 45.7127 1.64608 45.4832 0.941979C45.3371 0.517542 45.1912 0.0825373 44.7009 0.0100365C44.169 -0.0726917 43.9604 0.372313 43.7518 0.745272C42.9174 2.26733 42.5941 3.94463 42.6253 5.6426C42.6983 9.46321 44.315 12.507 47.5273 14.671C47.8924 14.9195 47.9862 15.1678 47.8715 15.5304C47.6524 16.2759 47.3917 17.0006 47.1623 17.746C47.0162 18.2224 46.7971 18.3259 46.2862 18.1186C44.5235 17.3838 43.0007 16.2965 41.6552 14.9817C39.3712 12.7763 37.3061 10.3432 34.73 8.43808C34.1251 7.99285 33.5201 7.57887 32.8942 7.18523C30.2659 4.63838 33.2385 2.54677 33.9268 2.29847C34.6464 2.0396 34.1771 1.14903 31.8513 1.15959C29.5254 1.16982 27.3978 1.94642 24.6861 2.98177C24.2898 3.13712 23.8724 3.25087 23.4448 3.34405C20.9835 2.87825 18.4281 2.7745 15.7581 3.07496C10.7309 3.63394 6.71561 6.00499 3.764 10.0533C0.217959 14.9195 -0.616396 20.4482 0.405738 26.2153C1.48003 32.2928 4.58799 37.3247 9.36489 41.2592C14.3191 45.3384 20.0242 47.3367 26.5323 46.9536C30.4852 46.7259 34.8866 46.1979 39.8511 42.0047C41.1026 42.626 42.4168 42.8743 44.5967 43.0606C46.2759 43.216 47.8926 42.9779 49.1441 42.7191C51.1049 42.3049 50.9693 40.493 50.2601 40.1617C44.5134 37.4906 45.7752 38.5776 44.628 37.6975C47.5483 34.2499 51.9498 30.6673 53.6707 19.0608C53.8062 18.1394 53.6915 17.5595 53.6707 16.8141C53.6602 16.3586 53.7645 16.1827 54.286 16.1308C55.7253 15.9651 57.1229 15.5718 58.4058 14.8677C62.1292 12.8385 63.631 9.50457 63.9856 5.50805C64.0379 4.89714 63.9752 4.26542 63.3286 3.94474ZM30.8815 39.9131C25.312 35.5441 22.6108 34.1047 21.4948 34.1669C20.4518 34.2291 20.6396 35.4197 20.8689 36.1963C21.1088 36.9624 21.4218 37.4906 21.8597 38.1634C22.1622 38.6087 22.3709 39.2712 21.5574 39.7683C19.7634 40.8762 16.6449 39.3955 16.4988 39.3231C12.8694 37.1901 9.83428 34.3738 7.69607 30.5225C5.63096 26.8157 4.43164 22.8401 4.23339 18.595C4.18123 17.5701 4.48368 17.2075 5.50581 17.0214C6.85124 16.7728 8.23845 16.7209 9.58387 16.9176C15.2682 17.746 20.1075 20.2826 24.1646 24.2999C26.4801 26.5879 28.2322 29.3215 30.0367 31.9927C31.9557 34.8294 34.0208 37.5319 36.6491 39.7475C37.5773 40.524 38.3178 41.1141 39.027 41.5491C36.889 41.7872 33.3221 41.8391 30.8815 39.9131ZM33.5515 22.7779C33.5515 22.3223 33.9166 21.9601 34.3756 21.9601C34.4799 21.9601 34.5738 21.9805 34.6572 22.0115C34.772 22.0531 34.8763 22.1153 34.9597 22.2082C35.1058 22.3534 35.1891 22.5603 35.1891 22.7778C35.1891 23.2334 34.8242 23.5956 34.3654 23.5956C33.9066 23.5956 33.5515 23.2335 33.5515 22.7779ZM41.8433 27.023C41.3113 27.2405 40.7794 27.4266 40.2684 27.4474C39.4757 27.4887 38.61 27.1677 38.1408 26.7743C37.4107 26.1634 36.8892 25.8219 36.6702 24.7554C36.5762 24.2999 36.6284 23.5958 36.712 23.1921C36.8996 22.3223 36.691 21.7633 36.0758 21.2558C35.5751 20.8416 34.9388 20.7279 34.24 20.7279C33.9792 20.7279 33.7395 20.6139 33.5621 20.5207C33.27 20.3758 33.0303 20.0134 33.2597 19.5682C33.3326 19.4234 33.6874 19.0713 33.7708 19.0092C34.72 18.4707 35.8151 18.6468 36.8268 19.0506C37.7655 19.4337 38.4747 20.1378 39.4968 21.1316C40.5397 22.3326 40.7274 22.6642 41.3219 23.5647C41.7914 24.2688 42.219 24.9935 42.511 25.8219C42.6883 26.3396 42.4586 26.7641 41.8433 27.023Z" fill="white"/>
</svg>
